AnekTamil-SemiCondensedExtraLight.ufo
<glyph name="exclam" format="2">
  <advance width="381.0025"/>
  <unicode hex="0021"/>
  <outline>
    <contour>
      <point x="221.35" y="368.245" type="line"/>
      <point x="231.48749999999998" y="1278.0" type="line"/>
      <point x="149.1475" y="1278.0" type="line"/>
      <point x="159.6525" y="368.245" type="line"/>
    </contour>
    <contour>
      <point x="190.21499999999997" y="-12.885" type="curve" smooth="yes"/>
      <point x="228.14" y="-12.885"/>
      <point x="245.86750000000004" y="12.3725"/>
      <point x="245.86750000000004" y="62.075" type="curve" smooth="yes"/>
      <point x="245.86750000000004" y="75.20750000000001" type="line" smooth="yes"/>
      <point x="245.86750000000004" y="123.91"/>
      <point x="228.14" y="149.16750000000002"/>
      <point x="190.21499999999997" y="149.16750000000002" type="curve" smooth="yes"/>
      <point x="152.495" y="149.16750000000002"/>
      <point x="135.665" y="123.91"/>
      <point x="135.665" y="75.20750000000001" type="curve" smooth="yes"/>
      <point x="135.665" y="62.075" type="line" smooth="yes"/>
      <point x="135.665" y="12.3725"/>
      <point x="152.495" y="-12.885"/>
    </contour>
  </outline>
</glyph>
<glyph name="numbersign" format="2">
  <advance width="987.775"/>
  <unicode hex="0023"/>
  <outline>
    <contour>
      <point x="209.7925" y="0.0" type="line"/>
      <point x="275.105" y="0.0" type="line"/>
      <point x="401.34499999999997" y="1278.0" type="line"/>
      <point x="336.0325" y="1278.0" type="line"/>
    </contour>
    <contour>
      <point x="63.260000000000005" y="374.30499999999995" type="line"/>
      <point x="876.75" y="374.30499999999995" type="line"/>
      <point x="876.75" y="433.63" type="line"/>
      <point x="63.260000000000005" y="433.63" type="line"/>
    </contour>
    <contour>
      <point x="587.9599999999999" y="0.0" type="line"/>
      <point x="653.7724999999999" y="0.0" type="line"/>
      <point x="778.2475" y="1278.0" type="line"/>
      <point x="712.8025" y="1278.0" type="line"/>
    </contour>
    <contour>
      <point x="112.79" y="853.6475" type="line"/>
      <point x="924.6474999999999" y="853.6475" type="line"/>
      <point x="924.6474999999999" y="913.34" type="line"/>
      <point x="112.79" y="913.34" type="line"/>
    </contour>
  </outline>
</glyph>
<glyph name="dollar" format="2">
  <advance width="788.0925"/>
  <unicode hex="0024"/>
  <anchor x="382.745" y="0.0" name="bottom"/>
  <anchor x="382.745" y="1278.0" name="top"/>
  <outline>
    <contour>
      <point x="423.30749999999995" y="1256.6675" type="line"/>
      <point x="423.30749999999995" y="1473.9525" type="line"/>
      <point x="354.02000000000004" y="1473.9525" type="line"/>
      <point x="354.02000000000004" y="1256.6675" type="line"/>
    </contour>
    <contour>
      <point x="423.30749999999995" y="-203.32" type="line"/>
      <point x="423.30749999999995" y="23.430000000000007" type="line"/>
      <point x="354.02000000000004" y="23.430000000000007" type="line"/>
      <point x="354.02000000000004" y="-203.32" type="line"/>
    </contour>
    <component base="S"/>
  </outline>
</glyph>
<glyph name="percent" format="2">
  <advance width="1204.8275"/>
  <unicode hex="0025"/>
  <outline>
    <contour>
      <point x="260.115" y="0.0" type="line"/>
      <point x="331.59499999999997" y="0.0" type="line"/>
      <point x="945.2425" y="1278.0" type="line"/>
      <point x="874.0274999999999" y="1278.0" type="line"/>
    </contour>
    <contour>
      <point x="903.9675" y="-18.4875" type="curve" smooth="yes"/>
      <point x="1038.8325" y="-18.4875"/>
      <point x="1110.2649999999999" y="69.6625"/>
      <point x="1110.2649999999999" y="216.48" type="curve" smooth="yes"/>
      <point x="1110.2649999999999" y="374.705" type="line" smooth="yes"/>
      <point x="1110.2649999999999" y="522.2574999999999"/>
      <point x="1039.1999999999998" y="609.7750000000001"/>
      <point x="903.9675" y="609.7750000000001" type="curve" smooth="yes"/>
      <point x="768.8675000000001" y="609.7750000000001"/>
      <point x="697.3325000000001" y="521.9925"/>
      <point x="697.3325000000001" y="374.705" type="curve" smooth="yes"/>
      <point x="697.3325000000001" y="216.48" type="line" smooth="yes"/>
      <point x="697.3325000000001" y="69.6625"/>
      <point x="768.3675000000001" y="-18.4875"/>
    </contour>
    <contour>
      <point x="903.9675" y="39.349999999999994" type="curve" smooth="yes"/>
      <point x="811.905" y="39.349999999999994"/>
      <point x="763.7349999999999" y="99.99"/>
      <point x="763.7349999999999" y="214.155" type="curve" smooth="yes"/>
      <point x="763.7349999999999" y="377.1325" type="line" smooth="yes"/>
      <point x="763.7349999999999" y="491.0625"/>
      <point x="811.405" y="552.0699999999999"/>
      <point x="903.9675" y="552.0699999999999" type="curve" smooth="yes"/>
      <point x="995.795" y="552.0699999999999"/>
      <point x="1043.4650000000001" y="491.0625"/>
      <point x="1043.4650000000001" y="377.1325" type="curve" smooth="yes"/>
      <point x="1043.4650000000001" y="214.155" type="line" smooth="yes"/>
      <point x="1043.4650000000001" y="99.99"/>
      <point x="996.295" y="39.349999999999994"/>
    </contour>
    <contour>
      <point x="301.565" y="668.0925" type="curve" smooth="yes"/>
      <point x="436.43" y="668.0925"/>
      <point x="507.72999999999996" y="756.2425000000001"/>
      <point x="507.72999999999996" y="902.6625" type="curve" smooth="yes"/>
      <point x="507.72999999999996" y="1061.1525" type="line" smooth="yes"/>
      <point x="507.72999999999996" y="1207.8075000000001"/>
      <point x="436.7975" y="1295.4575"/>
      <point x="301.565" y="1295.4575" type="curve" smooth="yes"/>
      <point x="165.8325" y="1295.4575"/>
      <point x="94.66499999999999" y="1207.8075000000001"/>
      <point x="94.66499999999999" y="1061.1525" type="curve" smooth="yes"/>
      <point x="94.66499999999999" y="902.6625" type="line" smooth="yes"/>
      <point x="94.66499999999999" y="756.11"/>
      <point x="165.8325" y="668.0925"/>
    </contour>
    <contour>
      <point x="301.565" y="725.4300000000001" type="curve" smooth="yes"/>
      <point x="209.5025" y="725.4300000000001"/>
      <point x="161.33249999999998" y="785.805"/>
      <point x="161.33249999999998" y="900.1025000000001" type="curve" smooth="yes"/>
      <point x="161.33249999999998" y="1063.58" type="line" smooth="yes"/>
      <point x="161.33249999999998" y="1176.8775"/>
      <point x="209.0025" y="1238.385"/>
      <point x="301.565" y="1238.385" type="curve" smooth="yes"/>
      <point x="393.26" y="1238.385"/>
      <point x="440.93" y="1176.8775"/>
      <point x="440.93" y="1063.58" type="curve" smooth="yes"/>
      <point x="440.93" y="900.1025000000001" type="line" smooth="yes"/>
      <point x="440.93" y="785.805"/>
      <point x="393.6275" y="725.4300000000001"/>
    </contour>
  </outline>
</glyph>
<glyph name="ampersand" format="2">
  <advance width="955.985"/>
  <unicode hex="0026"/>
  <outline>
    <contour>
      <point x="876.1624999999999" y="0.0" type="curve"/>
      <point x="965.5324999999999" y="0.0" type="line"/>
      <point x="965.5324999999999" y="5.415" type="line"/>
      <point x="903.5825" y="81.1775"/>
      <point x="800.6725" y="217.4375"/>
      <point x="740.62" y="290.1825" type="curve"/>
      <point x="722.935" y="313.7225" type="line"/>
      <point x="333.21999999999997" y="776.9449999999999" type="line" smooth="yes"/>
      <point x="268.19" y="856.8125"/>
      <point x="236.88250000000002" y="920.7650000000001"/>
      <point x="236.88250000000002" y="1010.8149999999999" type="curve" smooth="yes"/>
      <point x="236.88250000000002" y="1021.0925000000002" type="line" smooth="yes"/>
      <point x="236.88250000000002" y="1147.4274999999998"/>
      <point x="294.7025" y="1223.9475"/>
      <point x="441.83750000000003" y="1223.9475" type="curve" smooth="yes"/>
      <point x="549.3925" y="1223.9475"/>
      <point x="628.4525" y="1188.8025"/>
      <point x="691.7475000000001" y="1143.4825" type="curve"/>
      <point x="683.495" y="1220.065" type="line"/>
      <point x="632.345" y="1259.71"/>
      <point x="548.755" y="1295.4575"/>
      <point x="433.2375" y="1295.4575" type="curve" smooth="yes"/>
      <point x="241.45" y="1295.4575"/>
      <point x="156.57250000000002" y="1191.2775"/>
      <point x="156.57250000000002" y="1022.3150000000002" type="curve" smooth="yes"/>
      <point x="156.57250000000002" y="1012.0075" type="line" smooth="yes"/>
      <point x="156.57250000000002" y="906.9175"/>
      <point x="190.8975" y="832.58"/>
      <point x="261.2825" y="746.6650000000001" type="curve"/>
      <point x="275.11249999999995" y="727.715" type="line"/>
      <point x="682.645" y="244.6025" type="line"/>
      <point x="695.2950000000001" y="227.085" type="line"/>
      <point x="729.3975" y="189.055"/>
      <point x="837.9575" y="43.8975"/>
    </contour>
    <contour>
      <point x="402.0275" y="-17.825" type="curve" smooth="yes"/>
      <point x="571.17" y="-17.825"/>
      <point x="667.23" y="69.3625"/>
      <point x="738.1325" y="230.7375" type="curve"/>
      <point x="752.9675" y="250.9275" type="line"/>
      <point x="809.61" y="388.54749999999996"/>
      <point x="846.0975000000001" y="574.6675"/>
      <point x="862.465" y="807.62" type="curve"/>
      <point x="785.04" y="807.62" type="line"/>
      <point x="770.63" y="605.3225"/>
      <point x="743.8525" y="438.8025"/>
      <point x="699.395" y="309.2475" type="curve"/>
      <point x="683.2225000000001" y="276.805" type="line"/>
      <point x="623.74" y="128.8075"/>
      <point x="542.8175" y="51.1675"/>
      <point x="407.7675" y="51.1675" type="curve" smooth="yes"/>
      <point x="251.1625" y="51.1675"/>
      <point x="170.5225" y="137.57250000000002"/>
      <point x="170.5225" y="315.39500000000004" type="curve" smooth="yes"/>
      <point x="170.5225" y="431.85" type="line" smooth="yes"/>
      <point x="170.5225" y="565.25"/>
      <point x="209.15" y="650.1075"/>
      <point x="314.08" y="710.1025" type="curve"/>
      <point x="270.705" y="767.6625" type="line"/>
      <point x="133.085" y="685.41"/>
      <point x="90.74249999999999" y="573.59"/>
      <point x="90.74249999999999" y="425.0375" type="curve" smooth="yes"/>
      <point x="90.74249999999999" y="311.58250000000004" type="line" smooth="yes"/>
      <point x="90.74249999999999" y="95.915"/>
      <point x="194.5125" y="-17.825"/>
    </contour>
  </outline>
</glyph>
<glyph name="quotesingle" format="2">
  <advance width="274.67"/>
  <unicode hex="0027"/>
  <outline>
    <contour>
      <point x="168.07250000000002" y="883.84" type="line"/>
      <point x="176.15000000000003" y="1330.175" type="line"/>
      <point x="98.52000000000001" y="1330.175" type="line"/>
      <point x="106.96499999999999" y="883.84" type="line"/>
    </contour>
  </outline>
</glyph>
<glyph name="parenleft" format="2">
  <advance width="457.50749999999994"/>
  <unicode hex="0028"/>
  <outline>
    <contour>
      <point x="213.1625" y="667.4125" type="line" smooth="yes"/>
      <point x="213.1625" y="964.4125"/>
      <point x="262.68" y="1154.8925"/>
      <point x="402.0475" y="1351.1325000000002" type="curve"/>
      <point x="319.52" y="1351.1325000000002" type="line"/>
      <point x="188.68249999999998" y="1165.0124999999998"/>
      <point x="138.195" y="977.4"/>
      <point x="138.195" y="671.9425" type="curve" smooth="yes"/>
      <point x="138.195" y="439.7625" type="line" smooth="yes"/>
      <point x="138.195" y="134.4075"/>
      <point x="188.285" y="-53.44"/>
      <point x="319.255" y="-239.4275" type="curve"/>
      <point x="402.0475" y="-239.4275" type="line"/>
      <point x="262.68" y="-42.82"/>
      <point x="213.1625" y="147.16"/>
      <point x="213.1625" y="444.92499999999995" type="curve" smooth="yes"/>
    </contour>
  </outline>
</glyph>
<glyph name="parenright" format="2">
  <advance width="457.77250000000004"/>
  <unicode hex="0029"/>
  <outline>
    <contour>
      <point x="244.61" y="667.4125" type="curve" smooth="yes"/>
      <point x="244.61" y="444.92499999999995" type="line" smooth="yes"/>
      <point x="244.61" y="147.16"/>
      <point x="195.0925" y="-42.82"/>
      <point x="55.725" y="-239.4275" type="curve"/>
      <point x="138.5175" y="-239.4275" type="line"/>
      <point x="269.4875" y="-53.44"/>
      <point x="319.5775" y="134.4075"/>
      <point x="319.5775" y="439.7625" type="curve" smooth="yes"/>
      <point x="319.5775" y="671.9425" type="line" smooth="yes"/>
      <point x="319.5775" y="977.4"/>
      <point x="269.09" y="1165.0124999999998"/>
      <point x="138.2525" y="1351.1325000000002" type="curve"/>
      <point x="55.725" y="1351.1325000000002" type="line"/>
      <point x="195.0925" y="1154.8925"/>
      <point x="244.61" y="964.4125"/>
    </contour>
  </outline>
</glyph>
<glyph name="asterisk" format="2">
  <advance width="681.2275"/>
  <unicode hex="002A"/>
  <outline>
    <contour>
      <point x="190.19" y="729.3175" type="line"/>
      <point x="341.7225" y="948.6875" type="line"/>
      <point x="338.74" y="948.6875" type="line"/>
      <point x="490.0375" y="729.3175" type="line"/>
      <point x="546.8149999999999" y="767.4825000000001" type="line"/>
      <point x="380.3075" y="980.4675" type="line"/>
      <point x="378.0" y="974.545" type="line"/>
      <point x="621.3225" y="1037.8899999999999" type="line"/>
      <point x="604.6975" y="1103.04" type="line"/>
      <point x="362.55" y="1023.7325" type="line"/>
      <point x="367.7675" y="1018.75" type="line"/>
      <point x="375.97749999999996" y="1278.0" type="line"/>
      <point x="305.6175" y="1278.0" type="line"/>
      <point x="313.3275" y="1018.75" type="line"/>
      <point x="317.81" y="1023.7325" type="line"/>
      <point x="75.6625" y="1103.04" type="line"/>
      <point x="59.904999999999994" y="1037.8899999999999" type="line"/>
      <point x="302.59499999999997" y="974.545" type="line"/>
      <point x="300.655" y="980.4675" type="line"/>
      <point x="133.78" y="767.4825000000001" type="line"/>
    </contour>
  </outline>
</glyph>
<glyph name="plus" format="2">
  <advance width="809.805"/>
  <unicode hex="002B"/>
  <outline>
    <contour>
      <point x="439.56750000000005" y="261.585" type="line"/>
      <point x="439.56750000000005" y="999.2225" type="line"/>
      <point x="370.9725" y="999.2225" type="line"/>
      <point x="370.9725" y="261.585" type="line"/>
    </contour>
    <contour>
      <point x="87.1875" y="598.2025" type="line"/>
      <point x="722.6175" y="598.2025" type="line"/>
      <point x="722.6175" y="662.605" type="line"/>
      <point x="87.1875" y="662.605" type="line"/>
    </contour>
  </outline>
</glyph>
<glyph name="comma" format="2">
  <advance width="282.23499999999996"/>
  <unicode hex="002C"/>
  <outline>
    <contour>
      <point x="180.9025" y="231.98999999999998" type="curve"/>
      <point x="106.435" y="231.98999999999998" type="line"/>
      <point x="111.67000000000002" y="194.135"/>
      <point x="114.7725" y="155.2675"/>
      <point x="114.7725" y="114.9425" type="curve" smooth="yes"/>
      <point x="114.7725" y="-23.075"/>
      <point x="82.7725" y="-135.13500000000002"/>
      <point x="17.759999999999998" y="-236.7975" type="curve"/>
      <point x="67.2475" y="-265.17" type="line"/>
      <point x="155.65" y="-148.52"/>
      <point x="190.035" y="-27.442500000000003"/>
      <point x="190.035" y="117.2975" type="curve" smooth="yes"/>
      <point x="190.035" y="165.7675"/>
      <point x="184.1675" y="211.10500000000002"/>
    </contour>
  </outline>
</glyph>
<glyph name="hyphen" format="2">
  <advance width="714.9"/>
  <unicode hex="002D"/>
  <outline>
    <contour>
      <point x="124.38749999999999" y="498.86" type="line"/>
      <point x="590.88" y="498.86" type="line"/>
      <point x="590.88" y="564.16" type="line"/>
      <point x="124.38749999999999" y="564.16" type="line"/>
    </contour>
  </outline>
</glyph>
<glyph name="period" format="2">
  <advance width="277.60249999999996"/>
  <unicode hex="002E"/>
  <outline>
    <contour>
      <point x="138.25" y="-12.885" type="curve" smooth="yes"/>
      <point x="176.17499999999998" y="-12.885"/>
      <point x="193.9025" y="12.3725"/>
      <point x="193.9025" y="62.075" type="curve" smooth="yes"/>
      <point x="193.9025" y="75.94250000000001" type="line" smooth="yes"/>
      <point x="193.9025" y="124.645"/>
      <point x="176.17499999999998" y="149.9025"/>
      <point x="138.25" y="149.9025" type="curve" smooth="yes"/>
      <point x="100.53" y="149.9025"/>
      <point x="83.7" y="124.645"/>
      <point x="83.7" y="75.94250000000001" type="curve" smooth="yes"/>
      <point x="83.7" y="62.075" type="line" smooth="yes"/>
      <point x="83.7" y="12.3725"/>
      <point x="100.53" y="-12.885"/>
    </contour>
  </outline>
</glyph>
<glyph name="slash" format="2">
  <advance width="632.3925"/>
  <unicode hex="002F"/>
  <outline>
    <contour>
      <point x="50.93" y="-237.325" type="line"/>
      <point x="124.17500000000001" y="-237.325" type="line"/>
      <point x="581.4625" y="1344.56" type="line"/>
      <point x="508.48249999999996" y="1344.56" type="line"/>
    </contour>
  </outline>
</glyph>
<glyph name="zero" format="2">
  <advance width="870.8725000000001"/>
  <unicode hex="0030"/>
  <outline>
    <contour>
      <point x="435.36999999999995" y="-18.09" type="curve" smooth="yes"/>
      <point x="653.0775" y="-18.09"/>
      <point x="761.5274999999999" y="114.6075"/>
      <point x="761.5274999999999" y="362.7975" type="curve"/>
      <point x="761.5274999999999" y="914.1" type="line"/>
      <point x="761.5274999999999" y="1162.8925000000002"/>
      <point x="653.0775" y="1296.09"/>
      <point x="435.36999999999995" y="1296.09" type="curve" smooth="yes"/>
      <point x="217.53" y="1296.09"/>
      <point x="109.345" y="1162.8925000000002"/>
      <point x="109.345" y="914.1" type="curve"/>
      <point x="109.345" y="362.7975" type="line"/>
      <point x="109.345" y="114.6075"/>
      <point x="217.6625" y="-18.09"/>
    </contour>
    <contour>
      <point x="435.36999999999995" y="50.269999999999996" type="curve" smooth="yes"/>
      <point x="268.3975" y="50.269999999999996"/>
      <point x="188.52249999999998" y="158.61499999999998"/>
      <point x="188.52249999999998" y="358.6475" type="curve" smooth="yes"/>
      <point x="188.52249999999998" y="918.985" type="line" smooth="yes"/>
      <point x="188.52249999999998" y="1119.385"/>
      <point x="268.265" y="1227.8625"/>
      <point x="435.36999999999995" y="1227.8625" type="curve" smooth="yes"/>
      <point x="602.4749999999999" y="1227.8625"/>
      <point x="682.35" y="1119.385"/>
      <point x="682.35" y="918.985" type="curve" smooth="yes"/>
      <point x="682.35" y="358.6475" type="line" smooth="yes"/>
      <point x="682.35" y="158.61499999999998"/>
      <point x="602.4749999999999" y="50.269999999999996"/>
    </contour>
  </outline>
</glyph>
<glyph name="one" format="2">
  <advance width="535.3025"/>
  <unicode hex="0031"/>
  <outline>
    <contour>
      <point x="315.79749999999996" y="0.0" type="line"/>
      <point x="394.0475" y="0.0" type="line"/>
      <point x="394.0475" y="1278.0" type="line"/>
      <point x="298.705" y="1278.0" type="line"/>
      <point x="44.584999999999994" y="1072.6299999999999" type="line"/>
      <point x="43.1875" y="986.44" type="line"/>
      <point x="305.0025" y="1197.9925" type="line"/>
      <point x="315.79749999999996" y="1197.9925" type="line"/>
    </contour>
  </outline>
</glyph>
<glyph name="two" format="2">
  <advance width="713.965"/>
  <unicode hex="0032"/>
  <outline>
    <contour>
      <point x="64.1575" y="0.0" type="line"/>
      <point x="638.765" y="0.0" type="line"/>
      <point x="638.765" y="69.45" type="line"/>
      <point x="116.8375" y="69.45" type="line"/>
      <point x="148.93" y="46.637499999999996" type="line"/>
      <point x="148.93" y="76.11250000000001" type="line"/>
      <point x="374.69750000000005" y="403.2025" type="line" smooth="yes"/>
      <point x="530.24" y="629.5"/>
      <point x="622.9575" y="761.2175"/>
      <point x="622.9575" y="949.8025" type="curve" smooth="yes"/>
      <point x="622.9575" y="982.8575" type="line" smooth="yes"/>
      <point x="622.9575" y="1183.8925"/>
      <point x="528.6999999999999" y="1295.1924999999999"/>
      <point x="334.91999999999996" y="1295.1924999999999" type="curve" smooth="yes"/>
      <point x="216.53500000000003" y="1295.1924999999999"/>
      <point x="129.62" y="1249.3125"/>
      <point x="75.86749999999999" y="1208.8425" type="curve"/>
      <point x="67.4825" y="1131.76" type="line"/>
      <point x="137.32" y="1182.7425"/>
      <point x="219.14499999999998" y="1224.0800000000002"/>
      <point x="323.4525" y="1224.0800000000002" type="curve" smooth="yes"/>
      <point x="473.755" y="1224.0800000000002"/>
      <point x="543.9125" y="1136.44"/>
      <point x="543.9125" y="976.895" type="curve" smooth="yes"/>
      <point x="543.9125" y="944.105" type="line" smooth="yes"/>
      <point x="543.9125" y="782.9575"/>
      <point x="459.16999999999996" y="657.4975000000001"/>
      <point x="310.8075" y="439.265" type="curve" smooth="yes"/>
      <point x="64.1575" y="81.54" type="line"/>
    </contour>
  </outline>
</glyph>
<glyph name="three" format="2">
  <advance width="748.1825"/>
  <unicode hex="0033"/>
  <outline>
    <contour>
      <point x="338.13750000000005" y="-17.56" type="curve" smooth="yes"/>
      <point x="560.4475" y="-17.56"/>
      <point x="657.6025000000001" y="102.65"/>
      <point x="657.6025000000001" y="299.1125" type="curve" smooth="yes"/>
      <point x="657.6025000000001" y="389.16249999999997" type="line" smooth="yes"/>
      <point x="657.6025000000001" y="550.645"/>
      <point x="591.4575000000001" y="653.2425000000001"/>
      <point x="415.215" y="668.0425" type="curve"/>
      <point x="415.4675" y="659.5675" type="line"/>
      <point x="417.6725" y="664.7824999999999" type="line"/>
      <point x="587.0" y="676.715"/>
      <point x="648.8675000000001" y="785.0475"/>
      <point x="648.8675000000001" y="932.09" type="curve" smooth="yes"/>
      <point x="648.8675000000001" y="995.0550000000001" type="line" smooth="yes"/>
      <point x="648.8675000000001" y="1184.97"/>
      <point x="561.9475000000001" y="1295.3249999999998"/>
      <point x="351.68499999999995" y="1295.3249999999998" type="curve" smooth="yes"/>
      <point x="228.34249999999997" y="1295.3249999999998"/>
      <point x="134.9875" y="1256.5175"/>
      <point x="79.04249999999999" y="1214.445" type="curve"/>
      <point x="70.79" y="1139.7900000000002" type="line"/>
      <point x="139.4825" y="1187.375"/>
      <point x="228.235" y="1225.11"/>
      <point x="340.9825" y="1225.11" type="curve" smooth="yes"/>
      <point x="506.42999999999995" y="1225.11"/>
      <point x="570.0875" y="1140.6625"/>
      <point x="570.0875" y="985.78" type="curve" smooth="yes"/>
      <point x="570.0875" y="926.32" type="line" smooth="yes"/>
      <point x="570.0875" y="784.7575"/>
      <point x="510.04499999999996" y="698.0025"/>
      <point x="334.96500000000003" y="694.605" type="curve" smooth="yes"/>
      <point x="186.95250000000001" y="692.0749999999999" type="line"/>
      <point x="186.95250000000001" y="628.6850000000001" type="line"/>
      <point x="331.025" y="626.655" type="line" smooth="yes"/>
      <point x="508.37000000000006" y="623.625"/>
      <point x="578.1600000000001" y="548.1775"/>
      <point x="578.1600000000001" y="387.735" type="curve" smooth="yes"/>
      <point x="578.1600000000001" y="303.85249999999996" type="line" smooth="yes"/>
      <point x="578.1600000000001" y="146.20499999999998"/>
      <point x="505.255" y="53.715"/>
      <point x="331.5125" y="53.715" type="curve" smooth="yes"/>
      <point x="223.98250000000002" y="53.715"/>
      <point x="131.85" y="90.31750000000001"/>
      <point x="63.3925" y="137.4925" type="curve"/>
      <point x="71.91000000000001" y="56.6575" type="line"/>
      <point x="122.29500000000002" y="22.584999999999997"/>
      <point x="218.5175" y="-17.56"/>
    </contour>
  </outline>
</glyph>
<glyph name="four" format="2">
  <advance width="793.36"/>
  <unicode hex="0034"/>
  <outline>
    <contour>
      <point x="541.9275" y="0.0" type="line"/>
      <point x="617.6600000000001" y="0.0" type="line"/>
      <point x="617.6600000000001" y="1278.0" type="line"/>
      <point x="470.03499999999997" y="1278.0" type="line"/>
      <point x="48.307500000000005" y="341.20500000000004" type="line"/>
      <point x="48.307500000000005" y="256.665" type="line"/>
      <point x="763.9925" y="256.665" type="line"/>
      <point x="763.9925" y="324.82000000000005" type="line"/>
      <point x="92.405" y="324.82000000000005" type="line"/>
      <point x="124.20249999999999" y="292.69" type="line"/>
      <point x="124.20249999999999" y="334.74749999999995" type="line"/>
      <point x="520.0775" y="1218.3675" type="line"/>
      <point x="545.15" y="1218.3675" type="line"/>
      <point x="541.9275" y="950.5574999999999" type="line"/>
    </contour>
  </outline>
</glyph>
<glyph name="five" format="2">
  <advance width="799.23"/>
  <unicode hex="0035"/>
  <outline>
    <contour>
      <point x="390.18" y="-19.53" type="curve" smooth="yes"/>
      <point x="604.585" y="-19.53"/>
      <point x="703.5175" y="102.96249999999999"/>
      <point x="703.5175" y="312.19500000000005" type="curve" smooth="yes"/>
      <point x="703.5175" y="480.3675" type="line" smooth="yes"/>
      <point x="703.5175" y="678.1675"/>
      <point x="618.8125" y="795.98"/>
      <point x="443.69250000000005" y="795.98" type="curve" smooth="yes"/>
      <point x="311.8125" y="795.98"/>
      <point x="231.89000000000001" y="729.7625"/>
      <point x="191.715" y="638.9849999999999" type="curve"/>
      <point x="193.505" y="635.31" type="line"/>
      <point x="197.005" y="834.975" type="line"/>
      <point x="197.005" y="1209.285" type="line"/>
      <point x="683.38" y="1209.285" type="line"/>
      <point x="683.38" y="1278.0" type="line"/>
      <point x="121.31500000000001" y="1278.0" type="line"/>
      <point x="121.31500000000001" y="583.87" type="line"/>
      <point x="189.7825" y="572.9975000000001" type="line"/>
      <point x="237.5125" y="673.24"/>
      <point x="308.755" y="728.7524999999999"/>
      <point x="420.1725" y="728.7524999999999" type="curve" smooth="yes"/>
      <point x="563.1574999999999" y="728.7524999999999"/>
      <point x="625.1350000000001" y="633.0575"/>
      <point x="625.1350000000001" y="475.97" type="curve" smooth="yes"/>
      <point x="625.1350000000001" y="312.96000000000004" type="line" smooth="yes"/>
      <point x="625.1350000000001" y="144.59"/>
      <point x="548.2" y="51.612500000000004"/>
      <point x="384.085" y="51.612500000000004" type="curve" smooth="yes"/>
      <point x="272.055" y="51.612500000000004"/>
      <point x="186.21249999999998" y="89.48"/>
      <point x="117.65249999999999" y="135.7875" type="curve"/>
      <point x="126.67000000000002" y="55.35000000000001" type="line"/>
      <point x="176.32" y="21.145"/>
      <point x="265.3975" y="-19.53"/>
    </contour>
  </outline>
</glyph>
<glyph name="six" format="2">
  <advance width="832.7649999999999"/>
  <unicode hex="0036"/>
  <outline>
    <contour>
      <point x="431.82250000000005" y="-20.060000000000002" type="curve" smooth="yes"/>
      <point x="638.705" y="-20.060000000000002"/>
      <point x="740.0225" y="103.5475"/>
      <point x="740.0225" y="310.2925" type="curve" smooth="yes"/>
      <point x="740.0225" y="475.4225" type="line" smooth="yes"/>
      <point x="740.0225" y="681.5775"/>
      <point x="648.2575" y="802.2575"/>
      <point x="466.48749999999995" y="802.2575" type="curve" smooth="yes"/>
      <point x="294.8475" y="802.2575"/>
      <point x="200.78000000000003" y="697.3275"/>
      <point x="178.73250000000002" y="550.9325000000001" type="curve"/>
      <point x="159.4025" y="550.9325000000001" type="line"/>
      <point x="180.6375" y="491.9825" type="line"/>
      <point x="211.57750000000001" y="644.0825000000001"/>
      <point x="299.46999999999997" y="735.825"/>
      <point x="445.69000000000005" y="735.825" type="curve" smooth="yes"/>
      <point x="595.0175" y="735.825"/>
      <point x="662.435" y="636.3050000000001"/>
      <point x="662.435" y="471.26" type="curve" smooth="yes"/>
      <point x="662.435" y="309.05749999999995" type="line" smooth="yes"/>
      <point x="662.435" y="147.7175"/>
      <point x="589.0600000000001" y="47.9325"/>
      <point x="432.485" y="47.9325" type="curve" smooth="yes"/>
      <point x="272.84999999999997" y="47.9325"/>
      <point x="185.035" y="149.44"/>
      <point x="185.035" y="348.105" type="curve"/>
      <point x="185.035" y="899.12" type="line" smooth="yes"/>
      <point x="185.035" y="1108.675"/>
      <point x="268.3725" y="1224.0800000000002"/>
      <point x="457.3675" y="1224.0800000000002" type="curve" smooth="yes"/>
      <point x="566.0899999999999" y="1224.0800000000002"/>
      <point x="636.4449999999999" y="1190.875"/>
      <point x="703.21" y="1145.3625000000002" type="curve"/>
      <point x="695.03" y="1221.68" type="line"/>
      <point x="642.1450000000001" y="1257.385"/>
      <point x="564.375" y="1295.06"/>
      <point x="447.43" y="1295.06" type="curve" smooth="yes"/>
      <point x="217.11999999999998" y="1295.06"/>
      <point x="107.315" y="1152.1100000000001"/>
      <point x="107.315" y="901.505" type="curve" smooth="yes"/>
      <point x="107.315" y="353.44750000000005" type="line" smooth="yes"/>
      <point x="107.315" y="107.535"/>
      <point x="221.70499999999998" y="-20.060000000000002"/>
    </contour>
  </outline>
</glyph>
<glyph name="seven" format="2">
  <advance width="692.0125"/>
  <unicode hex="0037"/>
  <outline>
    <contour>
      <point x="179.0625" y="0.0" type="line"/>
      <point x="262.83" y="0.0" type="line"/>
      <point x="641.705" y="1209.0625" type="line"/>
      <point x="641.705" y="1278.0" type="line"/>
      <point x="52.08500000000001" y="1278.0" type="line"/>
      <point x="52.08500000000001" y="1209.1525000000001" type="line"/>
      <point x="561.365" y="1209.1525000000001" type="line"/>
    </contour>
  </outline>
</glyph>
<glyph name="eight" format="2">
  <advance width="853.7475"/>
  <unicode hex="0038"/>
  <outline>
    <contour>
      <point x="426.5575" y="-22.294999999999998" type="curve" smooth="yes"/>
      <point x="654.3425" y="-22.294999999999998"/>
      <point x="759.565" y="91.33"/>
      <point x="759.565" y="294.4925" type="curve" smooth="yes"/>
      <point x="759.565" y="376.145" type="line" smooth="yes"/>
      <point x="759.565" y="546.435"/>
      <point x="677.4375" y="646.0375"/>
      <point x="517.6225000000001" y="665.5" type="curve"/>
      <point x="517.6225000000001" y="663.9449999999999" type="line"/>
      <point x="667.895" y="678.745"/>
      <point x="746.2275" y="773.715"/>
      <point x="746.2275" y="931.9575" type="curve" smooth="yes"/>
      <point x="746.2275" y="997.73" type="line" smooth="yes"/>
      <point x="746.2275" y="1191.4525"/>
      <point x="642.2524999999999" y="1296.9575"/>
      <point x="426.5575" y="1296.9575" type="curve" smooth="yes"/>
      <point x="211.39249999999998" y="1296.9575"/>
      <point x="108.02" y="1191.4525"/>
      <point x="108.02" y="997.73" type="curve" smooth="yes"/>
      <point x="108.02" y="931.9575" type="line" smooth="yes"/>
      <point x="108.02" y="773.45"/>
      <point x="185.98499999999999" y="678.6125000000001"/>
      <point x="336.2575" y="663.9449999999999" type="curve"/>
      <point x="336.2575" y="665.5" type="line"/>
      <point x="176.9425" y="646.17"/>
      <point x="94.31500000000001" y="546.5675"/>
      <point x="94.31500000000001" y="376.145" type="curve" smooth="yes"/>
      <point x="94.31500000000001" y="294.4925" type="line" smooth="yes"/>
      <point x="94.31500000000001" y="90.6675"/>
      <point x="200.965" y="-22.294999999999998"/>
    </contour>
    <contour>
      <point x="426.955" y="45.6975" type="curve" smooth="yes"/>
      <point x="255.4825" y="45.6975"/>
      <point x="172.4625" y="134.3675"/>
      <point x="172.4625" y="295.335" type="curve" smooth="yes"/>
      <point x="172.4625" y="381.795" type="line" smooth="yes"/>
      <point x="172.4625" y="537.2925"/>
      <point x="254.0" y="622.24"/>
      <point x="426.02750000000003" y="628.6" type="curve"/>
      <point x="599.085" y="622.505"/>
      <point x="681.05" y="537.6899999999999"/>
      <point x="681.05" y="381.795" type="curve" smooth="yes"/>
      <point x="681.05" y="295.335" type="line" smooth="yes"/>
      <point x="681.05" y="134.5"/>
      <point x="598.6625" y="45.6975"/>
    </contour>
    <contour>
      <point x="427.3525" y="693.75" type="curve"/>
      <point x="264.885" y="698.6524999999999"/>
      <point x="186.005" y="778.07"/>
      <point x="186.005" y="926.94" type="curve" smooth="yes"/>
      <point x="186.005" y="995.6949999999999" type="line" smooth="yes"/>
      <point x="186.005" y="1147.9575"/>
      <point x="263.08500000000004" y="1229.6275"/>
      <point x="426.5575" y="1229.6275" type="curve" smooth="yes"/>
      <point x="590.9275" y="1229.6275"/>
      <point x="668.2425000000001" y="1147.9575"/>
      <point x="668.2425000000001" y="995.6949999999999" type="curve" smooth="yes"/>
      <point x="668.2425000000001" y="926.94" type="line" smooth="yes"/>
      <point x="668.2425000000001" y="778.2025000000001"/>
      <point x="588.5975" y="698.255"/>
    </contour>
  </outline>
</glyph>
<glyph name="nine" format="2">
  <advance width="831.2950000000001"/>
  <unicode hex="0039"/>
  <outline>
    <contour>
      <point x="403.28" y="1295.4575" type="curve" smooth="yes"/>
      <point x="195.6625" y="1295.4575"/>
      <point x="92.74249999999999" y="1170.7475"/>
      <point x="92.74249999999999" y="963.635" type="curve" smooth="yes"/>
      <point x="92.74249999999999" y="800.4575000000001" type="line" smooth="yes"/>
      <point x="92.74249999999999" y="595.3625"/>
      <point x="182.80249999999998" y="472.61"/>
      <point x="372.7475" y="472.61" type="curve" smooth="yes"/>
      <point x="539.9175" y="472.61"/>
      <point x="631.75" y="577.54"/>
      <point x="654.0325" y="723.5675" type="curve"/>
      <point x="673.3625000000001" y="723.5675" type="line"/>
      <point x="652.1275" y="782.2524999999999" type="line"/>
      <point x="620.35" y="629.9175"/>
      <point x="534.3249999999999" y="539.0425"/>
      <point x="393.81" y="539.0425" type="curve" smooth="yes"/>
      <point x="237.07250000000002" y="539.0425"/>
      <point x="170.32999999999998" y="639.6650000000001"/>
      <point x="170.32999999999998" y="807.12" type="curve" smooth="yes"/>
      <point x="170.32999999999998" y="965.605" type="line" smooth="yes"/>
      <point x="170.32999999999998" y="1126.5775"/>
      <point x="243.8375" y="1227.4650000000001"/>
      <point x="402.6175" y="1227.4650000000001" type="curve" smooth="yes"/>
      <point x="566.5475" y="1227.4650000000001"/>
      <point x="646.26" y="1124.7525"/>
      <point x="646.26" y="926.045" type="curve"/>
      <point x="646.26" y="377.23" type="line" smooth="yes"/>
      <point x="646.26" y="163.4875"/>
      <point x="562.4525" y="50.95"/>
      <point x="369.12" y="50.95" type="curve" smooth="yes"/>
      <point x="267.145" y="50.95"/>
      <point x="192.7475" y="81.215"/>
      <point x="126.11500000000001" y="122.5525" type="curve"/>
      <point x="134.795" y="43.379999999999995" type="line"/>
      <point x="185.3125" y="12.5125"/>
      <point x="263.2575" y="-19.927500000000002"/>
      <point x="376.80499999999995" y="-19.927500000000002" type="curve" smooth="yes"/>
      <point x="614.5124999999999" y="-19.927500000000002"/>
      <point x="723.6125" y="119.7575"/>
      <point x="723.6125" y="374.845" type="curve" smooth="yes"/>
      <point x="723.6125" y="921.4675000000001" type="line" smooth="yes"/>
      <point x="723.6125" y="1166.29"/>
      <point x="616.0899999999999" y="1295.4575"/>
    </contour>
  </outline>
</glyph>
<glyph name="less" format="2">
  <advance width="851.5775"/>
  <unicode hex="003C"/>
  <outline>
    <contour>
      <point x="146.05499999999998" y="638.7049999999999" type="line"/>
      <point x="722.6175" y="824.245" type="line"/>
      <point x="722.6175" y="893.34" type="line"/>
      <point x="87.1875" y="686.4225" type="line"/>
      <point x="87.1875" y="574.2525" type="line"/>
      <point x="722.6175" y="367.335" type="line"/>
      <point x="722.6175" y="436.43" type="line"/>
      <point x="146.05499999999998" y="621.97" type="line"/>
    </contour>
  </outline>
</glyph>
<glyph name="equal" format="2">
  <advance width="849.035"/>
  <unicode hex="003D"/>
  <outline>
    <contour>
      <point x="106.80249999999998" y="415.59999999999997" type="line"/>
      <point x="742.2325" y="415.59999999999997" type="line"/>
      <point x="742.2325" y="480.37" type="line"/>
      <point x="106.80249999999998" y="480.37" type="line"/>
    </contour>
    <contour>
      <point x="106.80249999999998" y="780.0699999999999" type="line"/>
      <point x="742.2325" y="780.0699999999999" type="line"/>
      <point x="742.2325" y="844.84" type="line"/>
      <point x="106.80249999999998" y="844.84" type="line"/>
    </contour>
  </outline>
</glyph>
<glyph name="greater" format="2">
  <advance width="851.5775"/>
  <unicode hex="003E"/>
  <outline>
    <contour>
      <point x="705.5224999999999" y="638.7049999999999" type="line"/>
      <point x="705.5224999999999" y="621.97" type="line"/>
      <point x="128.95999999999998" y="436.43" type="line"/>
      <point x="128.95999999999998" y="367.335" type="line"/>
      <point x="764.39" y="574.2525" type="line"/>
      <point x="764.39" y="686.4225" type="line"/>
      <point x="128.95999999999998" y="893.34" type="line"/>
      <point x="128.95999999999998" y="824.245" type="line"/>
    </contour>
  </outline>
</glyph>
<glyph name="question" format="2">
  <advance width="673.5400000000001"/>
  <unicode hex="003F"/>
  <outline>
    <contour>
      <point x="208.64749999999998" y="326.79249999999996" type="line"/>
      <point x="278.495" y="326.79249999999996" type="line"/>
      <point x="278.495" y="589.065" type="line"/>
      <point x="230.20499999999998" y="551.88" type="line"/>
      <point x="301.565" y="561.615" type="line"/>
      <point x="509.2925" y="605.61"/>
      <point x="578.785" y="702.375"/>
      <point x="578.785" y="885.3075" type="curve" smooth="yes"/>
      <point x="578.785" y="1009.2850000000001" type="line" smooth="yes"/>
      <point x="578.785" y="1194.8200000000002"/>
      <point x="499.69" y="1294.8249999999998"/>
      <point x="308.84250000000003" y="1294.8249999999998" type="curve" smooth="yes"/>
      <point x="199.12" y="1294.8249999999998"/>
      <point x="110.8975" y="1255.415"/>
      <point x="60.90999999999999" y="1219.975" type="curve"/>
      <point x="51.332499999999996" y="1148.8075" type="line"/>
      <point x="115.02499999999999" y="1191.32"/>
      <point x="195.93500000000003" y="1226.3025"/>
      <point x="295.46000000000004" y="1226.3025" type="curve" smooth="yes"/>
      <point x="445.64250000000004" y="1226.3025"/>
      <point x="502.30000000000007" y="1151.1325"/>
      <point x="502.30000000000007" y="1001.1600000000001" type="curve" smooth="yes"/>
      <point x="502.30000000000007" y="882.38" type="line" smooth="yes"/>
      <point x="502.30000000000007" y="733.3775"/>
      <point x="446.40749999999997" y="650.7800000000001"/>
      <point x="277.40000000000003" y="616.02" type="curve" smooth="yes"/>
      <point x="208.64749999999998" y="606.9475" type="line"/>
    </contour>
    <contour>
      <point x="242.87249999999997" y="-13.15" type="curve" smooth="yes"/>
      <point x="280.665" y="-13.15"/>
      <point x="298.39250000000004" y="12.1075"/>
      <point x="298.39250000000004" y="61.545" type="curve" smooth="yes"/>
      <point x="298.39250000000004" y="74.545" type="line" smooth="yes"/>
      <point x="298.39250000000004" y="123.115"/>
      <point x="280.665" y="148.23999999999998"/>
      <point x="242.87249999999997" y="148.23999999999998" type="curve" smooth="yes"/>
      <point x="205.55" y="148.23999999999998"/>
      <point x="188.72" y="123.115"/>
      <point x="188.72" y="74.545" type="curve" smooth="yes"/>
      <point x="188.72" y="61.545" type="line" smooth="yes"/>
      <point x="188.72" y="12.1075"/>
      <point x="205.55" y="-13.15"/>
    </contour>
  </outline>
</glyph>
<glyph name="at" format="2">
  <advance width="1392.5525"/>
  <unicode hex="0040"/>
  <outline>
    <contour>
      <point x="632.765" y="74.01249999999999" type="curve" smooth="yes"/>
      <point x="755.7049999999999" y="74.01249999999999"/>
      <point x="826.3025" y="149.11"/>
      <point x="853.7900000000001" y="265.395" type="curve"/>
      <point x="870.9150000000001" y="265.395" type="line"/>
      <point x="856.7225" y="328.2275" type="line"/>
      <point x="826.005" y="209.17"/>
      <point x="759.4675" y="136.7525"/>
      <point x="661.3025" y="136.7525" type="curve" smooth="yes"/>
      <point x="563.6075" y="136.7525"/>
      <point x="515.275" y="196.39249999999998"/>
      <point x="515.275" y="308.29249999999996" type="curve" smooth="yes"/>
      <point x="515.275" y="342.745"/>
      <point x="518.6125" y="379.065"/>
      <point x="542.6850000000001" y="619.9775000000001" type="curve" smooth="yes"/>
      <point x="558.125" y="772.7275"/>
      <point x="616.1625" y="853.3675"/>
      <point x="728.02" y="853.3675" type="curve" smooth="yes"/>
      <point x="823.4075" y="853.3675"/>
      <point x="886.855" y="786.095"/>
      <point x="887.2224999999999" y="665.3575" type="curve" smooth="yes"/>
      <point x="887.2224999999999" y="657.0925"/>
      <point x="887.2224999999999" y="648.4599999999999"/>
      <point x="886.59" y="639.6949999999999" type="curve"/>
      <point x="916.2149999999999" y="706.025" type="line"/>
      <point x="897.5000000000001" y="706.025" type="line"/>
      <point x="901.1400000000001" y="832.7325"/>
      <point x="834.97" y="914.68"/>
      <point x="713.4150000000001" y="914.68" type="curve" smooth="yes"/>
      <point x="566.1875" y="914.68"/>
      <point x="489.08500000000004" y="816.3325"/>
      <point x="468.8925" y="613.1775" type="curve" smooth="yes"/>
      <point x="445.1875" y="373.44"/>
      <point x="441.48249999999996" y="335.915"/>
      <point x="441.48249999999996" y="297.005" type="curve" smooth="yes"/>
      <point x="441.48249999999996" y="152.8675"/>
      <point x="508.24750000000006" y="74.01249999999999"/>
    </contour>
    <contour>
      <point x="828.9575" y="85.88" type="line"/>
      <point x="897.7749999999999" y="89.89750000000001" type="line"/>
      <point x="981.0275" y="900.915" type="line"/>
      <point x="910.2825" y="900.915" type="line"/>
      <point x="910.0175000000002" y="894.9575" type="line"/>
      <point x="894.65" y="718.9875000000001" type="line"/>
      <point x="891.7525" y="699.9399999999999" type="line"/>
      <point x="850.5899999999999" y="287.8" type="line"/>
      <point x="852.3850000000001" y="271.09000000000003" type="line"/>
    </contour>
    <contour>
      <point x="876.9449999999999" y="142.2475" type="curve"/>
      <point x="828.9575" y="85.88" type="line"/>
      <point x="865.535" y="78.85000000000001"/>
      <point x="891.6049999999999" y="76.08500000000001"/>
      <point x="938.6225000000001" y="76.48249999999999" type="curve" smooth="yes"/>
      <point x="1140.04" y="77.675"/>
      <point x="1237.075" y="183.175"/>
      <point x="1262.0625" y="418.8125" type="curve" smooth="yes"/>
      <point x="1276.46" y="555.6625"/>
      <point x="1288.7975" y="702.0025"/>
      <point x="1294.0324999999998" y="765.755" type="curve" smooth="yes"/>
      <point x="1321.6775" y="1132.0"/>
      <point x="1109.9325000000001" y="1330.9275"/>
      <point x="757.5324999999999" y="1330.9275" type="curve" smooth="yes"/>
      <point x="370.9575" y="1330.9275"/>
      <point x="186.46" y="1114.8025"/>
      <point x="147.91250000000002" y="704.2025" type="curve" smooth="yes"/>
      <point x="136.985" y="589.0225"/>
      <point x="114.605" y="323.01"/>
      <point x="107.43" y="216.2975" type="curve" smooth="yes"/>
      <point x="85.2125" y="-142.495"/>
      <point x="298.3075" y="-336.64500000000004"/>
      <point x="668.05" y="-336.64500000000004" type="curve" smooth="yes"/>
      <point x="876.1575" y="-336.64500000000004"/>
      <point x="1034.1275" y="-282.1325"/>
      <point x="1145.1275" y="-201.5225" type="curve"/>
      <point x="1156.3674999999998" y="-128.095" type="line"/>
      <point x="1052.1025" y="-210.8375"/>
      <point x="888.0675" y="-276.35"/>
      <point x="672.965" y="-276.35" type="curve" smooth="yes"/>
      <point x="336.88750000000005" y="-276.35"/>
      <point x="156.115" y="-99.325"/>
      <point x="174.5975" y="217.91750000000002" type="curve" smooth="yes"/>
      <point x="180.67" y="320.07"/>
      <point x="204.88750000000002" y="582.7099999999999"/>
      <point x="216.34500000000003" y="707.9250000000001" type="curve" smooth="yes"/>
      <point x="248.87500000000003" y="1069.9225000000001"/>
      <point x="408.2675" y="1271.1625"/>
      <point x="754.075" y="1271.1625" type="curve" smooth="yes"/>
      <point x="1075.8274999999999" y="1271.1625"/>
      <point x="1255.3174999999999" y="1090.12"/>
      <point x="1227.865" y="766.49" type="curve" smooth="yes"/>
      <point x="1222.4975" y="707.665"/>
      <point x="1209.1299999999999" y="553.8924999999999"/>
      <point x="1194.895" y="421.72749999999996" type="curve" smooth="yes"/>
      <point x="1172.7925" y="213.965"/>
      <point x="1091.9050000000002" y="135.97"/>
      <point x="947.945" y="135.97" type="curve" smooth="yes"/>
      <point x="916.5775" y="135.97"/>
      <point x="899.77" y="137.205"/>
    </contour>
  </outline>
</glyph>
<glyph name="A" format="2">
  <advance width="893.705"/>
  <unicode hex="0041"/>
  <anchor x="447.3525" y="0.0" name="bottom"/>
  <anchor x="882.8125" y="0.0" name="ogonek"/>
  <anchor x="447.3525" y="1278.0" name="top"/>
  <outline>
    <contour>
      <point x="59.845" y="0.0" type="line"/>
      <point x="139.69750000000002" y="0.0" type="line"/>
      <point x="433.6175" y="1219.265" type="line"/>
      <point x="457.485" y="1219.265" type="line"/>
      <point x="754.0074999999999" y="0.0" type="line"/>
      <point x="833.86" y="0.0" type="line"/>
      <point x="514.87" y="1278.0" type="line"/>
      <point x="376.2325" y="1278.0" type="line"/>
    </contour>
    <contour>
      <point x="219.16000000000003" y="424.96999999999997" type="line"/>
      <point x="672.9124999999999" y="424.96999999999997" type="line"/>
      <point x="672.9124999999999" y="491.96250000000003" type="line"/>
      <point x="219.16000000000003" y="491.96250000000003" type="line"/>
    </contour>
  </outline>
</glyph>
<glyph name="B" format="2">
  <advance width="897.3800000000001"/>
  <unicode hex="0042"/>
  <anchor x="449.61749999999995" y="0.0" name="bottom"/>
  <anchor x="449.61749999999995" y="1278.0" name="top"/>
  <outline>
    <contour>
      <point x="193.12750000000003" y="0.0" type="line"/>
      <point x="510.68999999999994" y="0.0" type="line" smooth="yes"/>
      <point x="723.675" y="0.0"/>
      <point x="807.5649999999999" y="117.295"/>
      <point x="807.5649999999999" y="304.16" type="curve" smooth="yes"/>
      <point x="807.5649999999999" y="389.16249999999997" type="line" smooth="yes"/>
      <point x="807.5649999999999" y="555.03"/>
      <point x="743.185" y="655.38"/>
      <point x="568.2075000000001" y="672.9875" type="curve"/>
      <point x="577.7625" y="668.89" type="line"/>
      <point x="728.39" y="688.155"/>
      <point x="788.9625000000001" y="781.3425"/>
      <point x="788.9625000000001" y="933.825" type="curve" smooth="yes"/>
      <point x="788.9625000000001" y="985.5675" type="line" smooth="yes"/>
      <point x="788.9625000000001" y="1165.795"/>
      <point x="707.6750000000001" y="1278.0"/>
      <point x="496.42499999999995" y="1278.0" type="curve" smooth="yes"/>
      <point x="191.67000000000002" y="1278.0" type="line"/>
      <point x="191.67000000000002" y="1210.2725" type="line"/>
      <point x="491.71500000000003" y="1210.2725" type="line" smooth="yes"/>
      <point x="654.9224999999999" y="1210.2725"/>
      <point x="710.2125" y="1121.65"/>
      <point x="710.2125" y="977.28" type="curve" smooth="yes"/>
      <point x="710.2125" y="919.26" type="line" smooth="yes"/>
      <point x="710.2125" y="781.4325"/>
      <point x="652.6875" y="692.0450000000001"/>
      <point x="489.45000000000005" y="692.0450000000001" type="curve" smooth="yes"/>
      <point x="199.4775" y="692.0450000000001" type="line"/>
      <point x="199.4775" y="627.1425" type="line"/>
      <point x="487.745" y="627.1425" type="line" smooth="yes"/>
      <point x="670.1275" y="627.1425"/>
      <point x="728.4175" y="537.255"/>
      <point x="728.4175" y="388.885" type="curve" smooth="yes"/>
      <point x="728.4175" y="306.485" type="line" smooth="yes"/>
      <point x="728.4175" y="159.48250000000002"/>
      <point x="670.495" y="67.9925"/>
      <point x="504.52250000000004" y="67.9925" type="curve" smooth="yes"/>
      <point x="193.12750000000003" y="67.9925" type="line"/>
    </contour>
    <contour>
      <point x="144.255" y="0.0" type="line"/>
      <point x="222.60750000000002" y="0.0" type="line"/>
      <point x="222.60750000000002" y="1278.0" type="line"/>
      <point x="144.255" y="1278.0" type="line"/>
    </contour>
  </outline>
</glyph>
<glyph name="C" format="2">
  <advance width="773.75"/>
  <unicode hex="0043"/>
  <anchor x="418.15999999999997" y="0.0" name="bottom"/>
  <anchor x="418.15999999999997" y="1278.0" name="top"/>
  <outline>
    <contour>
      <point x="442.79249999999996" y="-17.9575" type="curve" smooth="yes"/>
      <point x="557.955" y="-17.9575"/>
      <point x="644.545" y="25.6275"/>
      <point x="694.135" y="67.375" type="curve"/>
      <point x="701.8874999999999" y="147.57750000000001" type="line"/>
      <point x="638.7125" y="95.125"/>
      <point x="560.6400000000001" y="55.245000000000005"/>
      <point x="454.3925" y="55.245000000000005" type="curve" smooth="yes"/>
      <point x="270.945" y="55.245000000000005"/>
      <point x="186.28750000000002" y="172.5475"/>
      <point x="186.28750000000002" y="378.58" type="curve" smooth="yes"/>
      <point x="186.28750000000002" y="900.7149999999999" type="line" smooth="yes"/>
      <point x="186.28750000000002" y="1108.4825"/>
      <point x="269.44500000000005" y="1224.4475"/>
      <point x="446.29" y="1224.4475" type="curve" smooth="yes"/>
      <point x="552.8025" y="1224.4475"/>
      <point x="631.3149999999999" y="1182.6999999999998"/>
      <point x="693.3874999999999" y="1132.2475000000002" type="curve"/>
      <point x="685.2675" y="1209.9925" type="line"/>
      <point x="634.8100000000001" y="1252.8725000000002"/>
      <point x="550.1474999999999" y="1295.9575"/>
      <point x="436.74999999999994" y="1295.9575" type="curve" smooth="yes"/>
      <point x="213.735" y="1295.9575"/>
      <point x="106.74249999999999" y="1154.3925"/>
      <point x="106.74249999999999" y="902.835" type="curve" smooth="yes"/>
      <point x="106.74249999999999" y="376.3275" type="line" smooth="yes"/>
      <point x="106.74249999999999" y="125.34249999999999"/>
      <point x="213.07250000000002" y="-17.9575"/>
    </contour>
  </outline>
</glyph>
<glyph name="D" format="2">
  <advance width="925.1149999999999"/>
  <unicode hex="0044"/>
  <anchor x="454.395" y="0.0" name="bottom"/>
  <anchor x="467.32249999999993" y="639.0" name="center"/>
  <anchor x="454.395" y="1278.0" name="top"/>
  <outline>
    <contour>
      <point x="188.905" y="0.0" type="line"/>
      <point x="441.0325" y="0.0" type="line" smooth="yes"/>
      <point x="688.62" y="0.0"/>
      <point x="818.5350000000001" y="142.415"/>
      <point x="818.5350000000001" y="399.1425" type="curve" smooth="yes"/>
      <point x="818.5350000000001" y="878.755" type="line" smooth="yes"/>
      <point x="818.5350000000001" y="1136.085"/>
      <point x="688.2225" y="1278.0"/>
      <point x="441.0325" y="1278.0" type="curve" smooth="yes"/>
      <point x="191.0075" y="1278.0" type="line"/>
      <point x="191.0075" y="1209.875" type="line"/>
      <point x="437.81" y="1209.875" type="line" smooth="yes"/>
      <point x="637.2349999999999" y="1209.875"/>
      <point x="739.255" y="1094.385"/>
      <point x="739.255" y="877.3874999999999" type="curve" smooth="yes"/>
      <point x="739.255" y="400.1425" type="line" smooth="yes"/>
      <point x="739.255" y="184.5125"/>
      <point x="637.2349999999999" y="68.52250000000001"/>
      <point x="437.81" y="68.52250000000001" type="curve" smooth="yes"/>
      <point x="188.905" y="68.52250000000001" type="line"/>
    </contour>
    <contour>
      <point x="144.255" y="0.0" type="line"/>
      <point x="222.74" y="0.0" type="line"/>
      <point x="222.74" y="1278.0" type="line"/>
      <point x="144.255" y="1278.0" type="line"/>
    </contour>
  </outline>
</glyph>
<glyph name="E" format="2">
  <advance width="796.02"/>
  <unicode hex="0045"/>
  <anchor x="431.33" y="0.0" name="bottom"/>
  <anchor x="755.87" y="0.0" name="ogonek"/>
  <anchor x="431.33" y="1278.0" name="top"/>
  <anchor x="22.205" y="1278.0" name="topleft"/>
  <outline>
    <contour>
      <point x="144.255" y="0.0" type="line"/>
      <point x="222.21" y="0.0" type="line"/>
      <point x="222.21" y="1278.0" type="line"/>
      <point x="144.255" y="1278.0" type="line"/>
    </contour>
    <contour>
      <point x="172.4975" y="0.0" type="line"/>
      <point x="708.995" y="0.0" type="line"/>
      <point x="708.995" y="68.92" type="line"/>
      <point x="172.4975" y="68.92" type="line"/>
    </contour>
    <contour>
      <point x="188.42999999999998" y="621.3475000000001" type="line"/>
      <point x="696.5675" y="621.3475000000001" type="line"/>
      <point x="696.5675" y="689.5024999999999" type="line"/>
      <point x="188.42999999999998" y="689.5024999999999" type="line"/>
    </contour>
    <contour>
      <point x="169.895" y="1209.2125" type="line"/>
      <point x="706.2299999999999" y="1209.2125" type="line"/>
      <point x="706.2299999999999" y="1278.0" type="line"/>
      <point x="169.895" y="1278.0" type="line"/>
    </contour>
  </outline>
</glyph>
<glyph name="F" format="2">
  <advance width="763.0325"/>
  <unicode hex="0046"/>
  <anchor x="381.5825" y="0.0" name="bottom"/>
  <anchor x="381.5825" y="1278.0" name="top"/>
  <outline>
    <contour>
      <point x="144.255" y="0.0" type="line"/>
      <point x="223.1375" y="0.0" type="line"/>
      <point x="223.1375" y="1278.0" type="line"/>
      <point x="144.255" y="1278.0" type="line"/>
    </contour>
    <contour>
      <point x="188.42999999999998" y="590.4875" type="line"/>
      <point x="680.8149999999999" y="590.4875" type="line"/>
      <point x="680.8149999999999" y="659.6725" type="line"/>
      <point x="188.42999999999998" y="659.6725" type="line"/>
    </contour>
    <contour>
      <point x="169.895" y="1208.815" type="line"/>
      <point x="692.2125000000001" y="1208.815" type="line"/>
      <point x="692.2125000000001" y="1278.0" type="line"/>
      <point x="169.895" y="1278.0" type="line"/>
    </contour>
  </outline>
</glyph>
<glyph name="G" format="2">
  <advance width="902.7475000000001"/>
  <unicode hex="0047"/>
  <anchor x="448.6175" y="0.0" name="bottom"/>
  <anchor x="448.6175" y="1278.0" name="top"/>
  <outline>
    <contour>
      <point x="431.675" y="-18.09" type="curve" smooth="yes"/>
      <point x="604.4525" y="-18.09"/>
      <point x="685.3875" y="85.9475"/>
      <point x="710.8875" y="203.9425" type="curve"/>
      <point x="781.625" y="201.60500000000002" type="line"/>
      <point x="781.625" y="699.8349999999999" type="line"/>
      <point x="470.94249999999994" y="699.8349999999999" type="line"/>
      <point x="470.94249999999994" y="632.2824999999999" type="line"/>
      <point x="725.6750000000001" y="632.2824999999999" type="line"/>
      <point x="705.5675" y="665.6825" type="line"/>
      <point x="705.5675" y="265.16" type="line"/>
      <point x="677.6575" y="148.82"/>
      <point x="599.62" y="52.36"/>
      <point x="451.47249999999997" y="52.36" type="curve" smooth="yes"/>
      <point x="272.53" y="52.36"/>
      <point x="186.28750000000002" y="165.54250000000002"/>
      <point x="186.28750000000002" y="368.7925" type="curve" smooth="yes"/>
      <point x="186.28750000000002" y="877.4375" type="line" smooth="yes"/>
      <point x="186.28750000000002" y="1101.735"/>
      <point x="279.77" y="1224.845"/>
      <point x="476.18" y="1224.845" type="curve" smooth="yes"/>
      <point x="602.2525" y="1224.845"/>
      <point x="692.975" y="1180.3025"/>
      <point x="763.035" y="1126.4525" type="curve"/>
      <point x="754.385" y="1203.6975" type="line"/>
      <point x="696.8375" y="1249.8425"/>
      <point x="601.73" y="1295.9575"/>
      <point x="466.87500000000006" y="1295.9575" type="curve" smooth="yes"/>
      <point x="225.81250000000003" y="1295.9575"/>
      <point x="106.74249999999999" y="1147.6875"/>
      <point x="106.74249999999999" y="878.4975000000001" type="curve" smooth="yes"/>
      <point x="106.74249999999999" y="368.3525" type="line" smooth="yes"/>
      <point x="106.74249999999999" y="120.63749999999999"/>
      <point x="214.61" y="-18.09"/>
    </contour>
    <contour>
      <point x="710.76" y="232.9275" type="line"/>
      <point x="705.3325" y="0.0" type="line"/>
      <point x="781.625" y="0.0" type="line"/>
      <point x="781.625" y="232.9275" type="line"/>
    </contour>
  </outline>
</glyph>
<glyph name="H" format="2">
  <advance width="967.2774999999999"/>
  <unicode hex="0048"/>
  <anchor x="483.8225" y="0.0" name="bottom"/>
  <anchor x="483.8225" y="639.0" name="center"/>
  <anchor x="483.8225" y="1278.0" name="top"/>
  <anchor x="22.205" y="1278.0" name="topleft"/>
  <outline>
    <contour>
      <point x="223.4025" y="0.0" type="line"/>
      <point x="223.4025" y="1278.0" type="line"/>
      <point x="144.255" y="1278.0" type="line"/>
      <point x="144.255" y="0.0" type="line"/>
    </contour>
    <contour>
      <point x="823.0224999999999" y="0.0" type="line"/>
      <point x="823.0224999999999" y="1278.0" type="line"/>
      <point x="743.875" y="1278.0" type="line"/>
      <point x="743.875" y="0.0" type="line"/>
    </contour>
    <contour>
      <point x="191.0325" y="696.105" type="line"/>
      <point x="191.0325" y="627.9499999999999" type="line"/>
      <point x="778.8299999999999" y="627.9499999999999" type="line"/>
      <point x="778.8299999999999" y="696.105" type="line"/>
    </contour>
  </outline>
</glyph>
<glyph name="I" format="2">
  <advance width="372.59749999999997"/>
  <unicode hex="0049"/>
  <anchor x="186.6" y="0.0" name="bottom"/>
  <anchor x="275.66249999999997" y="0.0" name="ogonek"/>
  <anchor x="186.6" y="1278.0" name="top"/>
  <anchor x="22.205" y="1278.0" name="topleft"/>
  <outline>
    <contour>
      <point x="225.8725" y="0.0" type="line"/>
      <point x="225.8725" y="1278.0" type="line"/>
      <point x="146.725" y="1278.0" type="line"/>
      <point x="146.725" y="0.0" type="line"/>
    </contour>
  </outline>
</glyph>
<glyph name="J" format="2">
  <advance width="643.7875"/>
  <unicode hex="004A"/>
  <anchor x="322.71" y="0.0" name="bottom"/>
  <anchor x="466.525" y="1278.0" name="top"/>
  <outline>
    <contour>
      <point x="242.0725" y="-15.530000000000001" type="curve" smooth="yes"/>
      <point x="435.9975" y="-15.530000000000001"/>
      <point x="506.66499999999996" y="85.49249999999999"/>
      <point x="506.66499999999996" y="268.90500000000003" type="curve" smooth="yes"/>
      <point x="506.66499999999996" y="1278.0" type="line"/>
      <point x="427.65000000000003" y="1278.0" type="line"/>
      <point x="427.65000000000003" y="271.59749999999997" type="line" smooth="yes"/>
      <point x="427.65000000000003" y="128.8425"/>
      <point x="379.09499999999997" y="55.5525"/>
      <point x="231.81" y="55.5525" type="curve" smooth="yes"/>
      <point x="170.3275" y="55.5525"/>
      <point x="113.11" y="68.89"/>
      <point x="57.5975" y="94.4325" type="curve"/>
      <point x="64.85000000000001" y="20.5125" type="line"/>
      <point x="113.51249999999999" y="-1.5900000000000007"/>
      <point x="177.175" y="-15.530000000000001"/>
    </contour>
  </outline>
</glyph>
<glyph name="K" format="2">
  <advance width="876.4575"/>
  <unicode hex="004B"/>
  <anchor x="453.44250000000005" y="0.0" name="bottom"/>
  <anchor x="453.44250000000005" y="1278.0" name="top"/>
  <outline>
    <contour>
      <point x="737.5074999999999" y="0.0" type="line"/>
      <point x="828.07" y="0.0" type="line"/>
      <point x="408.89250000000004" y="672.86" type="line"/>
      <point x="410.39250000000004" y="646.7775" type="line"/>
      <point x="818.0400000000001" y="1278.0" type="line"/>
      <point x="729.7724999999999" y="1278.0" type="line"/>
      <point x="349.02" y="686.7975" type="line"/>
      <point x="213.79500000000002" y="686.7975" type="line"/>
      <point x="213.79500000000002" y="619.6" type="line"/>
      <point x="349.755" y="619.6" type="line"/>
    </contour>
    <contour>
      <point x="144.255" y="0.0" type="line"/>
      <point x="222.475" y="0.0" type="line"/>
      <point x="222.475" y="1278.0" type="line"/>
      <point x="144.255" y="1278.0" type="line"/>
    </contour>
  </outline>
</glyph>
<glyph name="L" format="2">
  <advance width="751.3825"/>
  <unicode hex="004C"/>
  <anchor x="417.88500000000005" y="0.0" name="bottom"/>
  <anchor x="362.585" y="657.2175" name="center"/>
  <anchor x="184.2625" y="1278.0" name="top"/>
  <anchor x="532.445" y="1278.0" name="topright"/>
  <outline>
    <contour>
      <point x="223.27" y="0.0" type="line"/>
      <point x="223.27" y="1278.0" type="line"/>
      <point x="144.255" y="1278.0" type="line"/>
      <point x="144.255" y="0.0" type="line"/>
    </contour>
    <contour>
      <point x="179.255" y="69.45" type="line"/>
      <point x="179.255" y="0.0" type="line"/>
      <point x="702.3399999999999" y="0.0" type="line"/>
      <point x="702.3399999999999" y="69.45" type="line"/>
    </contour>
  </outline>
</glyph>
<glyph name="M" format="2">
  <advance width="1173.9075"/>
  <unicode hex="004D"/>
  <anchor x="587.5200000000001" y="0.0" name="bottom"/>
  <anchor x="587.5200000000001" y="1278.0" name="top"/>
  <outline>
    <contour>
      <point x="128.9475" y="0.0" type="line"/>
      <point x="206.07750000000001" y="0.0" type="line"/>
      <point x="219.95749999999998" y="594.5649999999999" type="line"/>
      <point x="232.0425" y="1196.6374999999998" type="line"/>
      <point x="248.82000000000002" y="1196.6374999999998" type="line"/>
      <point x="534.9875000000001" y="138.98749999999998" type="line"/>
      <point x="638.92" y="138.98749999999998" type="line"/>
      <point x="925.0874999999999" y="1196.6374999999998" type="line"/>
      <point x="942.2324999999998" y="1196.6374999999998" type="line"/>
      <point x="954.3175000000001" y="595.0649999999999" type="line"/>
      <point x="968.1975" y="0.0" type="line"/>
      <point x="1044.96" y="0.0" type="line"/>
      <point x="1011.9475000000001" y="1278.0" type="line"/>
      <point x="875.785" y="1278.0" type="line"/>
      <point x="593.6225" y="231.0825" type="line"/>
      <point x="580.5500000000001" y="231.0825" type="line"/>
      <point x="298.1225" y="1278.0" type="line"/>
      <point x="162.32750000000001" y="1278.0" type="line"/>
    </contour>
  </outline>
</glyph>
<glyph name="N" format="2">
  <advance width="970.7224999999999"/>
  <unicode hex="004E"/>
  <anchor x="486.60499999999996" y="0.0" name="bottom"/>
  <anchor x="486.60499999999996" y="1278.0" name="top"/>
  <outline>
    <contour>
      <point x="273.11" y="1278.1325" type="line"/>
      <point x="144.255" y="1278.1325" type="line"/>
      <point x="144.255" y="0.0" type="line"/>
      <point x="221.15" y="0.0" type="line"/>
      <point x="221.15" y="593.69" type="line"/>
      <point x="215.8975" y="1201.6425000000002" type="line"/>
      <point x="228.0" y="1201.6425000000002" type="line"/>
      <point x="698.1725" y="0.0" type="line"/>
      <point x="826.4674999999999" y="0.0" type="line"/>
      <point x="826.4674999999999" y="1278.1325" type="line"/>
      <point x="749.7049999999999" y="1278.1325" type="line"/>
      <point x="749.7049999999999" y="667.9175" type="line"/>
      <point x="754.825" y="79.50750000000001" type="line"/>
      <point x="742.7225" y="79.50750000000001" type="line"/>
    </contour>
  </outline>
</glyph>
<glyph name="O" format="2">
  <advance width="925.795"/>
  <unicode hex="004F"/>
  <anchor x="463.01500000000004" y="0.0" name="bottom"/>
  <anchor x="463.01500000000004" y="639.0" name="center"/>
  <anchor x="648.2225" y="6.8375" name="ogonek"/>
  <anchor x="463.01500000000004" y="1278.0" name="top"/>
  <anchor x="13.3675" y="1278.0" name="topleft"/>
  <anchor x="776.255" y="1278.0" name="topright"/>
  <outline>
    <contour>
      <point x="462.64750000000004" y="-18.09" type="curve" smooth="yes"/>
      <point x="695.59" y="-18.09"/>
      <point x="819.0525000000001" y="125.68"/>
      <point x="819.0525000000001" y="390.19" type="curve" smooth="yes"/>
      <point x="819.0525000000001" y="887.075" type="line" smooth="yes"/>
      <point x="819.0525000000001" y="1151.3200000000002"/>
      <point x="695.59" y="1296.09"/>
      <point x="462.64750000000004" y="1296.09" type="curve" smooth="yes"/>
      <point x="229.205" y="1296.09"/>
      <point x="106.74249999999999" y="1151.3200000000002"/>
      <point x="106.74249999999999" y="887.075" type="curve" smooth="yes"/>
      <point x="106.74249999999999" y="390.19" type="line" smooth="yes"/>
      <point x="106.74249999999999" y="125.68"/>
      <point x="229.205" y="-18.09"/>
    </contour>
    <contour>
      <point x="462.64750000000004" y="50.769999999999996" type="curve" smooth="yes"/>
      <point x="278.3375" y="50.769999999999996"/>
      <point x="186.28750000000002" y="171.32"/>
      <point x="186.28750000000002" y="386.3775" type="curve" smooth="yes"/>
      <point x="186.28750000000002" y="891.755" type="line" smooth="yes"/>
      <point x="186.28750000000002" y="1107.445"/>
      <point x="278.3375" y="1227.23"/>
      <point x="462.64750000000004" y="1227.23" type="curve" smooth="yes"/>
      <point x="647.1925" y="1227.23"/>
      <point x="739.375" y="1107.445"/>
      <point x="739.375" y="891.755" type="curve" smooth="yes"/>
      <point x="739.375" y="386.3775" type="line" smooth="yes"/>
      <point x="739.375" y="171.32"/>
      <point x="647.1925" y="50.769999999999996"/>
    </contour>
  </outline>
</glyph>
<glyph name="P" format="2">
  <advance width="861.8375"/>
  <unicode hex="0050"/>
  <anchor x="429.985" y="0.0" name="bottom"/>
  <anchor x="429.985" y="1278.0" name="top"/>
  <outline>
    <contour>
      <point x="186.785" y="459.715" type="line"/>
      <point x="466.955" y="459.715" type="line" smooth="yes"/>
      <point x="680.735" y="459.715"/>
      <point x="776.8299999999999" y="585.0400000000001"/>
      <point x="776.8299999999999" y="786.0375" type="curve" smooth="yes"/>
      <point x="776.8299999999999" y="955.015" type="line" smooth="yes"/>
      <point x="776.8299999999999" y="1153.4825"/>
      <point x="681.235" y="1278.0"/>
      <point x="468.79249999999996" y="1278.0" type="curve" smooth="yes"/>
      <point x="188.88750000000002" y="1278.0" type="line"/>
      <point x="188.88750000000002" y="1210.5075000000002" type="line"/>
      <point x="465.865" y="1210.5075000000002" type="line" smooth="yes"/>
      <point x="629.145" y="1210.5075000000002"/>
      <point x="698.2125" y="1112.915"/>
      <point x="698.2125" y="952.3525" type="curve" smooth="yes"/>
      <point x="698.2125" y="788.5675" type="line" smooth="yes"/>
      <point x="698.2125" y="626.8"/>
      <point x="628.7774999999999" y="527.7075"/>
      <point x="463.63" y="527.7075" type="curve" smooth="yes"/>
      <point x="186.785" y="527.7075" type="line"/>
    </contour>
    <contour>
      <point x="144.255" y="0.0" type="line"/>
      <point x="222.74" y="0.0" type="line"/>
      <point x="222.74" y="472.95500000000004" type="line"/>
      <point x="222.34250000000003" y="508.53499999999997" type="line"/>
      <point x="222.34250000000003" y="1278.0" type="line"/>
      <point x="144.255" y="1278.0" type="line"/>
    </contour>
  </outline>
</glyph>
<glyph name="Q" format="2">
  <advance width="927.9275"/>
  <unicode hex="0051"/>
  <anchor x="464.28000000000003" y="0.0" name="bottom"/>
  <anchor x="464.28000000000003" y="1278.0" name="top"/>
  <outline>
    <contour>
      <point x="920.1199999999999" y="-24.975" type="line"/>
      <point x="920.1199999999999" y="46.65" type="line"/>
      <point x="570.7974999999999" y="41.825" type="line"/>
      <point x="580.7199999999999" y="42.269999999999996" type="line"/>
      <point x="715.2075" y="67.52250000000001"/>
      <point x="819.0525000000001" y="172.94500000000002"/>
      <point x="819.0525000000001" y="401.42249999999996" type="curve" smooth="yes"/>
      <point x="819.0525000000001" y="885.75" type="line" smooth="yes"/>
      <point x="819.0525000000001" y="1152.29"/>
      <point x="695.6925" y="1296.09"/>
      <point x="462.64750000000004" y="1296.09" type="curve" smooth="yes"/>
      <point x="229.1025" y="1296.09"/>
      <point x="106.74249999999999" y="1152.29"/>
      <point x="106.74249999999999" y="885.75" type="curve" smooth="yes"/>
      <point x="106.74249999999999" y="394.6175" type="line" smooth="yes"/>
      <point x="106.74249999999999" y="131.64999999999998"/>
      <point x="227.91" y="-11.03"/>
      <point x="501.845" y="-16.619999999999997" type="curve" smooth="yes"/>
    </contour>
    <contour>
      <point x="493.92499999999995" y="49.902499999999996" type="line" smooth="yes"/>
      <point x="291.97" y="51.095000000000006"/>
      <point x="186.28750000000002" y="172.82"/>
      <point x="186.28750000000002" y="389.90749999999997" type="curve" smooth="yes"/>
      <point x="186.28750000000002" y="890.165" type="line" smooth="yes"/>
      <point x="186.28750000000002" y="1108.3125"/>
      <point x="278.6025" y="1227.3625"/>
      <point x="462.64750000000004" y="1227.3625" type="curve" smooth="yes"/>
      <point x="646.9275" y="1227.3625"/>
      <point x="739.375" y="1108.3125"/>
      <point x="739.375" y="890.165" type="curve" smooth="yes"/>
      <point x="739.375" y="391.16" type="line" smooth="yes"/>
      <point x="739.375" y="178.0125"/>
      <point x="643.1925" y="78.74"/>
      <point x="510.5875" y="49.769999999999996" type="curve"/>
    </contour>
  </outline>
</glyph>
<glyph name="R" format="2">
  <advance width="888.675"/>
  <unicode hex="0052"/>
  <anchor x="456.0875" y="0.0" name="bottom"/>
  <anchor x="444.98499999999996" y="1278.0" name="top"/>
  <outline>
    <contour>
      <point x="724.255" y="0.0" type="line"/>
      <point x="804.9325" y="0.0" type="line"/>
      <point x="764.625" y="298.0" type="line" smooth="yes"/>
      <point x="740.2574999999999" y="474.27"/>
      <point x="699.125" y="583.9875"/>
      <point x="520.4875" y="604.9575000000001" type="curve"/>
      <point x="548.4300000000001" y="590.2475" type="line"/>
      <point x="550.635" y="597.1800000000001" type="line"/>
      <point x="720.01" y="611.7575"/>
      <point x="786.6975" y="720.2825"/>
      <point x="786.6975" y="879.5725" type="curve" smooth="yes"/>
      <point x="786.6975" y="975.1825" type="line" smooth="yes"/>
      <point x="786.6975" y="1161.705"/>
      <point x="701.145" y="1278.0"/>
      <point x="489.395" y="1278.0" type="curve" smooth="yes"/>
      <point x="191.5375" y="1278.0" type="line"/>
      <point x="191.5375" y="1210.1399999999999" type="line"/>
      <point x="482.4925" y="1210.1399999999999" type="line" smooth="yes"/>
      <point x="648.26" y="1210.1399999999999"/>
      <point x="708.05" y="1118.4575"/>
      <point x="708.05" y="965.5699999999999" type="curve" smooth="yes"/>
      <point x="708.05" y="870.8275000000001" type="line" smooth="yes"/>
      <point x="708.05" y="721.8375"/>
      <point x="649.5975000000001" y="624.98"/>
      <point x="479.0525" y="624.48" type="curve" smooth="yes"/>
      <point x="199.60999999999999" y="623.48" type="line"/>
      <point x="199.60999999999999" y="559.0775" type="line"/>
      <point x="453.93749999999994" y="558.945" type="line" smooth="yes"/>
      <point x="629.6875" y="558.8125"/>
      <point x="669.26" y="440.635"/>
      <point x="688.2725" y="292.7175" type="curve" smooth="yes"/>
    </contour>
    <contour>
      <point x="144.255" y="0.0" type="line"/>
      <point x="222.74" y="0.0" type="line"/>
      <point x="222.74" y="574.3475" type="line"/>
      <point x="222.47500000000002" y="606.2175" type="line"/>
      <point x="222.47500000000002" y="1278.0" type="line"/>
      <point x="144.255" y="1278.0" type="line"/>
    </contour>
  </outline>
</glyph>
<glyph name="S" format="2">
  <advance width="788.0925"/>
  <unicode hex="0053"/>
  <anchor x="382.745" y="0.0" name="bottom"/>
  <anchor x="382.745" y="1278.0" name="top"/>
  <outline>
    <contour>
      <point x="377.8425" y="-17.825" type="curve" smooth="yes"/>
      <point x="594.255" y="-17.825"/>
      <point x="698.645" y="93.7525"/>
      <point x="698.645" y="293.2025" type="curve" smooth="yes"/>
      <point x="698.645" y="344.6075" type="line" smooth="yes"/>
      <point x="698.645" y="534.42"/>
      <point x="628.64" y="611.42"/>
      <point x="420.3925" y="687.7325" type="curve" smooth="yes"/>
      <point x="223.63750000000002" y="760.9975"/>
      <point x="163.625" y="822.4200000000001"/>
      <point x="163.625" y="971.905" type="curve" smooth="yes"/>
      <point x="163.625" y="996.6650000000001" type="line" smooth="yes"/>
      <point x="163.625" y="1142.09"/>
      <point x="231.35500000000002" y="1224.6100000000001"/>
      <point x="396.11" y="1224.6100000000001" type="curve" smooth="yes"/>
      <point x="516.1525" y="1224.6100000000001"/>
      <point x="603.6099999999999" y="1186.0375"/>
      <point x="672.3025" y="1136.3625000000002" type="curve"/>
      <point x="664.285" y="1214.005" type="line"/>
      <point x="608.105" y="1256.18"/>
      <point x="515.485" y="1295.4575"/>
      <point x="388.04" y="1295.4575" type="curve" smooth="yes"/>
      <point x="180.03" y="1295.4575"/>
      <point x="84.345" y="1187.145"/>
      <point x="84.345" y="999.4475" type="curve" smooth="yes"/>
      <point x="84.345" y="972.3025" type="line" smooth="yes"/>
      <point x="84.345" y="791.8275"/>
      <point x="158.44" y="709.515"/>
      <point x="373.15749999999997" y="630.2325000000001" type="curve" smooth="yes"/>
      <point x="556.5875" y="565.2325"/>
      <point x="619.365" y="502.5625"/>
      <point x="619.365" y="344.035" type="curve" smooth="yes"/>
      <point x="619.365" y="294.925" type="line" smooth="yes"/>
      <point x="619.365" y="139.5"/>
      <point x="540.7975" y="54.480000000000004"/>
      <point x="373.88" y="54.480000000000004" type="curve" smooth="yes"/>
      <point x="259.6875" y="54.480000000000004"/>
      <point x="159.3325" y="94.01"/>
      <point x="81.2" y="149.2275" type="curve"/>
      <point x="89.71749999999999" y="66.8325" type="line"/>
      <point x="146.6025" y="25.555000000000003"/>
      <point x="247.9875" y="-17.825"/>
    </contour>
  </outline>
</glyph>
<glyph name="T" format="2">
  <advance width="794.5850000000002"/>
  <unicode hex="0054"/>
  <anchor x="397.66" y="0.0" name="bottom"/>
  <anchor x="397.66" y="639.0" name="center"/>
  <anchor x="397.66" y="1278.0" name="top"/>
  <outline>
    <contour>
      <point x="357.785" y="0.0" type="line"/>
      <point x="436.9325" y="0.0" type="line"/>
      <point x="436.9325" y="1273.3625" type="line"/>
      <point x="357.785" y="1273.3625" type="line"/>
    </contour>
    <contour>
      <point x="53.349999999999994" y="1209.815" type="line"/>
      <point x="741.235" y="1209.815" type="line"/>
      <point x="741.235" y="1278.0" type="line"/>
      <point x="53.349999999999994" y="1278.0" type="line"/>
    </contour>
  </outline>
</glyph>
<glyph name="U" format="2">
  <advance width="952.115"/>
  <unicode hex="0055"/>
  <anchor x="476.0575" y="0.0" name="bottom"/>
  <anchor x="659.9100000000001" y="6.8375" name="ogonek"/>
  <anchor x="476.0575" y="1278.0" name="top"/>
  <anchor x="925.7524999999999" y="1278.0" name="topright"/>
  <outline>
    <contour>
      <point x="476.0575" y="-18.09" type="curve" smooth="yes"/>
      <point x="705.6625" y="-18.09"/>
      <point x="816.7275" y="118.01750000000001"/>
      <point x="816.7275" y="370.19" type="curve" smooth="yes"/>
      <point x="816.7275" y="1278.0" type="line"/>
      <point x="737.5799999999999" y="1278.0" type="line"/>
      <point x="737.5799999999999" y="367.4075" type="line" smooth="yes"/>
      <point x="737.5799999999999" y="163.79"/>
      <point x="656.6324999999999" y="51.432500000000005"/>
      <point x="476.0575" y="51.432500000000005" type="curve" smooth="yes"/>
      <point x="295.48249999999996" y="51.432500000000005"/>
      <point x="214.53500000000003" y="163.79"/>
      <point x="214.53500000000003" y="367.4075" type="curve" smooth="yes"/>
      <point x="214.53500000000003" y="1278.0" type="line"/>
      <point x="135.38750000000002" y="1278.0" type="line"/>
      <point x="135.38750000000002" y="370.19" type="line" smooth="yes"/>
      <point x="135.38750000000002" y="118.01750000000001"/>
      <point x="246.21749999999997" y="-18.09"/>
    </contour>
  </outline>
</glyph>
<glyph name="V" format="2">
  <advance width="876.1925000000001"/>
  <unicode hex="0056"/>
  <anchor x="438.28000000000003" y="0.0" name="bottom"/>
  <anchor x="438.28000000000003" y="1278.0" name="top"/>
  <outline>
    <contour>
      <point x="368.13" y="0.0" type="line"/>
      <point x="508.56249999999994" y="0.0" type="line"/>
      <point x="818.8175000000001" y="1278.0" type="line"/>
      <point x="737.5075" y="1278.0" type="line"/>
      <point x="449.14750000000004" y="61.4875" type="line"/>
      <point x="426.545" y="61.4875" type="line"/>
      <point x="138.685" y="1278.0" type="line"/>
      <point x="57.375" y="1278.0" type="line"/>
    </contour>
  </outline>
</glyph>
<glyph name="W" format="2">
  <advance width="1279.0700000000002"/>
  <unicode hex="0057"/>
  <anchor x="640.1525" y="0.0" name="bottom"/>
  <anchor x="640.1525" y="1278.0" name="top"/>
  <outline>
    <contour>
      <point x="291.48" y="0.0" type="line"/>
      <point x="426.54499999999996" y="0.0" type="line"/>
      <point x="574.2725" y="828.8575000000001" type="line"/>
      <point x="632.9175" y="1177.8625" type="line"/>
      <point x="646.285" y="1177.8625" type="line"/>
      <point x="705.2975" y="828.8575000000001" type="line"/>
      <point x="853.525" y="0.0" type="line"/>
      <point x="987.7225" y="0.0" type="line"/>
      <point x="1206.49" y="1278.0" type="line"/>
      <point x="1126.71" y="1278.0" type="line"/>
      <point x="941.0774999999999" y="170.3625" type="line"/>
      <point x="926.9224999999999" y="66.625" type="line"/>
      <point x="910.4825" y="66.625" type="line"/>
      <point x="895.7975000000001" y="170.3625" type="line"/>
      <point x="701.52" y="1242.62" type="line"/>
      <point x="577.6825" y="1242.62" type="line"/>
      <point x="384.0075" y="170.73" type="line"/>
      <point x="368.955" y="66.625" type="line"/>
      <point x="352.64750000000004" y="66.625" type="line"/>
      <point x="338.4925" y="170.73" type="line"/>
      <point x="152.85999999999999" y="1278.0" type="line"/>
      <point x="72.58" y="1278.0" type="line"/>
    </contour>
  </outline>
</glyph>
<glyph name="X" format="2">
  <advance width="863.7049999999999"/>
  <unicode hex="0058"/>
  <anchor x="432.35249999999996" y="0.0" name="bottom"/>
  <anchor x="432.35249999999996" y="1278.0" name="top"/>
  <outline>
    <contour>
      <point x="61.44749999999999" y="0.0" type="line"/>
      <point x="145.18500000000003" y="0.0" type="line"/>
      <point x="427.3225" y="615.3000000000001" type="line"/>
      <point x="436.88249999999994" y="615.3000000000001" type="line"/>
      <point x="718.8874999999999" y="0.0" type="line"/>
      <point x="802.2575" y="0.0" type="line"/>
      <point x="488.635" y="675.505" type="line"/>
      <point x="488.635" y="649.82" type="line"/>
      <point x="796.9625" y="1278.0" type="line"/>
      <point x="713.8874999999999" y="1278.0" type="line"/>
      <point x="436.88249999999994" y="705.14" type="line"/>
      <point x="427.455" y="705.14" type="line"/>
      <point x="149.95000000000002" y="1278.0" type="line"/>
      <point x="67.24249999999999" y="1278.0" type="line"/>
      <point x="375.57" y="649.82" type="line"/>
      <point x="375.57" y="675.505" type="line"/>
    </contour>
  </outline>
</glyph>
<glyph name="Y" format="2">
  <advance width="832.6325"/>
  <unicode hex="0059"/>
  <anchor x="416.74999999999994" y="0.0" name="bottom"/>
  <anchor x="416.74999999999994" y="1278.0" name="top"/>
  <anchor x="22.205" y="1278.0" name="topleft"/>
  <outline>
    <contour>
      <point x="381.1275" y="419.96750000000003" type="line"/>
      <point x="451.90250000000003" y="419.96750000000003" type="line"/>
      <point x="786.185" y="1278.0" type="line"/>
      <point x="704.375" y="1278.0" type="line"/>
      <point x="503.275" y="752.265" type="line"/>
      <point x="421.4125" y="528.855" type="line"/>
      <point x="411.98499999999996" y="528.855" type="line"/>
      <point x="330.255" y="752.6324999999999" type="line"/>
      <point x="128.2575" y="1278.0" type="line"/>
      <point x="46.4475" y="1278.0" type="line"/>
    </contour>
    <contour>
      <point x="378.17" y="0.0" type="line"/>
      <point x="454.86" y="0.0" type="line"/>
      <point x="454.86" y="510.15250000000003" type="line"/>
      <point x="378.17" y="510.15250000000003" type="line"/>
    </contour>
  </outline>
</glyph>
<glyph name="Z" format="2">
  <advance width="793.0500000000001"/>
  <unicode hex="005A"/>
  <anchor x="396.9075" y="0.0" name="bottom"/>
  <anchor x="396.9075" y="639.0" name="center"/>
  <anchor x="396.9075" y="1278.0" name="top"/>
  <outline>
    <contour>
      <point x="711.115" y="69.31750000000001" type="line"/>
      <point x="167.8225" y="69.31750000000001" type="line"/>
      <point x="706.32" y="1215.8325" type="line"/>
      <point x="706.32" y="1278.0" type="line"/>
      <point x="85.5975" y="1278.0" type="line"/>
      <point x="85.5975" y="1209.315" type="line"/>
      <point x="619.6975" y="1209.315" type="line"/>
      <point x="81.935" y="62.932500000000005" type="line"/>
      <point x="81.935" y="0.0" type="line"/>
      <point x="711.115" y="0.0" type="line"/>
    </contour>
  </outline>
</glyph>
<glyph name="bracketleft" format="2">
  <advance width="500.24999999999994"/>
  <unicode hex="005B"/>
  <outline>
    <contour>
      <point x="145.8875" y="-239.4275" type="line"/>
      <point x="454.9125" y="-239.4275" type="line"/>
      <point x="454.9125" y="-177.88" type="line"/>
      <point x="218.9275" y="-177.88" type="line"/>
      <point x="218.9275" y="1289.585" type="line"/>
      <point x="454.9125" y="1289.585" type="line"/>
      <point x="454.9125" y="1351.1325000000002" type="line"/>
      <point x="145.8875" y="1351.1325000000002" type="line"/>
    </contour>
  </outline>
</glyph>
<glyph name="backslash" format="2">
  <advance width="632.3925"/>
  <unicode hex="005C"/>
  <outline>
    <contour>
      <point x="581.4625" y="-237.325" type="line"/>
      <point x="123.91" y="1344.56" type="line"/>
      <point x="50.93" y="1344.56" type="line"/>
      <point x="508.2175" y="-237.325" type="line"/>
    </contour>
  </outline>
</glyph>
<glyph name="bracketright" format="2">
  <advance width="500.24999999999994"/>
  <unicode hex="005D"/>
  <outline>
    <contour>
      <point x="354.3625" y="-239.4275" type="line"/>
      <point x="354.3625" y="1351.1325000000002" type="line"/>
      <point x="45.3375" y="1351.1325000000002" type="line"/>
      <point x="45.3375" y="1289.585" type="line"/>
      <point x="281.3225" y="1289.585" type="line"/>
      <point x="281.3225" y="-177.88" type="line"/>
      <point x="45.3375" y="-177.88" type="line"/>
      <point x="45.3375" y="-239.4275" type="line"/>
    </contour>
  </outline>
</glyph>
<glyph name="asciicircum" format="2">
  <advance width="659.23"/>
  <unicode hex="005E"/>
  <outline>
    <contour>
      <point x="274.25" y="1278.0" type="line"/>
      <point x="66.02" y="621.175" type="line"/>
      <point x="135.025" y="621.175" type="line"/>
      <point x="323.4975" y="1224.1374999999998" type="line"/>
      <point x="335.59999999999997" y="1224.1374999999998" type="line"/>
      <point x="524.205" y="621.175" type="line"/>
      <point x="593.2099999999999" y="621.175" type="line"/>
      <point x="384.8475" y="1278.0" type="line"/>
    </contour>
  </outline>
</glyph>
<glyph name="underscore" format="2">
  <advance width="750.91"/>
  <unicode hex="005F"/>
  <outline>
    <contour>
      <point x="58.5375" y="-157.54999999999998" type="line"/>
      <point x="692.3725" y="-157.54999999999998" type="line"/>
      <point x="692.3725" y="-96.4725" type="line"/>
      <point x="58.5375" y="-96.4725" type="line"/>
    </contour>
  </outline>
</glyph>
<glyph name="grave" format="2">
  <advance width="450.7275"/>
  <unicode hex="0060"/>
  <anchor x="318.28499999999997" y="982.4875000000001" name="_top"/>
  <anchor x="311.71250000000003" y="1293.0275" name="top"/>
  <outline>
    <contour>
      <point x="187.52749999999997" y="1348.945" type="line"/>
      <point x="102.2475" y="1348.945" type="line"/>
      <point x="102.2475" y="1347.8125" type="line"/>
      <point x="283.15000000000003" y="1104.9950000000001" type="line"/>
      <point x="350.95000000000005" y="1104.9950000000001" type="line"/>
      <point x="350.95000000000005" y="1105.76" type="line"/>
    </contour>
  </outline>
</glyph>
<glyph name="a" format="2">
  <advance width="771.3375000000001"/>
  <unicode hex="0061"/>
  <anchor x="374.7075" y="0.0" name="bottom"/>
  <anchor x="699.1075" y="0.0" name="ogonek"/>
  <anchor x="374.7075" y="982.4875000000001" name="top"/>
  <outline>
    <contour>
      <point x="579.0975" y="0.0" type="line"/>
      <point x="655.2875" y="0.0" type="line"/>
      <point x="655.2875" y="697.63" type="line" smooth="yes"/>
      <point x="655.2875" y="890.9949999999999"/>
      <point x="570.74" y="999.415"/>
      <point x="376.66" y="999.415" type="curve" smooth="yes"/>
      <point x="255.715" y="999.415"/>
      <point x="163.505" y="954.005"/>
      <point x="105.79500000000002" y="911.035" type="curve"/>
      <point x="98.14500000000001" y="837.3974999999999" type="line"/>
      <point x="168.66250000000002" y="888.7475"/>
      <point x="261.0175" y="932.32"/>
      <point x="367.78249999999997" y="932.32" type="curve" smooth="yes"/>
      <point x="513.8075" y="932.32"/>
      <point x="579.5975000000001" y="852.4150000000001"/>
      <point x="579.5975000000001" y="695.2025" type="curve"/>
      <point x="579.4649999999999" y="588.4399999999999" type="line"/>
      <point x="579.4649999999999" y="217.3675" type="line"/>
      <point x="584.025" y="210.82" type="line"/>
    </contour>
    <contour>
      <point x="317.92249999999996" y="-16.53" type="curve" smooth="yes"/>
      <point x="484.5975" y="-16.53"/>
      <point x="567.135" y="89.6825"/>
      <point x="586.755" y="216.13" type="curve"/>
      <point x="604.1575" y="216.13" type="line"/>
      <point x="583.4649999999999" y="280.0225" type="line"/>
      <point x="561.025" y="147.23"/>
      <point x="481.09000000000003" y="48.667500000000004"/>
      <point x="339.35249999999996" y="48.667500000000004" type="curve" smooth="yes"/>
      <point x="211.57250000000002" y="48.667500000000004"/>
      <point x="150.9925" y="119.645"/>
      <point x="150.9925" y="249.96750000000003" type="curve" smooth="yes"/>
      <point x="150.9925" y="292.90250000000003" type="line" smooth="yes"/>
      <point x="150.9925" y="408.0375"/>
      <point x="205.9575" y="464.5025"/>
      <point x="350.4125" y="495.42499999999995" type="curve" smooth="yes"/>
      <point x="602.97" y="548.0825" type="line"/>
      <point x="597.6575" y="610.54" type="line"/>
      <point x="335.7875" y="554.6175000000001" type="line" smooth="yes"/>
      <point x="145.56" y="512.485"/>
      <point x="75.17" y="437.425"/>
      <point x="75.17" y="289.5175" type="curve" smooth="yes"/>
      <point x="75.17" y="241.3425" type="line" smooth="yes"/>
      <point x="75.17" y="73.59"/>
      <point x="157.5975" y="-16.53"/>
    </contour>
  </outline>
</glyph>
<glyph name="b" format="2">
  <advance width="846.9825000000001"/>
  <unicode hex="0062"/>
  <anchor x="426.82250000000005" y="0.0" name="bottom"/>
  <anchor x="426.82250000000005" y="1330.175" name="top"/>
  <outline>
    <contour>
      <point x="462.0175" y="-16.53" type="curve" smooth="yes"/>
      <point x="653.4025" y="-16.53"/>
      <point x="750.1075000000001" y="107.3125"/>
      <point x="750.1075000000001" y="337.29249999999996" type="curve" smooth="yes"/>
      <point x="750.1075000000001" y="647.8275" type="line" smooth="yes"/>
      <point x="750.1075000000001" y="876.1750000000001"/>
      <point x="654.27" y="999.0174999999999"/>
      <point x="466.75250000000005" y="999.0174999999999" type="curve" smooth="yes"/>
      <point x="306.3725" y="999.0174999999999"/>
      <point x="217.7625" y="895.4375"/>
      <point x="196.40750000000003" y="763.9175" type="curve"/>
      <point x="174.16250000000002" y="763.9175" type="line"/>
      <point x="198.3725" y="700.2900000000001" type="line"/>
      <point x="223.04749999999999" y="837.92"/>
      <point x="309.02500000000003" y="934.88"/>
      <point x="444.66" y="934.88" type="curve" smooth="yes"/>
      <point x="598.2775" y="934.88"/>
      <point x="673.755" y="835.625"/>
      <point x="673.755" y="651.3325" type="curve" smooth="yes"/>
      <point x="673.755" y="334.51" type="line" smooth="yes"/>
      <point x="673.755" y="148.4225"/>
      <point x="595.44" y="48.667500000000004"/>
      <point x="445.52750000000003" y="48.667500000000004" type="curve" smooth="yes"/>
      <point x="306.64" y="48.667500000000004"/>
      <point x="208.91500000000002" y="141.91"/>
      <point x="201.24" y="308.75" type="curve"/>
      <point x="168.9825" y="236.57750000000001" type="line"/>
      <point x="195.3775" y="236.57750000000001" type="line"/>
      <point x="205.13500000000002" y="87.7975"/>
      <point x="304.41999999999996" y="-16.53"/>
    </contour>
    <contour>
      <point x="128.05" y="0.0" type="line"/>
      <point x="203.77" y="0.0" type="line"/>
      <point x="198.475" y="207.115" type="line"/>
      <point x="201.24" y="237.09000000000003" type="line"/>
      <point x="201.24" y="745.0725" type="line"/>
      <point x="199.8725" y="765.355" type="line"/>
      <point x="204.00500000000002" y="1015.48" type="line"/>
      <point x="204.00500000000002" y="1330.175" type="line"/>
      <point x="128.05" y="1330.175" type="line"/>
    </contour>
  </outline>
</glyph>
<glyph name="c" format="2">
  <advance width="674.3100000000001"/>
  <unicode hex="0063"/>
  <anchor x="375.1125" y="0.0" name="bottom"/>
  <anchor x="375.1125" y="982.4875000000001" name="top"/>
  <outline>
    <contour>
      <point x="392.8225" y="-16.662499999999998" type="curve" smooth="yes"/>
      <point x="494.36500000000007" y="-16.662499999999998"/>
      <point x="565.515" y="19.217499999999998"/>
      <point x="609.5025" y="58.025" type="curve"/>
      <point x="617.3875" y="132.66250000000002" type="line"/>
      <point x="565.1225" y="87.21000000000001"/>
      <point x="499.285" y="51.7275"/>
      <point x="404.6275" y="51.7275" type="curve" smooth="yes"/>
      <point x="246.61999999999998" y="51.7275"/>
      <point x="172.9625" y="153.0"/>
      <point x="172.9625" y="334.17749999999995" type="curve" smooth="yes"/>
      <point x="172.9625" y="649.81" type="line" smooth="yes"/>
      <point x="172.9625" y="831.5475"/>
      <point x="246.325" y="932.1875"/>
      <point x="402.3625" y="932.1875" type="curve" smooth="yes"/>
      <point x="495.68249999999995" y="932.1875"/>
      <point x="560.8575000000001" y="897.4399999999999"/>
      <point x="611.725" y="851.9875000000001" type="curve"/>
      <point x="604.2075" y="925.2275000000001" type="line"/>
      <point x="561.5875" y="962.535"/>
      <point x="491.2325000000001" y="999.2824999999999"/>
      <point x="392.925" y="999.2824999999999" type="curve" smooth="yes"/>
      <point x="192.17499999999998" y="999.2824999999999"/>
      <point x="96.61" y="873.35"/>
      <point x="96.61" y="650.6049999999999" type="curve" smooth="yes"/>
      <point x="96.61" y="331.8825" type="line" smooth="yes"/>
      <point x="96.61" y="108.1675"/>
      <point x="192.04250000000002" y="-16.662499999999998"/>
    </contour>
  </outline>
</glyph>
<glyph name="d" format="2">
  <advance width="846.9825000000001"/>
  <unicode hex="0064"/>
  <anchor x="420.5275" y="0.0" name="bottom"/>
  <anchor x="420.5275" y="491.56" name="center"/>
  <anchor x="420.5275" y="1330.175" name="top"/>
  <anchor x="880.0799999999999" y="1330.175" name="topright"/>
  <outline>
    <contour>
      <point x="380.3625" y="-16.53" type="curve" smooth="yes"/>
      <point x="538.935" y="-16.53"/>
      <point x="629.5150000000001" y="83.375"/>
      <point x="651.2375" y="219.67249999999999" type="curve"/>
      <point x="672.5125" y="219.67249999999999" type="line"/>
      <point x="648.6099999999999" y="283.9925" type="line"/>
      <point x="623.2" y="140.4825"/>
      <point x="535.385" y="48.667500000000004"/>
      <point x="402.455" y="48.667500000000004" type="curve" smooth="yes"/>
      <point x="248.70499999999998" y="48.667500000000004"/>
      <point x="173.2275" y="148.65750000000003"/>
      <point x="173.2275" y="333.91999999999996" type="curve" smooth="yes"/>
      <point x="173.2275" y="649.0675" type="line" smooth="yes"/>
      <point x="173.2275" y="835.125"/>
      <point x="251.67499999999998" y="934.88"/>
      <point x="401.85249999999996" y="934.88" type="curve" smooth="yes"/>
      <point x="541.005" y="934.88"/>
      <point x="638.1999999999999" y="841.1075"/>
      <point x="645.7425000000001" y="674.7975" type="curve"/>
      <point x="674.7650000000001" y="745.91" type="line"/>
      <point x="650.9425" y="745.91" type="line"/>
      <point x="641.185" y="894.6899999999999"/>
      <point x="542.6650000000001" y="999.0174999999999"/>
      <point x="384.965" y="999.0174999999999" type="curve" smooth="yes"/>
      <point x="193.44750000000002" y="999.0174999999999"/>
      <point x="96.875" y="875.175"/>
      <point x="96.875" y="644.8275" type="curve" smooth="yes"/>
      <point x="96.875" y="336.6" type="line" smooth="yes"/>
      <point x="96.875" y="106.915"/>
      <point x="192.845" y="-16.53"/>
    </contour>
    <contour>
      <point x="643.2125" y="0.0" type="line"/>
      <point x="718.9325" y="0.0" type="line"/>
      <point x="718.9325" y="1330.175" type="line"/>
      <point x="642.9775" y="1330.175" type="line"/>
      <point x="642.9775" y="1015.48" type="line"/>
      <point x="647.11" y="765.15" type="line"/>
      <point x="645.7425000000001" y="743.6025" type="line"/>
      <point x="645.7425000000001" y="232.235" type="line"/>
      <point x="648.5075" y="212.6275" type="line"/>
    </contour>
  </outline>
</glyph>
<glyph name="e" format="2">
  <advance width="776.9399999999999"/>
  <unicode hex="0065"/>
  <anchor x="406.55749999999995" y="0.0" name="bottom"/>
  <anchor x="620.0825" y="7.8975" name="ogonek"/>
  <anchor x="397.015" y="982.4875000000001" name="top"/>
  <outline>
    <contour>
      <point x="421.02" y="-16.662499999999998" type="curve" smooth="yes"/>
      <point x="525.0975" y="-16.662499999999998"/>
      <point x="612.7775" y="16.747500000000002"/>
      <point x="674.3249999999999" y="63.3925" type="curve"/>
      <point x="681.975" y="138.265" type="line"/>
      <point x="610.385" y="84.8425"/>
      <point x="528.2950000000001" y="51.065"/>
      <point x="431.1325" y="51.065" type="curve" smooth="yes"/>
      <point x="263.57250000000005" y="51.065"/>
      <point x="172.43249999999998" y="147.33749999999998"/>
      <point x="172.43249999999998" y="320.1175" type="curve" smooth="yes"/>
      <point x="172.43249999999998" y="473.33750000000003" type="line"/>
      <point x="172.3" y="487.3425" type="line"/>
      <point x="172.3" y="662.0975" type="line" smooth="yes"/>
      <point x="172.3" y="841.125"/>
      <point x="247.35000000000002" y="937.0125"/>
      <point x="396.69" y="937.0125" type="curve" smooth="yes"/>
      <point x="545.53" y="937.0125"/>
      <point x="621.2425" y="841.0225"/>
      <point x="621.2425" y="665.1999999999999" type="curve" smooth="yes"/>
      <point x="621.2425" y="597.6999999999999"/>
      <point x="621.11" y="530.6525"/>
      <point x="620.845" y="450.015" type="curve"/>
      <point x="690.1199999999999" y="450.015" type="line"/>
      <point x="694.68" y="497.4425"/>
      <point x="695.4749999999999" y="535.9175"/>
      <point x="695.4749999999999" y="578.7" type="curve" smooth="yes"/>
      <point x="695.4749999999999" y="661.725" type="line" smooth="yes"/>
      <point x="695.4749999999999" y="877.9525"/>
      <point x="592.705" y="1001.415"/>
      <point x="396.69" y="1001.415" type="curve" smooth="yes"/>
      <point x="199.57250000000002" y="1001.415"/>
      <point x="96.61" y="880.5124999999999"/>
      <point x="96.61" y="657.1949999999999" type="curve" smooth="yes"/>
      <point x="96.61" y="324.55" type="line" smooth="yes"/>
      <point x="96.61" y="102.80000000000001"/>
      <point x="211.94" y="-16.662499999999998"/>
    </contour>
    <contour>
      <point x="137.195" y="450.015" type="line"/>
      <point x="669.5975" y="450.015" type="line"/>
      <point x="669.5975" y="512.0325" type="line"/>
      <point x="137.195" y="512.0325" type="line"/>
    </contour>
  </outline>
</glyph>
<glyph name="f" format="2">
  <advance width="610.715"/>
  <unicode hex="0066"/>
  <anchor x="306.27000000000004" y="0.0" name="bottom"/>
  <anchor x="306.27000000000004" y="1323.5" name="top"/>
  <outline>
    <contour>
      <point x="387.39750000000004" y="1350.295" type="curve" smooth="yes"/>
      <point x="220.86250000000004" y="1350.295"/>
      <point x="140.6225" y="1264.4575"/>
      <point x="140.6225" y="1128.5175" type="curve" smooth="yes"/>
      <point x="140.6225" y="1123.5175" type="line" smooth="yes"/>
      <point x="140.6225" y="1053.03"/>
      <point x="165.12750000000003" y="992.2225"/>
      <point x="186.505" y="954.005" type="curve"/>
      <point x="186.505" y="943.295" type="line"/>
      <point x="243.35500000000002" y="947.1025" type="line"/>
      <point x="229.09000000000003" y="991.995"/>
      <point x="214.98749999999998" y="1043.725"/>
      <point x="214.98749999999998" y="1103.5275000000001" type="curve" smooth="yes"/>
      <point x="214.98749999999998" y="1108.9975" type="line" smooth="yes"/>
      <point x="214.98749999999998" y="1219.1925"/>
      <point x="271.27750000000003" y="1285.1274999999998"/>
      <point x="404.0925" y="1285.1274999999998" type="curve" smooth="yes"/>
      <point x="475.44250000000005" y="1285.1274999999998"/>
      <point x="525.28" y="1268.6875"/>
      <point x="578.6600000000001" y="1247.2775000000001" type="curve"/>
      <point x="570.745" y="1310.6325" type="line"/>
      <point x="520.5825" y="1333.265"/>
      <point x="464.445" y="1350.295"/>
    </contour>
    <contour>
      <point x="170.6225" y="0.0" type="line"/>
      <point x="246.71000000000004" y="0.0" type="line"/>
      <point x="246.71000000000004" y="926.285" type="line"/>
      <point x="170.6225" y="926.285" type="line"/>
    </contour>
    <contour>
      <point x="22.145" y="894.26" type="line"/>
      <point x="566.07" y="894.26" type="line"/>
      <point x="573.5875" y="957.3975" type="line"/>
      <point x="228.35000000000002" y="957.3975" type="line"/>
      <point x="201.685" y="957.1324999999999" type="line"/>
      <point x="22.145" y="957.3975" type="line"/>
    </contour>
  </outline>
</glyph>
<glyph name="g" format="2">
  <advance width="803.73"/>
  <unicode hex="0067"/>
  <anchor x="408.54" y="-347.66249999999997" name="bottom"/>
  <anchor x="405.9375" y="983.0174999999999" name="top"/>
  <outline>
    <contour>
      <point x="402.2025" y="250.5525" type="curve"/>
      <point x="596.23" y="250.5525"/>
      <point x="698.0600000000001" y="349.305"/>
      <point x="698.0600000000001" y="543.63" type="curve" smooth="yes"/>
      <point x="698.0600000000001" y="692.245" type="line" smooth="yes"/>
      <point x="698.0600000000001" y="830.24"/>
      <point x="645.355" y="928.6275"/>
      <point x="491.58" y="948.91" type="curve"/>
      <point x="494.15250000000003" y="947.885" type="line"/>
      <point x="778.1925" y="942.4275" type="line"/>
      <point x="778.1925" y="1006.8425" type="line"/>
      <point x="403.72" y="996.2525" type="line" smooth="yes"/>
      <point x="177.44" y="989.6925"/>
      <point x="103.1225" y="862.56"/>
      <point x="103.1225" y="696.4775" type="curve" smooth="yes"/>
      <point x="103.1225" y="545.4425" type="line" smooth="yes"/>
      <point x="103.1225" y="351.365"/>
      <point x="212.1025" y="250.5525"/>
    </contour>
    <contour>
      <point x="401.47999999999996" y="-303.7475" type="line" smooth="yes"/>
      <point x="245.48999999999998" y="-303.7475"/>
      <point x="141.09" y="-258.9275"/>
      <point x="141.09" y="-149.395" type="curve" smooth="yes"/>
      <point x="141.09" y="-146.29250000000002" type="line" smooth="yes"/>
      <point x="141.09" y="-42.45249999999999"/>
      <point x="223.18250000000003" y="5.470000000000001"/>
      <point x="352.3425" y="26.542500000000004" type="curve"/>
      <point x="320.0725" y="25.41" type="line"/>
      <point x="498.215" y="4.789999999999997" type="line" smooth="yes"/>
      <point x="632.76" y="-13.252500000000001"/>
      <point x="683.52" y="-61.1275"/>
      <point x="683.52" y="-147.8825" type="curve" smooth="yes"/>
      <point x="683.52" y="-151.48499999999999" type="line" smooth="yes"/>
      <point x="683.52" y="-260.09000000000003"/>
      <point x="578.2825" y="-303.7475"/>
      <point x="420.925" y="-303.7475" type="curve" smooth="yes"/>
    </contour>
    <contour>
      <point x="398.6975" y="-367.59000000000003" type="curve" smooth="yes"/>
      <point x="419.6" y="-367.59000000000003" type="line" smooth="yes"/>
      <point x="621.35" y="-367.59000000000003"/>
      <point x="755.03" y="-301.525"/>
      <point x="755.03" y="-151.605" type="curve" smooth="yes"/>
      <point x="755.03" y="-146.9425" type="line" smooth="yes"/>
      <point x="755.03" y="-28.975000000000005"/>
      <point x="687.9525000000001" y="39.0425"/>
      <point x="515.6525" y="64.6025" type="curve" smooth="yes"/>
      <point x="346.485" y="87.06" type="line" smooth="yes"/>
      <point x="232.98250000000002" y="102.3675"/>
      <point x="189.1925" y="127.92249999999999"/>
      <point x="189.1925" y="178.3875" type="curve" smooth="yes"/>
      <point x="189.1925" y="179.755" type="line" smooth="yes"/>
      <point x="189.1925" y="230.63"/>
      <point x="228.555" y="256.34749999999997"/>
      <point x="322.425" y="257.215" type="curve"/>
      <point x="378.09999999999997" y="256.81750000000005" type="line"/>
      <point x="263.0625" y="288.5875" type="line"/>
      <point x="263.0625" y="276.01" type="line"/>
      <point x="169.255" y="271.155"/>
      <point x="118.02000000000001" y="233.22750000000002"/>
      <point x="118.02000000000001" y="164.535" type="curve" smooth="yes"/>
      <point x="118.02000000000001" y="163.035" type="line" smooth="yes"/>
      <point x="118.02000000000001" y="91.77"/>
      <point x="173.63500000000002" y="51.07749999999999"/>
      <point x="289.90250000000003" y="35.517500000000005" type="curve"/>
      <point x="288.79999999999995" y="37.7775" type="line"/>
      <point x="167.455" y="20.615"/>
      <point x="70.11" y="-35.355"/>
      <point x="70.11" y="-158.45250000000001" type="curve" smooth="yes"/>
      <point x="70.11" y="-162.45250000000001" type="line" smooth="yes"/>
      <point x="70.11" y="-307.735"/>
      <point x="200.49499999999998" y="-367.59000000000003"/>
    </contour>
    <contour>
      <point x="401.805" y="311.01000000000005" type="curve" smooth="yes"/>
      <point x="250.46499999999997" y="311.01000000000005"/>
      <point x="177.09" y="393.62"/>
      <point x="177.09" y="548.8399999999999" type="curve" smooth="yes"/>
      <point x="177.09" y="698.465" type="line" smooth="yes"/>
      <point x="177.09" y="843.9074999999999"/>
      <point x="243.26" y="935.1625"/>
      <point x="400.805" y="935.1625" type="curve" smooth="yes"/>
      <point x="407.98" y="935.1625" type="line" smooth="yes"/>
      <point x="552.2475000000001" y="935.1625"/>
      <point x="624.6225" y="849.2149999999999"/>
      <point x="624.6225" y="701.0675" type="curve" smooth="yes"/>
      <point x="624.6225" y="547.7375000000001" type="line" smooth="yes"/>
      <point x="624.6225" y="393.2525"/>
      <point x="550.0125" y="311.01000000000005"/>
    </contour>
  </outline>
</glyph>
<glyph name="h" format="2">
  <advance width="844.5425"/>
  <unicode hex="0068"/>
  <anchor x="423.08750000000003" y="0.0" name="bottom"/>
  <anchor x="423.08750000000003" y="662.0" name="center"/>
  <anchor x="166.5275" y="1330.175" name="top"/>
  <outline>
    <contour>
      <point x="651.11" y="0.0" type="line"/>
      <point x="727.33" y="0.0" type="line"/>
      <point x="727.33" y="679.675" type="line" smooth="yes"/>
      <point x="727.33" y="883.415"/>
      <point x="653.24" y="999.0174999999999"/>
      <point x="468.23999999999995" y="999.0174999999999" type="curve" smooth="yes"/>
      <point x="304.185" y="999.0174999999999"/>
      <point x="217.52749999999997" y="894.7025"/>
      <point x="197.1425" y="766.49" type="curve"/>
      <point x="171.3675" y="766.49" type="line"/>
      <point x="200.035" y="702.0675" type="line"/>
      <point x="223.1075" y="835.7575"/>
      <point x="303.2175" y="933.82"/>
      <point x="444.63" y="933.82" type="curve" smooth="yes"/>
      <point x="595.675" y="933.82"/>
      <point x="651.11" y="837.4025"/>
      <point x="651.11" y="672.375" type="curve" smooth="yes"/>
    </contour>
    <contour>
      <point x="128.05" y="0.0" type="line"/>
      <point x="204.27" y="0.0" type="line"/>
      <point x="204.27" y="757.2175" type="line"/>
      <point x="199.8725" y="764.9875" type="line"/>
      <point x="204.00500000000002" y="1016.215" type="line"/>
      <point x="204.00500000000002" y="1330.175" type="line"/>
      <point x="128.05" y="1330.175" type="line"/>
    </contour>
  </outline>
</glyph>
<glyph name="i" format="2">
  <advance width="341.26000000000005"/>
  <unicode hex="0069"/>
  <anchor x="170.9975" y="0.0" name="bottom"/>
  <anchor x="252.56000000000003" y="0.0" name="ogonek"/>
  <outline>
    <contour>
      <point x="132.51999999999998" y="0.0" type="line"/>
      <point x="208.74" y="0.0" type="line"/>
      <point x="208.74" y="982.4875000000001" type="line"/>
      <point x="132.51999999999998" y="982.4875000000001" type="line"/>
    </contour>
    <contour>
      <point x="170.9975" y="1163.9675" type="curve" smooth="yes"/>
      <point x="207.82000000000002" y="1163.9675"/>
      <point x="224.415" y="1188.0325"/>
      <point x="224.415" y="1234.4825" type="curve" smooth="yes"/>
      <point x="224.415" y="1245.055" type="line" smooth="yes"/>
      <point x="224.415" y="1290.8725000000002"/>
      <point x="207.82000000000002" y="1314.7025"/>
      <point x="170.9975" y="1314.7025" type="curve" smooth="yes"/>
      <point x="134.0425" y="1314.7025"/>
      <point x="116.84500000000001" y="1290.8725000000002"/>
      <point x="116.84500000000001" y="1245.055" type="curve" smooth="yes"/>
      <point x="116.84500000000001" y="1234.4825" type="line" smooth="yes"/>
      <point x="116.84500000000001" y="1188.165"/>
      <point x="134.0425" y="1163.9675"/>
    </contour>
  </outline>
</glyph>
<glyph name="j" format="2">
  <advance width="361.7725"/>
  <unicode hex="006A"/>
  <outline>
    <contour>
      <point x="153.03249999999997" y="135.4175" type="line"/>
      <point x="229.25250000000003" y="135.05" type="line"/>
      <point x="229.25250000000003" y="982.4875000000001" type="line"/>
      <point x="153.03249999999997" y="982.4875000000001" type="line"/>
    </contour>
    <contour>
      <point x="191.51" y="1163.1725" type="curve" smooth="yes"/>
      <point x="228.3325" y="1163.1725"/>
      <point x="244.9275" y="1187.2375"/>
      <point x="244.9275" y="1233.6875" type="curve" smooth="yes"/>
      <point x="244.9275" y="1244.26" type="line" smooth="yes"/>
      <point x="244.9275" y="1290.0775"/>
      <point x="228.3325" y="1313.9075"/>
      <point x="191.51" y="1313.9075" type="curve" smooth="yes"/>
      <point x="154.55499999999998" y="1313.9075"/>
      <point x="137.35750000000002" y="1290.0775"/>
      <point x="137.35750000000002" y="1244.26" type="curve" smooth="yes"/>
      <point x="137.35750000000002" y="1233.6875" type="line" smooth="yes"/>
      <point x="137.35750000000002" y="1187.37"/>
      <point x="154.55499999999998" y="1163.1725"/>
    </contour>
    <component base="jbottom"/>
  </outline>
</glyph>
<glyph name="k" format="2">
  <advance width="761.1550000000001"/>
  <unicode hex="006B"/>
  <anchor x="400.3825" y="0.0" name="bottom"/>
  <anchor x="387.37" y="1330.175" name="top"/>
  <outline>
    <contour>
      <point x="635.9825" y="0.0" type="line"/>
      <point x="724.1475" y="0.0" type="line"/>
      <point x="336.71" y="542.7824999999999" type="line"/>
      <point x="336.71" y="513.85" type="line"/>
      <point x="706.105" y="982.4875000000001" type="line"/>
      <point x="618.3675" y="982.4875000000001" type="line"/>
      <point x="282.1025" y="558.2075" type="line"/>
      <point x="189.8725" y="558.2075" type="line"/>
      <point x="189.8725" y="493.57" type="line"/>
      <point x="281.3075" y="493.57" type="line"/>
    </contour>
    <contour>
      <point x="128.05" y="0.0" type="line"/>
      <point x="204.13750000000002" y="0.0" type="line"/>
      <point x="204.13750000000002" y="1330.175" type="line"/>
      <point x="128.05" y="1330.175" type="line"/>
    </contour>
  </outline>
</glyph>
<glyph name="l" format="2">
  <advance width="342.995"/>
  <unicode hex="006C"/>
  <anchor x="172.13" y="0.0" name="bottom"/>
  <anchor x="172.13" y="662.0" name="center"/>
  <anchor x="172.13" y="1330.175" name="top"/>
  <anchor x="371.3875" y="1330.175" name="topright"/>
  <outline>
    <contour>
      <point x="133.38750000000002" y="0.0" type="line"/>
      <point x="209.6075" y="0.0" type="line"/>
      <point x="209.6075" y="1330.175" type="line"/>
      <point x="133.38750000000002" y="1330.175" type="line"/>
    </contour>
  </outline>
</glyph>
<glyph name="m" format="2">
  <advance width="1293.1675"/>
  <unicode hex="006D"/>
  <anchor x="646.635" y="0.0" name="bottom"/>
  <anchor x="646.635" y="982.4875000000001" name="top"/>
  <outline>
    <contour>
      <point x="1099.735" y="0.0" type="line"/>
      <point x="1175.955" y="0.0" type="line"/>
      <point x="1175.955" y="686.5125" type="line" smooth="yes"/>
      <point x="1175.955" y="885.0475"/>
      <point x="1107.1" y="999.0174999999999"/>
      <point x="933.9075" y="999.0174999999999" type="curve" smooth="yes"/>
      <point x="777.4499999999999" y="999.0174999999999"/>
      <point x="695.6175000000001" y="893.5825"/>
      <point x="674.9675" y="773.105" type="curve"/>
      <point x="663.2875" y="773.105" type="line"/>
      <point x="683.5100000000001" y="706.7125" type="line"/>
      <point x="704.715" y="836.86"/>
      <point x="780.9575" y="933.82"/>
      <point x="911.3275" y="933.82" type="curve" smooth="yes"/>
      <point x="1048.1675" y="933.82"/>
      <point x="1099.735" y="839.035"/>
      <point x="1099.735" y="677.8025" type="curve" smooth="yes"/>
    </contour>
    <contour>
      <point x="128.05" y="0.0" type="line"/>
      <point x="204.27" y="0.0" type="line"/>
      <point x="204.27" y="770.475" type="line"/>
      <point x="199.5775" y="772.86" type="line"/>
      <point x="204.505" y="982.4875000000001" type="line"/>
      <point x="128.05" y="982.4875000000001" type="line"/>
    </contour>
    <contour>
      <point x="614.025" y="0.0" type="line"/>
      <point x="689.98" y="0.0" type="line"/>
      <point x="689.98" y="688.585" type="line" smooth="yes"/>
      <point x="689.98" y="717.85"/>
      <point x="687.8175" y="743.6025"/>
      <point x="683.2875" y="769.2049999999999" type="curve"/>
      <point x="663.5225" y="920.5600000000001"/>
      <point x="589.8175000000001" y="999.0174999999999"/>
      <point x="449.3" y="999.0174999999999" type="curve" smooth="yes"/>
      <point x="295.7875" y="999.0174999999999"/>
      <point x="216.365" y="893.9675"/>
      <point x="196.48" y="765.3875" type="curve"/>
      <point x="174.6925" y="765.3875" type="line"/>
      <point x="199.6375" y="700.3325" type="line"/>
      <point x="221.21" y="835.39"/>
      <point x="295.615" y="933.82"/>
      <point x="426.35249999999996" y="933.82" type="curve" smooth="yes"/>
      <point x="563.56" y="933.82"/>
      <point x="614.025" y="839.035"/>
      <point x="614.025" y="677.4350000000001" type="curve" smooth="yes"/>
    </contour>
  </outline>
</glyph>
<glyph name="n" format="2">
  <advance width="844.5425"/>
  <unicode hex="006E"/>
  <anchor x="423.08750000000003" y="0.0" name="bottom"/>
  <anchor x="423.08750000000003" y="982.4875000000001" name="top"/>
  <outline>
    <contour>
      <point x="651.11" y="0.0" type="line"/>
      <point x="727.33" y="0.0" type="line"/>
      <point x="727.33" y="679.675" type="line" smooth="yes"/>
      <point x="727.33" y="883.415"/>
      <point x="653.24" y="999.0174999999999"/>
      <point x="468.23999999999995" y="999.0174999999999" type="curve" smooth="yes"/>
      <point x="306.065" y="999.0174999999999"/>
      <point x="218.23250000000002" y="898.745"/>
      <point x="196.48" y="764.6525" type="curve"/>
      <point x="176.53000000000003" y="764.6525" type="line"/>
      <point x="199.6375" y="700.0975" type="line"/>
      <point x="224.18" y="840.9025"/>
      <point x="306.3925" y="933.82"/>
      <point x="444.7625" y="933.82" type="curve" smooth="yes"/>
      <point x="595.675" y="933.82"/>
      <point x="651.11" y="837.4025"/>
      <point x="651.11" y="672.375" type="curve" smooth="yes"/>
    </contour>
    <contour>
      <point x="128.05" y="0.0" type="line"/>
      <point x="204.27" y="0.0" type="line"/>
      <point x="204.27" y="772.68" type="line"/>
      <point x="199.5775" y="775.1975" type="line"/>
      <point x="204.505" y="982.4875000000001" type="line"/>
      <point x="128.05" y="982.4875000000001" type="line"/>
    </contour>
  </outline>
</glyph>
<glyph name="o" format="2">
  <advance width="821.8499999999999"/>
  <unicode hex="006F"/>
  <anchor x="411.05749999999995" y="0.0" name="bottom"/>
  <anchor x="415.02750000000003" y="413.85249999999996" name="center"/>
  <anchor x="585.1025000000001" y="1.3250000000000002" name="ogonek"/>
  <anchor x="411.05749999999995" y="982.4875000000001" name="top"/>
  <anchor x="708.75" y="982.4875000000001" name="topright"/>
  <outline>
    <contour>
      <point x="411.05749999999995" y="-18.795" type="curve" smooth="yes"/>
      <point x="617.38" y="-18.795"/>
      <point x="725.24" y="105.71000000000001"/>
      <point x="725.24" y="335.895" type="curve"/>
      <point x="725.24" y="647.8575000000001" type="line"/>
      <point x="725.24" y="877.5425"/>
      <point x="617.38" y="1001.415"/>
      <point x="411.05749999999995" y="1001.415" type="curve" smooth="yes"/>
      <point x="204.60250000000002" y="1001.415"/>
      <point x="96.61" y="877.5425"/>
      <point x="96.61" y="647.8575000000001" type="curve"/>
      <point x="96.61" y="335.895" type="line"/>
      <point x="96.61" y="106.0775"/>
      <point x="204.23499999999999" y="-18.795"/>
    </contour>
    <contour>
      <point x="411.05749999999995" y="45.6075" type="curve" smooth="yes"/>
      <point x="253.0425" y="45.6075"/>
      <point x="172.9625" y="145.525"/>
      <point x="172.9625" y="332.5825" type="curve" smooth="yes"/>
      <point x="172.9625" y="651.17" type="line" smooth="yes"/>
      <point x="172.9625" y="837.2275000000001"/>
      <point x="253.0425" y="937.0125"/>
      <point x="411.05749999999995" y="937.0125" type="curve" smooth="yes"/>
      <point x="568.9399999999999" y="937.0125"/>
      <point x="649.02" y="837.2275000000001"/>
      <point x="649.02" y="651.17" type="curve" smooth="yes"/>
      <point x="649.02" y="332.5825" type="line" smooth="yes"/>
      <point x="649.02" y="145.525"/>
      <point x="568.5725000000001" y="45.6075"/>
    </contour>
  </outline>
</glyph>
<glyph name="q" format="2">
  <advance width="846.9825000000001"/>
  <unicode hex="0071"/>
  <anchor x="420.5275" y="0.0" name="bottom"/>
  <anchor x="420.5275" y="982.4875000000001" name="top"/>
  <outline>
    <contour>
      <point x="380.3625" y="-16.53" type="curve" smooth="yes"/>
      <point x="538.5375" y="-16.53"/>
      <point x="628.8525" y="83.375"/>
      <point x="650.575" y="219.67249999999999" type="curve"/>
      <point x="670.9825" y="219.67249999999999" type="line"/>
      <point x="648.6099999999999" y="283.9925" type="line"/>
      <point x="623.2" y="140.4825"/>
      <point x="535.385" y="48.667500000000004"/>
      <point x="402.455" y="48.667500000000004" type="curve" smooth="yes"/>
      <point x="248.70499999999998" y="48.667500000000004"/>
      <point x="173.2275" y="148.65750000000003"/>
      <point x="173.2275" y="334.0525" type="curve" smooth="yes"/>
      <point x="173.2275" y="648.67" type="line" smooth="yes"/>
      <point x="173.2275" y="835.125"/>
      <point x="251.54250000000002" y="934.88"/>
      <point x="401.455" y="934.88" type="curve" smooth="yes"/>
      <point x="539.975" y="934.88"/>
      <point x="637.17" y="842.0350000000001"/>
      <point x="645.7425000000001" y="674.7975" type="curve"/>
      <point x="673.765" y="745.91" type="line"/>
      <point x="651.6049999999999" y="745.91" type="line"/>
      <point x="641.4799999999999" y="894.6899999999999"/>
      <point x="542.96" y="999.0174999999999"/>
      <point x="385.09749999999997" y="999.0174999999999" type="curve" smooth="yes"/>
      <point x="193.7125" y="999.0174999999999"/>
      <point x="96.875" y="875.175"/>
      <point x="96.875" y="644.8275" type="curve" smooth="yes"/>
      <point x="96.875" y="336.6" type="line" smooth="yes"/>
      <point x="96.875" y="106.915"/>
      <point x="192.845" y="-16.53"/>
    </contour>
    <contour>
      <point x="642.9775" y="-347.0" type="line"/>
      <point x="718.9325" y="-347.0" type="line"/>
      <point x="718.9325" y="982.4875000000001" type="line"/>
      <point x="642.4775" y="982.4875000000001" type="line"/>
      <point x="647.6700000000001" y="770.2774999999999" type="line"/>
      <point x="645.7425000000001" y="741.35" type="line"/>
      <point x="645.7425000000001" y="236.79999999999998" type="line"/>
      <point x="647.4775" y="219.33749999999998" type="line"/>
      <point x="642.9775" y="-16.98" type="line"/>
    </contour>
  </outline>
</glyph>
<glyph name="r" format="2">
  <advance width="577.225"/>
  <unicode hex="0072"/>
  <anchor x="167.0275" y="0.0" name="bottom"/>
  <anchor x="325.595" y="982.4875000000001" name="top"/>
  <outline>
    <contour>
      <point x="199.6375" y="639.575" type="line"/>
      <point x="234.415" y="823.26"/>
      <point x="334.8375" y="917.6474999999999"/>
      <point x="465.5975" y="917.6474999999999" type="curve" smooth="yes"/>
      <point x="500.6700000000001" y="917.6474999999999"/>
      <point x="530.375" y="911.6775"/>
      <point x="553.7125000000001" y="903.8399999999999" type="curve"/>
      <point x="548.6225000000001" y="981.0775" type="line"/>
      <point x="528.6525" y="988.15"/>
      <point x="502.30250000000007" y="993.9875"/>
      <point x="469.21750000000003" y="993.9875" type="curve" smooth="yes"/>
      <point x="317.53000000000003" y="993.9875"/>
      <point x="219.51" y="882.16"/>
      <point x="194.2875" y="705.4399999999999" type="curve"/>
      <point x="175.145" y="702.1324999999999" type="line"/>
    </contour>
    <contour>
      <point x="128.05" y="0.0" type="line"/>
      <point x="204.27" y="0.0" type="line"/>
      <point x="204.27" y="705.145" type="line"/>
      <point x="196.4875" y="716.5175" type="line"/>
      <point x="202.68" y="982.4875000000001" type="line"/>
      <point x="128.05" y="982.4875000000001" type="line"/>
    </contour>
  </outline>
</glyph>
<glyph name="s" format="2">
  <advance width="675.9475000000001"/>
  <unicode hex="0073"/>
  <anchor x="334.54" y="0.0" name="bottom"/>
  <anchor x="334.14250000000004" y="982.4875000000001" name="top"/>
  <outline>
    <contour>
      <point x="329.0525" y="-16.662499999999998" type="curve" smooth="yes"/>
      <point x="507.8625" y="-16.662499999999998"/>
      <point x="606.94" y="72.7525"/>
      <point x="606.94" y="230.70250000000001" type="curve" smooth="yes"/>
      <point x="606.94" y="263.625" type="line" smooth="yes"/>
      <point x="606.94" y="406.63000000000005"/>
      <point x="548.4350000000001" y="472.1"/>
      <point x="358.79" y="533.7925" type="curve" smooth="yes"/>
      <point x="196.975" y="586.4975000000001"/>
      <point x="146.4325" y="631.3175"/>
      <point x="146.4325" y="746.64" type="curve" smooth="yes"/>
      <point x="146.4325" y="763.8875" type="line" smooth="yes"/>
      <point x="146.4325" y="869.535"/>
      <point x="207.07250000000002" y="932.4825"/>
      <point x="341.3575" y="932.4825" type="curve" smooth="yes"/>
      <point x="446.49" y="932.4825"/>
      <point x="521.3025" y="897.645"/>
      <point x="589.3625000000001" y="847.9275" type="curve"/>
      <point x="581.345" y="921.065" type="line"/>
      <point x="529.195" y="962.005"/>
      <point x="449.25000000000006" y="998.9150000000001"/>
      <point x="335.6" y="998.9150000000001" type="curve" smooth="yes"/>
      <point x="159.5" y="998.9150000000001"/>
      <point x="71.2725" y="913.8975"/>
      <point x="71.2725" y="765.7425" type="curve" smooth="yes"/>
      <point x="71.2725" y="747.67" type="line" smooth="yes"/>
      <point x="71.2725" y="601.8325"/>
      <point x="131.70000000000002" y="537.8275000000001"/>
      <point x="317.8025" y="477.2375" type="curve" smooth="yes"/>
      <point x="498.35249999999996" y="416.0325"/>
      <point x="531.6474999999999" y="361.08500000000004"/>
      <point x="531.6474999999999" y="260.625" type="curve" smooth="yes"/>
      <point x="531.6474999999999" y="231.63" type="line" smooth="yes"/>
      <point x="531.6474999999999" y="115.5125"/>
      <point x="458.465" y="51.33"/>
      <point x="325.65" y="51.33" type="curve" smooth="yes"/>
      <point x="220.1625" y="51.33"/>
      <point x="138.88" y="86.4625"/>
      <point x="64.79" y="135.74" type="curve"/>
      <point x="72.80749999999999" y="58.05500000000001" type="line"/>
      <point x="126.9875" y="21.482499999999998"/>
      <point x="214.1375" y="-16.662499999999998"/>
    </contour>
  </outline>
</glyph>
<glyph name="t" format="2">
  <advance width="624.6725"/>
  <unicode hex="0074"/>
  <anchor x="367.885" y="0.0" name="bottom"/>
  <anchor x="313.3" y="491.56" name="center"/>
  <anchor x="204.3225" y="1225.085" name="top"/>
  <anchor x="475.94" y="1406.3725" name="topright"/>
  <outline>
    <contour>
      <point x="396.1975" y="-15.030000000000001" type="curve" smooth="yes"/>
      <point x="462.37749999999994" y="-15.030000000000001"/>
      <point x="529.54" y="1.8074999999999997"/>
      <point x="575.4975000000001" y="27.41" type="curve"/>
      <point x="583.015" y="98.8425" type="line"/>
      <point x="531.0325" y="69.9925"/>
      <point x="473.02000000000004" y="54.2875"/>
      <point x="411.47749999999996" y="54.2875" type="curve" smooth="yes"/>
      <point x="287.4275" y="54.2875"/>
      <point x="239.475" y="109.15"/>
      <point x="239.475" y="230.8625" type="curve" smooth="yes"/>
      <point x="239.475" y="935.7475000000001" type="line"/>
      <point x="163.91750000000002" y="935.7475000000001" type="line"/>
      <point x="163.91750000000002" y="219.20749999999998" type="line" smooth="yes"/>
      <point x="163.91750000000002" y="62.902499999999996"/>
      <point x="233.965" y="-15.030000000000001"/>
    </contour>
    <contour>
      <point x="19.145000000000003" y="901.0300000000001" type="line"/>
      <point x="557.485" y="901.0300000000001" type="line"/>
      <point x="565.0024999999999" y="963.9024999999999" type="line"/>
      <point x="19.145000000000003" y="963.9024999999999" type="line"/>
    </contour>
    <contour>
      <point x="164.44750000000002" y="951.5775000000001" type="line"/>
      <point x="237.04749999999999" y="951.5775000000001" type="line"/>
      <point x="241.23999999999998" y="1247.1025" type="line"/>
      <point x="164.315" y="1229.5849999999998" type="line"/>
    </contour>
  </outline>
</glyph>
<glyph name="u" format="2">
  <advance width="844.5425"/>
  <unicode hex="0075"/>
  <anchor x="420.88250000000005" y="0.0" name="bottom"/>
  <anchor x="758.1075" y="0.0" name="ogonek"/>
  <anchor x="420.88250000000005" y="982.4875000000001" name="top"/>
  <anchor x="822.8249999999999" y="982.4875000000001" name="topright"/>
  <outline>
    <contour>
      <point x="193.4325" y="982.4875000000001" type="line"/>
      <point x="117.21249999999999" y="982.4875000000001" type="line"/>
      <point x="117.21249999999999" y="302.8125" type="line" smooth="yes"/>
      <point x="117.21249999999999" y="99.07249999999999"/>
      <point x="191.3025" y="-16.53"/>
      <point x="376.3025" y="-16.53" type="curve" smooth="yes"/>
      <point x="538.4775000000001" y="-16.53"/>
      <point x="626.31" y="83.7425"/>
      <point x="648.0625" y="217.83499999999998" type="curve"/>
      <point x="668.0125" y="217.83499999999998" type="line"/>
      <point x="644.905" y="282.39" type="line"/>
      <point x="620.3625" y="141.585"/>
      <point x="538.15" y="48.667500000000004"/>
      <point x="399.78000000000003" y="48.667500000000004" type="curve" smooth="yes"/>
      <point x="248.86750000000004" y="48.667500000000004"/>
      <point x="193.4325" y="145.08499999999998"/>
      <point x="193.4325" y="310.1125" type="curve" smooth="yes"/>
    </contour>
    <contour>
      <point x="716.4925" y="982.4875000000001" type="line"/>
      <point x="640.2725" y="982.4875000000001" type="line"/>
      <point x="640.2725" y="209.8075" type="line"/>
      <point x="644.965" y="207.29" type="line"/>
      <point x="640.0375" y="0.0" type="line"/>
      <point x="716.4925" y="0.0" type="line"/>
    </contour>
  </outline>
</glyph>
<glyph name="v" format="2">
  <advance width="777.5124999999999"/>
  <unicode hex="0076"/>
  <anchor x="389.19" y="0.0" name="bottom"/>
  <anchor x="389.19" y="982.4875000000001" name="top"/>
  <outline>
    <contour>
      <point x="398.3225" y="57.644999999999996" type="line"/>
      <point x="379.55749999999995" y="57.644999999999996" type="line"/>
      <point x="134.35999999999999" y="982.4875000000001" type="line"/>
      <point x="54.875" y="982.4875000000001" type="line"/>
      <point x="322.34749999999997" y="0.0" type="line"/>
      <point x="455.53249999999997" y="0.0" type="line"/>
      <point x="722.6374999999999" y="982.4875000000001" type="line"/>
      <point x="643.1525" y="982.4875000000001" type="line"/>
    </contour>
  </outline>
</glyph>
<glyph name="w" format="2">
  <advance width="1202.3425000000002"/>
  <unicode hex="0077"/>
  <anchor x="601.2375" y="0.0" name="bottom"/>
  <anchor x="601.2375" y="982.4875000000001" name="top"/>
  <outline>
    <contour>
      <point x="272.8775" y="0.0" type="line"/>
      <point x="401.52750000000003" y="0.0" type="line"/>
      <point x="562.0925" y="729.2625" type="line"/>
      <point x="595.84" y="896.0600000000001" type="line"/>
      <point x="606.4" y="896.0600000000001" type="line"/>
      <point x="640.6475" y="729.63" type="line"/>
      <point x="801.58" y="0.0" type="line"/>
      <point x="929.5975000000001" y="0.0" type="line"/>
      <point x="1137.63" y="982.4875000000001" type="line"/>
      <point x="1059.47" y="982.4875000000001" type="line"/>
      <point x="872.5500000000001" y="59.63250000000001" type="line"/>
      <point x="855.8449999999999" y="59.63250000000001" type="line"/>
      <point x="658.9125" y="954.18" type="line"/>
      <point x="543.6949999999999" y="954.18" type="line"/>
      <point x="347.13" y="59.63250000000001" type="line"/>
      <point x="330.29249999999996" y="59.63250000000001" type="line"/>
      <point x="143.6675" y="982.4875000000001" type="line"/>
      <point x="64.7125" y="982.4875000000001" type="line"/>
    </contour>
  </outline>
</glyph>
<glyph name="x" format="2">
  <advance width="750.65"/>
  <unicode hex="0078"/>
  <anchor x="375.575" y="0.0" name="bottom"/>
  <anchor x="375.575" y="982.4875000000001" name="top"/>
  <outline>
    <contour>
      <point x="60.917500000000004" y="0.0" type="line"/>
      <point x="143.1975" y="0.0" type="line"/>
      <point x="371.045" y="469.51" type="line"/>
      <point x="380.37" y="469.51" type="line"/>
      <point x="607.8199999999999" y="0.0" type="line"/>
      <point x="689.7325" y="0.0" type="line"/>
      <point x="430.1225" y="527.4925" type="line"/>
      <point x="430.1225" y="498.6275" type="line"/>
      <point x="685.1" y="982.4875000000001" type="line"/>
      <point x="603.6875" y="982.4875000000001" type="line"/>
      <point x="380.37" y="549.5625" type="line"/>
      <point x="371.045" y="549.5625" type="line"/>
      <point x="147.33" y="982.4875000000001" type="line"/>
      <point x="65.91749999999999" y="982.4875000000001" type="line"/>
      <point x="320.895" y="498.26" type="line"/>
      <point x="320.895" y="527.125" type="line"/>
    </contour>
  </outline>
</glyph>
<glyph name="y" format="2">
  <advance width="777.5125"/>
  <unicode hex="0079"/>
  <anchor x="551.21" y="-20.485000000000003" name="bottom"/>
  <anchor x="388.955" y="982.4875000000001" name="top"/>
  <outline>
    <contour>
      <point x="427.7825" y="100.9825" type="line"/>
      <point x="378.09999999999997" y="100.9825" type="line"/>
      <point x="134.35999999999999" y="982.4875000000001" type="line"/>
      <point x="54.875" y="982.4875000000001" type="line"/>
      <point x="322.745" y="42.807500000000005" type="line"/>
      <point x="416.70500000000004" y="42.807500000000005" type="line"/>
      <point x="385.1975" y="72.42500000000001" type="line"/>
      <point x="265.9625" y="-347.0" type="line"/>
      <point x="342.6225" y="-347.0" type="line"/>
      <point x="722.6374999999999" y="982.4875000000001" type="line"/>
      <point x="643.4175" y="982.4875000000001" type="line"/>
      <point x="391.01" y="86.81500000000001" type="line"/>
    </contour>
  </outline>
</glyph>
<glyph name="z" format="2">
  <advance width="698.1825"/>
  <unicode hex="007A"/>
  <anchor x="348.40749999999997" y="0.0" name="bottom"/>
  <anchor x="349.775" y="491.56" name="center"/>
  <anchor x="348.40749999999997" y="982.4875000000001" name="top"/>
  <outline>
    <contour>
      <point x="620.2175000000001" y="65.86" type="line"/>
      <point x="161.95499999999998" y="65.86" type="line"/>
      <point x="618.1875" y="922.3075" type="line"/>
      <point x="618.1875" y="982.4875000000001" type="line"/>
      <point x="78.1275" y="982.4875000000001" type="line"/>
      <point x="78.1275" y="917.3924999999999" type="line"/>
      <point x="532.83" y="917.3924999999999" type="line"/>
      <point x="76.73" y="60.94499999999999" type="line"/>
      <point x="76.73" y="0.0" type="line"/>
      <point x="620.2175000000001" y="0.0" type="line"/>
    </contour>
  </outline>
</glyph>
<glyph name="braceleft" format="2">
  <advance width="567.57"/>
  <unicode hex="007B"/>
  <outline>
    <contour>
      <point x="519.5575" y="1331.4275" type="line"/>
      <point x="484.03999999999996" y="1344.4275"/>
      <point x="443.3175" y="1353.295"/>
      <point x="396.05249999999995" y="1353.295" type="curve" smooth="yes"/>
      <point x="262.025" y="1353.295"/>
      <point x="200.16500000000002" y="1282.115"/>
      <point x="200.16500000000002" y="1129.8225" type="curve" smooth="yes"/>
      <point x="200.16500000000002" y="1024.1399999999999"/>
      <point x="214.5325" y="871.1574999999999"/>
      <point x="214.5325" y="780.5475" type="curve" smooth="yes"/>
      <point x="214.5325" y="665.9375"/>
      <point x="182.665" y="607.1775"/>
      <point x="64.025" y="596.2375000000001" type="curve"/>
      <point x="64.025" y="521.3050000000001" type="line"/>
      <point x="182.665" y="509.13"/>
      <point x="214.5325" y="450.7375"/>
      <point x="214.5325" y="335.26" type="curve" smooth="yes"/>
      <point x="214.5325" y="246.51749999999998"/>
      <point x="200.16500000000002" y="90.43249999999999"/>
      <point x="200.16500000000002" y="-18.6175" type="curve" smooth="yes"/>
      <point x="200.16500000000002" y="-170.17499999999998"/>
      <point x="263.1275" y="-241.85500000000002"/>
      <point x="396.05249999999995" y="-241.85500000000002" type="curve" smooth="yes"/>
      <point x="443.3175" y="-241.85500000000002"/>
      <point x="484.03999999999996" y="-232.98749999999998"/>
      <point x="519.5575" y="-219.2525" type="curve"/>
      <point x="519.5575" y="-157.1625" type="line"/>
      <point x="492.1175" y="-168.97000000000003"/>
      <point x="455.13500000000005" y="-178.7775"/>
      <point x="410.14000000000004" y="-178.7775" type="curve" smooth="yes"/>
      <point x="315.74750000000006" y="-178.7775"/>
      <point x="274.8975" y="-128.9575"/>
      <point x="274.8975" y="-12.274999999999997" type="curve" smooth="yes"/>
      <point x="274.8975" y="82.8475"/>
      <point x="288.765" y="237.4025"/>
      <point x="288.765" y="337.9225" type="curve" smooth="yes"/>
      <point x="288.765" y="464.555"/>
      <point x="249.4875" y="541.2475000000001"/>
      <point x="125.10249999999999" y="558.41" type="curve"/>
      <point x="129.59000000000003" y="546.3025" type="line"/>
      <point x="129.59000000000003" y="560.8975" type="line"/>
      <point x="247.62" y="578.7225"/>
      <point x="288.765" y="651.2524999999999"/>
      <point x="288.765" y="777.885" type="curve" smooth="yes"/>
      <point x="288.765" y="876.905"/>
      <point x="274.8975" y="1029.9599999999998"/>
      <point x="274.8975" y="1123.98" type="curve" smooth="yes"/>
      <point x="274.8975" y="1240.1625000000001"/>
      <point x="315.74750000000006" y="1289.9825"/>
      <point x="409.875" y="1289.9825" type="curve" smooth="yes"/>
      <point x="455.00249999999994" y="1289.9825"/>
      <point x="492.1175" y="1280.5425"/>
      <point x="519.5575" y="1268.8674999999998" type="curve"/>
    </contour>
  </outline>
</glyph>
<glyph name="bar" format="2">
  <advance width="402.9425"/>
  <unicode hex="007C"/>
  <outline>
    <contour>
      <point x="236.115" y="-438.72999999999996" type="line"/>
      <point x="236.115" y="1423.5" type="line"/>
      <point x="166.82750000000001" y="1423.5" type="line"/>
      <point x="166.82750000000001" y="-438.72999999999996" type="line"/>
    </contour>
  </outline>
</glyph>
<glyph name="braceright" format="2">
  <advance width="567.57"/>
  <unicode hex="007D"/>
  <outline>
    <contour>
      <point x="48.0125" y="1331.4275" type="curve"/>
      <point x="48.0125" y="1268.8674999999998" type="line"/>
      <point x="75.4525" y="1280.5425"/>
      <point x="112.56750000000001" y="1289.9825"/>
      <point x="157.695" y="1289.9825" type="curve" smooth="yes"/>
      <point x="251.82250000000002" y="1289.9825"/>
      <point x="292.6725" y="1240.1625000000001"/>
      <point x="292.6725" y="1123.98" type="curve" smooth="yes"/>
      <point x="292.6725" y="1029.9599999999998"/>
      <point x="278.805" y="876.905"/>
      <point x="278.805" y="777.885" type="curve" smooth="yes"/>
      <point x="278.805" y="651.2524999999999"/>
      <point x="319.95000000000005" y="578.7225"/>
      <point x="437.98" y="560.8975" type="curve"/>
      <point x="437.98" y="546.3025" type="line"/>
      <point x="442.4675" y="558.41" type="line"/>
      <point x="318.08250000000004" y="541.2475000000001"/>
      <point x="278.805" y="464.555"/>
      <point x="278.805" y="337.9225" type="curve" smooth="yes"/>
      <point x="278.805" y="237.4025"/>
      <point x="292.6725" y="82.8475"/>
      <point x="292.6725" y="-12.274999999999997" type="curve" smooth="yes"/>
      <point x="292.6725" y="-128.9575"/>
      <point x="251.82250000000002" y="-178.7775"/>
      <point x="157.43" y="-178.7775" type="curve" smooth="yes"/>
      <point x="112.435" y="-178.7775"/>
      <point x="75.4525" y="-168.97000000000003"/>
      <point x="48.0125" y="-157.1625" type="curve"/>
      <point x="48.0125" y="-219.2525" type="line"/>
      <point x="83.53" y="-232.98749999999998"/>
      <point x="124.2525" y="-241.85500000000002"/>
      <point x="171.5175" y="-241.85500000000002" type="curve" smooth="yes"/>
      <point x="304.4425" y="-241.85500000000002"/>
      <point x="367.405" y="-170.17499999999998"/>
      <point x="367.405" y="-18.6175" type="curve" smooth="yes"/>
      <point x="367.405" y="90.43249999999999"/>
      <point x="353.0375" y="246.51749999999998"/>
      <point x="353.0375" y="335.26" type="curve" smooth="yes"/>
      <point x="353.0375" y="450.7375"/>
      <point x="384.90500000000003" y="509.13"/>
      <point x="503.545" y="521.3050000000001" type="curve"/>
      <point x="503.545" y="596.2375000000001" type="line"/>
      <point x="384.90500000000003" y="607.1775"/>
      <point x="353.0375" y="665.9375"/>
      <point x="353.0375" y="780.5475" type="curve" smooth="yes"/>
      <point x="353.0375" y="871.1574999999999"/>
      <point x="367.405" y="1024.1399999999999"/>
      <point x="367.405" y="1129.8225" type="curve" smooth="yes"/>
      <point x="367.405" y="1282.115"/>
      <point x="305.545" y="1353.295"/>
      <point x="171.5175" y="1353.295" type="curve" smooth="yes"/>
      <point x="124.2525" y="1353.295"/>
      <point x="83.53" y="1344.4275"/>
    </contour>
  </outline>
</glyph>
<glyph name="asciitilde" format="2">
  <advance width="908.3950000000001"/>
  <unicode hex="007E"/>
  <outline>
    <contour>
      <point x="628.9625" y="517.905" type="curve" smooth="yes"/>
      <point x="735.1525" y="517.905"/>
      <point x="782.17" y="578.15"/>
      <point x="782.17" y="693.515" type="curve" smooth="yes"/>
      <point x="782.17" y="720.49" type="line"/>
      <point x="720.375" y="720.49" type="line"/>
      <point x="720.375" y="700.785" type="line" smooth="yes"/>
      <point x="720.375" y="623.41"/>
      <point x="691.615" y="583.8975"/>
      <point x="626.2225000000001" y="583.8975" type="curve" smooth="yes"/>
      <point x="519.215" y="583.8975"/>
      <point x="404.22749999999996" y="701.1525"/>
      <point x="279.6675" y="701.1525" type="curve" smooth="yes"/>
      <point x="172.97750000000002" y="701.1525"/>
      <point x="126.09249999999999" y="639.98"/>
      <point x="126.09249999999999" y="523.675" type="curve" smooth="yes"/>
      <point x="126.09249999999999" y="497.09749999999997" type="line"/>
      <point x="186.65249999999997" y="497.09749999999997" type="line"/>
      <point x="186.65249999999997" y="517.0074999999999" type="line" smooth="yes"/>
      <point x="186.65249999999997" y="594.72"/>
      <point x="216.4125" y="635.395"/>
      <point x="281.90749999999997" y="635.395" type="curve" smooth="yes"/>
      <point x="388.97499999999997" y="635.395"/>
      <point x="501.22749999999996" y="517.905"/>
    </contour>
  </outline>
</glyph>
<glyph name="exclamdown" format="2">
  <advance width="381.0025"/>
  <unicode hex="00A1"/>
  <outline>
    <contour>
      <point x="221.35" y="614.2425" type="line"/>
      <point x="159.6525" y="614.2425" type="line"/>
      <point x="149.1475" y="-295.5125" type="line"/>
      <point x="231.48749999999998" y="-295.5125" type="line"/>
    </contour>
    <contour>
      <point x="190.21499999999997" y="995.3725000000001" type="curve" smooth="yes"/>
      <point x="152.495" y="995.3725000000001"/>
      <point x="135.665" y="970.115"/>
      <point x="135.665" y="920.4125" type="curve" smooth="yes"/>
      <point x="135.665" y="907.28" type="line" smooth="yes"/>
      <point x="135.665" y="858.5775"/>
      <point x="152.495" y="833.32"/>
      <point x="190.21499999999997" y="833.32" type="curve" smooth="yes"/>
      <point x="228.14" y="833.32"/>
      <point x="245.86750000000004" y="858.5775"/>
      <point x="245.86750000000004" y="907.28" type="curve" smooth="yes"/>
      <point x="245.86750000000004" y="920.4125" type="line" smooth="yes"/>
      <point x="245.86750000000004" y="970.115"/>
      <point x="228.14" y="995.3725000000001"/>
    </contour>
  </outline>
</glyph>
<glyph name="cent" format="2">
  <advance width="674.3100000000001"/>
  <unicode hex="00A2"/>
  <anchor x="375.1125" y="0.0" name="bottom"/>
  <anchor x="375.1125" y="982.4875000000001" name="top"/>
  <outline>
    <contour>
      <point x="417.06" y="964.8100000000001" type="line"/>
      <point x="417.06" y="1178.41" type="line"/>
      <point x="349.2" y="1178.41" type="line"/>
      <point x="349.2" y="964.8100000000001" type="line"/>
    </contour>
    <contour>
      <point x="417.06" y="-203.32" type="line"/>
      <point x="417.06" y="19.8275" type="line"/>
      <point x="349.2" y="19.8275" type="line"/>
      <point x="349.2" y="-203.32" type="line"/>
    </contour>
    <component base="c"/>
  </outline>
</glyph>
<glyph name="sterling" format="2">
  <advance width="831.455"/>
  <unicode hex="00A3"/>
  <outline>
    <contour>
      <point x="74.29" y="624.6475" type="line"/>
      <point x="679.9599999999999" y="624.6475" type="line"/>
      <point x="687.02" y="688.3275" type="line"/>
      <point x="81.35" y="688.3275" type="line"/>
    </contour>
    <contour>
      <point x="170.2875" y="69.45" type="line"/>
      <point x="173.9625" y="69.7325" type="line"/>
      <point x="275.975" y="137.24"/>
      <point x="321.89" y="250.01999999999998"/>
      <point x="321.89" y="425.3025" type="curve" smooth="yes"/>
      <point x="321.89" y="603.7700000000001"/>
      <point x="264.58250000000004" y="800.205"/>
      <point x="264.58250000000004" y="974.515" type="curve" smooth="yes"/>
      <point x="264.58250000000004" y="1141.4275"/>
      <point x="341.4875" y="1225.64"/>
      <point x="499.42249999999996" y="1225.64" type="curve" smooth="yes"/>
      <point x="576.3025" y="1225.64"/>
      <point x="648.7125000000001" y="1210.435"/>
      <point x="721.8875" y="1177.29" type="curve"/>
      <point x="714.5025" y="1248.385" type="line"/>
      <point x="657.25" y="1274.7525"/>
      <point x="573.4250000000001" y="1295.8249999999998"/>
      <point x="489.2325" y="1295.8249999999998" type="curve" smooth="yes"/>
      <point x="280.64500000000004" y="1295.8249999999998"/>
      <point x="184.64" y="1189.3374999999999"/>
      <point x="184.64" y="980.5075" type="curve" smooth="yes"/>
      <point x="184.64" y="795.9024999999999"/>
      <point x="243.2125" y="608.185"/>
      <point x="242.7125" y="422.31499999999994" type="curve" smooth="yes"/>
      <point x="242.345" y="243.23"/>
      <point x="200.0675" y="130.83"/>
      <point x="92.145" y="68.95" type="curve" smooth="yes"/>
      <point x="78.2475" y="64.95" type="line"/>
      <point x="78.2475" y="0.0" type="line"/>
      <point x="765.3275" y="0.0" type="line"/>
      <point x="765.3275" y="69.45" type="line"/>
    </contour>
  </outline>
</glyph>
<glyph name="currency" format="2">
  <advance width="803.835"/>
  <unicode hex="00A4"/>
  <outline>
    <contour>
      <point x="401.785" y="271.375" type="curve" smooth="yes"/>
      <point x="578.445" y="271.375"/>
      <point x="675.4799999999999" y="378.4825"/>
      <point x="675.4799999999999" y="577.3425" type="curve" smooth="yes"/>
      <point x="675.4799999999999" y="659.6575" type="line" smooth="yes"/>
      <point x="675.4799999999999" y="857.885"/>
      <point x="578.945" y="964.625"/>
      <point x="402.285" y="964.625" type="curve" smooth="yes"/>
      <point x="225.62499999999997" y="964.625"/>
      <point x="128.59" y="857.885"/>
      <point x="128.59" y="659.6575" type="curve" smooth="yes"/>
      <point x="128.59" y="577.3425" type="line" smooth="yes"/>
      <point x="128.59" y="378.4825"/>
      <point x="225.12499999999997" y="271.375"/>
    </contour>
    <contour>
      <point x="402.285" y="332.70000000000005" type="curve" smooth="yes"/>
      <point x="269.885" y="332.70000000000005"/>
      <point x="199.37750000000003" y="416.81"/>
      <point x="199.37750000000003" y="576.15" type="curve" smooth="yes"/>
      <point x="199.37750000000003" y="660.8499999999999" type="line" smooth="yes"/>
      <point x="199.37750000000003" y="819.8225"/>
      <point x="269.885" y="903.4325"/>
      <point x="402.285" y="903.4325" type="curve" smooth="yes"/>
      <point x="533.8175" y="903.4325"/>
      <point x="604.2950000000001" y="819.6899999999999"/>
      <point x="604.4275" y="660.8499999999999" type="curve" smooth="yes"/>
      <point x="604.6925" y="576.15" type="line" smooth="yes"/>
      <point x="604.825" y="416.81"/>
      <point x="533.8175" y="332.70000000000005"/>
    </contour>
    <contour>
      <point x="594.9925000000001" y="378.32750000000004" type="line"/>
      <point x="548.0875" y="335.7475" type="line"/>
      <point x="691.2425" y="145.375" type="line"/>
      <point x="740.4725000000001" y="182.7625" type="line"/>
    </contour>
    <contour>
      <point x="257.27750000000003" y="339.0125" type="line"/>
      <point x="211.3425" y="381.165" type="line"/>
      <point x="63.495000000000005" y="182.7625" type="line"/>
      <point x="112.96" y="145.375" type="line"/>
    </contour>
    <contour>
      <point x="207.5175" y="857.9675000000001" type="line"/>
      <point x="255.4825" y="897.12" type="line"/>
      <point x="112.09249999999999" y="1088.8300000000002" type="line"/>
      <point x="63.495000000000005" y="1051.81" type="line"/>
    </contour>
    <contour>
      <point x="546.2925" y="894.295" type="line"/>
      <point x="593.4325" y="853.1850000000001" type="line"/>
      <point x="740.2075" y="1051.81" type="line"/>
      <point x="691.61" y="1088.8300000000002" type="line"/>
    </contour>
  </outline>
</glyph>
<glyph name="yen" format="2">
  <advance width="883.8149999999999"/>
  <unicode hex="00A5"/>
  <anchor x="438.56999999999994" y="0.0" name="bottom"/>
  <anchor x="438.56999999999994" y="1278.0" name="top"/>
  <anchor x="44.025" y="1278.0" name="topleft"/>
  <outline>
    <contour>
      <point x="507.5825" y="583.0825" type="line"/>
      <point x="768.4225" y="583.0825" type="line"/>
      <point x="776.2475" y="644.63" type="line"/>
      <point x="526.455" y="644.63" type="line"/>
    </contour>
    <contour>
      <point x="117.42249999999999" y="335.695" type="line"/>
      <point x="109.23" y="274.6775" type="line"/>
      <point x="768.4225" y="274.6775" type="line"/>
      <point x="776.2475" y="335.695" type="line"/>
    </contour>
    <contour>
      <point x="352.4025" y="644.63" type="line"/>
      <point x="117.42249999999999" y="644.63" type="line"/>
      <point x="109.23" y="583.0825" type="line"/>
      <point x="372.77500000000003" y="583.0825" type="line"/>
    </contour>
    <component base="Y" xOffset="21.82"/>
  </outline>
</glyph>
<glyph name="brokenbar" format="2">
  <advance width="402.9425"/>
  <unicode hex="00A6"/>
  <outline>
    <contour>
      <point x="236.115" y="591.9825" type="line"/>
      <point x="236.115" y="1423.5" type="line"/>
      <point x="166.82750000000001" y="1423.5" type="line"/>
      <point x="166.82750000000001" y="591.9825" type="line"/>
    </contour>
    <contour>
      <point x="236.115" y="-438.72999999999996" type="line"/>
      <point x="236.115" y="394.45" type="line"/>
      <point x="166.82750000000001" y="394.45" type="line"/>
      <point x="166.82750000000001" y="-438.72999999999996" type="line"/>
    </contour>
  </outline>
</glyph>
<glyph name="section" format="2">
  <advance width="743.7075"/>
  <unicode hex="00A7"/>
  <outline>
    <contour>
      <point x="425.56499999999994" y="363.02000000000004" type="curve"/>
      <point x="482.145" y="327.08250000000004" type="line"/>
      <point x="482.0125" y="347.8825" type="line"/>
      <point x="580.85" y="375.4125"/>
      <point x="638.26" y="449.63500000000005"/>
      <point x="638.26" y="558.7925" type="curve" smooth="yes"/>
      <point x="638.26" y="599.15" type="line" smooth="yes"/>
      <point x="638.26" y="738.2574999999999"/>
      <point x="577.5324999999999" y="802.1075"/>
      <point x="388.55" y="866.2275000000001" type="curve" smooth="yes"/>
      <point x="229.08999999999997" y="919.535"/>
      <point x="178.945" y="962.5600000000001"/>
      <point x="178.945" y="1062.0325" type="curve" smooth="yes"/>
      <point x="178.945" y="1074.37" type="line" smooth="yes"/>
      <point x="178.945" y="1173.0475"/>
      <point x="239.82" y="1229.29"/>
      <point x="373.34000000000003" y="1229.29" type="curve" smooth="yes"/>
      <point x="478.60499999999996" y="1229.29"/>
      <point x="553.6825" y="1194.4524999999999"/>
      <point x="620.815" y="1144.6025" type="curve"/>
      <point x="612.7975" y="1217.3425" type="line"/>
      <point x="560.78" y="1258.0175"/>
      <point x="480.7025" y="1295.3249999999998"/>
      <point x="366.65500000000003" y="1295.3249999999998" type="curve" smooth="yes"/>
      <point x="192.11499999999998" y="1295.3249999999998"/>
      <point x="103.65249999999999" y="1216.8799999999999"/>
      <point x="103.65249999999999" y="1076.0925000000002" type="curve" smooth="yes"/>
      <point x="103.65249999999999" y="1063.725" type="line" smooth="yes"/>
      <point x="103.65249999999999" y="934.3874999999999"/>
      <point x="165.9175" y="872.16"/>
      <point x="350.875" y="810.1724999999999" type="curve" smooth="yes"/>
      <point x="530.1" y="748.7925"/>
      <point x="565.3525" y="692.875"/>
      <point x="565.3525" y="588.465" type="curve" smooth="yes"/>
      <point x="565.3525" y="547.1325" type="line" smooth="yes"/>
      <point x="565.3525" y="459.925"/>
      <point x="523.4175" y="391.5625"/>
    </contour>
    <contour>
      <point x="315.5825" y="831.1675" type="curve"/>
      <point x="259.53249999999997" y="865.075" type="line"/>
      <point x="259.7975" y="845.3775" type="line"/>
      <point x="160.13500000000002" y="816.125"/>
      <point x="103.785" y="744.2875"/>
      <point x="103.785" y="634.7325000000001" type="curve" smooth="yes"/>
      <point x="103.785" y="598.2725" type="line" smooth="yes"/>
      <point x="103.785" y="457.7"/>
      <point x="166.06750000000002" y="391.3325"/>
      <point x="351.7725" y="327.59250000000003" type="curve" smooth="yes"/>
      <point x="526.0525" y="268.815"/>
      <point x="563.0999999999999" y="221.01250000000002"/>
      <point x="563.0999999999999" y="123.39" type="curve" smooth="yes"/>
      <point x="563.0999999999999" y="108.48" type="line" smooth="yes"/>
      <point x="563.0999999999999" y="-0.5475000000000021"/>
      <point x="490.78499999999997" y="-62.8925"/>
      <point x="357.3675" y="-62.8925" type="curve" smooth="yes"/>
      <point x="251.4825" y="-62.8925"/>
      <point x="169.43499999999997" y="-27.76"/>
      <point x="96.67" y="21.38500000000001" type="curve"/>
      <point x="104.55499999999999" y="-55.239999999999995" type="line"/>
      <point x="158.6025" y="-92.0775"/>
      <point x="246.11999999999998" y="-130.48749999999998"/>
      <point x="361.03499999999997" y="-130.48749999999998" type="curve" smooth="yes"/>
      <point x="540.1825" y="-130.48749999999998"/>
      <point x="638.26" y="-43.97"/>
      <point x="638.26" y="106.75750000000001" type="curve" smooth="yes"/>
      <point x="638.26" y="124.46249999999999" type="line" smooth="yes"/>
      <point x="638.26" y="258.08250000000004"/>
      <point x="579.845" y="319.305"/>
      <point x="390.77250000000004" y="382.8525" type="curve" smooth="yes"/>
      <point x="227.1325" y="437.78"/>
      <point x="176.69250000000002" y="488.54"/>
      <point x="176.69250000000002" y="607.7825" type="curve" smooth="yes"/>
      <point x="176.69250000000002" y="647.3199999999999" type="line"/>
      <point x="176.69250000000002" y="735.72"/>
      <point x="218.8925" y="802.625"/>
    </contour>
  </outline>
</glyph>
<glyph name="copyright" format="2">
  <advance width="1215.84"/>
  <unicode hex="00A9"/>
  <outline>
    <contour>
      <point x="607.92" y="-17.9575" type="curve" smooth="yes"/>
      <point x="925.695" y="-17.9575"/>
      <point x="1109.0975" y="167.9875"/>
      <point x="1109.0975" y="487.425" type="curve" smooth="yes"/>
      <point x="1109.0975" y="790.635" type="line" smooth="yes"/>
      <point x="1109.0975" y="1110.0425"/>
      <point x="925.695" y="1295.9575"/>
      <point x="607.92" y="1295.9575" type="curve" smooth="yes"/>
      <point x="289.88" y="1295.9575"/>
      <point x="106.74249999999999" y="1110.0425"/>
      <point x="106.74249999999999" y="790.635" type="curve" smooth="yes"/>
      <point x="106.74249999999999" y="487.425" type="line" smooth="yes"/>
      <point x="106.74249999999999" y="167.9875"/>
      <point x="289.88" y="-17.9575"/>
    </contour>
    <contour>
      <point x="634.4975000000001" y="310.83750000000003" type="curve" smooth="yes"/>
      <point x="708.04" y="310.83750000000003"/>
      <point x="759.9675" y="336.71750000000003"/>
      <point x="791.7624999999999" y="365.76" type="curve"/>
      <point x="797.22" y="425.63500000000005" type="line"/>
      <point x="758.6475" y="392.05"/>
      <point x="711.9725000000001" y="365.935"/>
      <point x="644.0500000000001" y="365.935" type="curve" smooth="yes"/>
      <point x="533.38" y="365.935"/>
      <point x="483.6325" y="437.23749999999995"/>
      <point x="483.6325" y="564.005" type="curve" smooth="yes"/>
      <point x="483.6325" y="717.29" type="line" smooth="yes"/>
      <point x="483.6325" y="844.0575"/>
      <point x="532.82" y="914.4925"/>
      <point x="641.755" y="914.4925" type="curve" smooth="yes"/>
      <point x="709.2075" y="914.4925"/>
      <point x="755.6175" y="888.8774999999999"/>
      <point x="793.69" y="855.66" type="curve"/>
      <point x="787.7325" y="914.77" type="line"/>
      <point x="757.1725" y="942.6800000000001"/>
      <point x="705.9074999999999" y="968.9274999999999"/>
      <point x="634.9675000000001" y="968.9274999999999" type="curve" smooth="yes"/>
      <point x="490.23999999999995" y="968.9274999999999"/>
      <point x="422.6925" y="877.8075"/>
      <point x="422.6925" y="716.26" type="curve" smooth="yes"/>
      <point x="422.6925" y="562.9025" type="line" smooth="yes"/>
      <point x="422.6925" y="401.09"/>
      <point x="489.73999999999995" y="310.83750000000003"/>
    </contour>
    <contour>
      <point x="607.92" y="35.050000000000004" type="curve" smooth="yes"/>
      <point x="328.7075" y="35.050000000000004"/>
      <point x="166.85750000000002" y="200.54500000000002"/>
      <point x="166.85750000000002" y="483.87750000000005" type="curve" smooth="yes"/>
      <point x="166.85750000000002" y="795.05" type="line" smooth="yes"/>
      <point x="166.85750000000002" y="1077.8525"/>
      <point x="328.7075" y="1242.95"/>
      <point x="607.92" y="1242.95" type="curve" smooth="yes"/>
      <point x="886.8675" y="1242.95"/>
      <point x="1048.9824999999998" y="1077.8525"/>
      <point x="1048.9824999999998" y="795.05" type="curve" smooth="yes"/>
      <point x="1048.9824999999998" y="483.87750000000005" type="line" smooth="yes"/>
      <point x="1048.9824999999998" y="200.54500000000002"/>
      <point x="886.8675" y="35.050000000000004"/>
    </contour>
  </outline>
</glyph>
<glyph name="ordfeminine" format="2">
  <advance width="531.51"/>
  <unicode hex="00AA"/>
  <outline>
    <contour>
      <point x="380.6225" y="641.3675000000001" type="line"/>
      <point x="441.0625" y="641.3675000000001" type="line"/>
      <point x="441.0625" y="1088.5800000000002" type="line" smooth="yes"/>
      <point x="441.0625" y="1216.5675"/>
      <point x="387.93" y="1289.8975"/>
      <point x="260.3125" y="1289.8975" type="curve" smooth="yes"/>
      <point x="185.385" y="1289.8975"/>
      <point x="125.03000000000002" y="1262.2225"/>
      <point x="85.38000000000001" y="1232.7525" type="curve"/>
      <point x="80.26" y="1175.3174999999999" type="line"/>
      <point x="125.51249999999999" y="1208.9925"/>
      <point x="186.27749999999997" y="1236.9625"/>
      <point x="253.2775" y="1236.9625" type="curve" smooth="yes"/>
      <point x="345.5675" y="1236.9625"/>
      <point x="381.55" y="1182.1599999999999"/>
      <point x="381.55" y="1088.875" type="curve"/>
      <point x="381.55" y="1019.85" type="line"/>
      <point x="381.55" y="779.325" type="line"/>
      <point x="384.4175" y="776.1325" type="line"/>
    </contour>
    <contour>
      <point x="220.67000000000002" y="630.6025000000001" type="curve" smooth="yes"/>
      <point x="325.225" y="630.6025000000001"/>
      <point x="375.955" y="694.905"/>
      <point x="387.7075" y="775.605" type="curve"/>
      <point x="400.52000000000004" y="775.605" type="line"/>
      <point x="383.55" y="818.5775000000001" type="line"/>
      <point x="370.315" y="742.3525"/>
      <point x="321.36249999999995" y="683.0375"/>
      <point x="238.66749999999996" y="683.0375" type="curve" smooth="yes"/>
      <point x="157.84" y="683.0375"/>
      <point x="125.04999999999998" y="731.3100000000001"/>
      <point x="125.04999999999998" y="802.83" type="curve" smooth="yes"/>
      <point x="125.04999999999998" y="832.6075" type="line" smooth="yes"/>
      <point x="125.04999999999998" y="903.585"/>
      <point x="154.9" y="940.9475"/>
      <point x="247.535" y="961.9300000000001" type="curve" smooth="yes"/>
      <point x="397.73" y="995.28" type="line"/>
      <point x="393.11" y="1044.0049999999999" type="line"/>
      <point x="233.41" y="1007.89" type="line" smooth="yes"/>
      <point x="108.025" y="979.0225"/>
      <point x="65.0075" y="925.89"/>
      <point x="65.0075" y="830.15" type="curve" smooth="yes"/>
      <point x="65.0075" y="797.8125" type="line" smooth="yes"/>
      <point x="65.0075" y="689.6925"/>
      <point x="118.00750000000001" y="630.6025000000001"/>
    </contour>
  </outline>
</glyph>
<glyph name="logicalnot" format="2">
  <advance width="841.975"/>
  <unicode hex="00AC"/>
  <outline>
    <contour>
      <point x="722.75" y="261.585" type="line"/>
      <point x="722.75" y="633.3425" type="line"/>
      <point x="655.0224999999999" y="633.3425" type="line"/>
      <point x="655.0224999999999" y="261.585" type="line"/>
    </contour>
    <contour>
      <point x="87.1875" y="597.9675" type="line"/>
      <point x="722.75" y="597.9675" type="line"/>
      <point x="722.75" y="662.605" type="line"/>
      <point x="87.1875" y="662.605" type="line"/>
    </contour>
  </outline>
</glyph>
<glyph name="registered" format="2">
  <advance width="709.9675"/>
  <unicode hex="00AE"/>
  <outline>
    <contour>
      <point x="355.16749999999996" y="570.4000000000001" type="curve" smooth="yes"/>
      <point x="534.6175000000001" y="570.4000000000001"/>
      <point x="632.0925" y="675.6999999999999"/>
      <point x="632.0925" y="860.91" type="curve" smooth="yes"/>
      <point x="632.0925" y="1001.815" type="line" smooth="yes"/>
      <point x="632.0925" y="1188.1275"/>
      <point x="534.6175000000001" y="1292.1925"/>
      <point x="355.16749999999996" y="1292.1925" type="curve" smooth="yes"/>
      <point x="175.585" y="1292.1925"/>
      <point x="78.24249999999999" y="1187.9950000000001"/>
      <point x="78.24249999999999" y="1001.815" type="curve" smooth="yes"/>
      <point x="78.24249999999999" y="860.91" type="line" smooth="yes"/>
      <point x="78.24249999999999" y="675.6999999999999"/>
      <point x="175.585" y="570.4000000000001"/>
    </contour>
    <contour>
      <point x="355.16749999999996" y="612.03" type="curve" smooth="yes"/>
      <point x="202.065" y="612.03"/>
      <point x="124.4925" y="695.795"/>
      <point x="124.4925" y="859.7175" type="curve" smooth="yes"/>
      <point x="124.4925" y="1003.2725" type="line" smooth="yes"/>
      <point x="124.4925" y="1166.43"/>
      <point x="202.065" y="1250.1950000000002"/>
      <point x="355.16749999999996" y="1250.1950000000002" type="curve" smooth="yes"/>
      <point x="508.005" y="1250.1950000000002"/>
      <point x="585.71" y="1166.43"/>
      <point x="585.71" y="1003.2725" type="curve" smooth="yes"/>
      <point x="585.71" y="859.7175" type="line" smooth="yes"/>
      <point x="585.71" y="695.795"/>
      <point x="508.005" y="612.03"/>
    </contour>
    <contour>
      <point x="434.8375" y="739.2175" type="line"/>
      <point x="479.865" y="739.2175" type="line"/>
      <point x="466.5275" y="821.1274999999999" type="line" smooth="yes"/>
      <point x="455.92499999999995" y="887.465"/>
      <point x="439.42499999999995" y="917.055"/>
      <point x="386.4675" y="922.9225" type="curve"/>
      <point x="391.8825" y="914.79" type="line"/>
      <point x="396.2925" y="920.7475000000001" type="line"/>
      <point x="452.57000000000005" y="925.7475"/>
      <point x="472.36500000000007" y="959.9225"/>
      <point x="472.36500000000007" y="1006.7175" type="curve" smooth="yes"/>
      <point x="472.36500000000007" y="1028.8025000000002" type="line" smooth="yes"/>
      <point x="472.36500000000007" y="1095.26"/>
      <point x="439.775" y="1128.32"/>
      <point x="370.535" y="1128.32" type="curve" smooth="yes"/>
      <point x="286.185" y="1128.32" type="line"/>
      <point x="286.185" y="1090.545" type="line"/>
      <point x="368.21000000000004" y="1090.545" type="line" smooth="yes"/>
      <point x="413.735" y="1090.545"/>
      <point x="428.47" y="1063.3274999999999"/>
      <point x="428.47" y="1024.1525000000001" type="curve" smooth="yes"/>
      <point x="428.47" y="1001.3325" type="line" smooth="yes"/>
      <point x="428.47" y="958.3199999999999"/>
      <point x="410.295" y="935.0424999999999"/>
      <point x="365.8425" y="934.91" type="curve" smooth="yes"/>
      <point x="288.7875" y="934.7774999999999" type="line"/>
      <point x="288.7875" y="897.2674999999999" type="line"/>
      <point x="355.3725" y="897.2674999999999" type="line" smooth="yes"/>
      <point x="395.0475" y="897.2674999999999"/>
      <point x="414.55999999999995" y="881.37"/>
      <point x="423.6325" y="818.0374999999999" type="curve" smooth="yes"/>
    </contour>
    <contour>
      <point x="257.205" y="739.2175" type="line"/>
      <point x="300.96750000000003" y="739.2175" type="line"/>
      <point x="300.96750000000003" y="907.3875" type="line"/>
      <point x="300.96750000000003" y="922.965" type="line"/>
      <point x="300.96750000000003" y="1128.32" type="line"/>
      <point x="257.205" y="1128.32" type="line"/>
    </contour>
  </outline>
</glyph>
<glyph name="degree" format="2">
  <advance width="562.92"/>
  <unicode hex="00B0"/>
  <outline>
    <contour>
      <point x="281.3425" y="828.4125" type="curve" smooth="yes"/>
      <point x="405.895" y="828.4125"/>
      <point x="475.73749999999995" y="913.135"/>
      <point x="475.73749999999995" y="1055.905" type="curve" smooth="yes"/>
      <point x="475.73749999999995" y="1069.0975" type="line" smooth="yes"/>
      <point x="475.73749999999995" y="1211.735"/>
      <point x="405.895" y="1296.09"/>
      <point x="281.3425" y="1296.09" type="curve" smooth="yes"/>
      <point x="157.025" y="1296.09"/>
      <point x="87.18249999999999" y="1211.735"/>
      <point x="87.18249999999999" y="1069.0975" type="curve" smooth="yes"/>
      <point x="87.18249999999999" y="1055.905" type="line" smooth="yes"/>
      <point x="87.18249999999999" y="913.5024999999999"/>
      <point x="157.025" y="828.4125"/>
    </contour>
    <contour>
      <point x="281.3425" y="884.4975000000001" type="curve" smooth="yes"/>
      <point x="195.985" y="884.4975000000001"/>
      <point x="149.7125" y="947.975"/>
      <point x="149.7125" y="1054.5375000000001" type="curve" smooth="yes"/>
      <point x="149.7125" y="1070.3325" type="line" smooth="yes"/>
      <point x="149.7125" y="1176.7624999999998"/>
      <point x="195.6175" y="1240.0049999999999"/>
      <point x="281.3425" y="1240.0049999999999" type="curve" smooth="yes"/>
      <point x="367.56750000000005" y="1240.0049999999999"/>
      <point x="412.84" y="1176.7624999999998"/>
      <point x="412.84" y="1070.3325" type="curve" smooth="yes"/>
      <point x="412.84" y="1054.5375000000001" type="line" smooth="yes"/>
      <point x="412.84" y="947.6075"/>
      <point x="367.56750000000005" y="884.4975000000001"/>
    </contour>
  </outline>
</glyph>
<glyph name="plusminus" format="2">
  <advance width="848.9024999999999"/>
  <unicode hex="00B1"/>
  <outline>
    <contour>
      <point x="106.80249999999998" y="218.095" type="line"/>
      <point x="742.1" y="218.095" type="line"/>
      <point x="742.1" y="281.57" type="line"/>
      <point x="106.80249999999998" y="281.57" type="line"/>
    </contour>
    <contour>
      <point x="458.31500000000005" y="418.85499999999996" type="line"/>
      <point x="458.31500000000005" y="1032.155" type="line"/>
      <point x="390.22" y="1032.155" type="line"/>
      <point x="390.22" y="418.85499999999996" type="line"/>
    </contour>
    <contour>
      <point x="106.80249999999998" y="693.635" type="line"/>
      <point x="742.1" y="693.635" type="line"/>
      <point x="742.1" y="757.375" type="line"/>
      <point x="106.80249999999998" y="757.375" type="line"/>
    </contour>
  </outline>
</glyph>
<glyph name="twosuperior" format="2">
  <advance width="453.9075"/>
  <unicode hex="00B2"/>
  <outline>
    <contour>
      <point x="39.08500000000001" y="712.6324999999999" type="line"/>
      <point x="407.88249999999994" y="712.6324999999999" type="line"/>
      <point x="407.88249999999994" y="765.6275" type="line"/>
      <point x="83.435" y="765.6275" type="line"/>
      <point x="108.53500000000001" y="751.8449999999999" type="line"/>
      <point x="108.53500000000001" y="769.79" type="line"/>
      <point x="239.3625" y="917.4675" type="line" smooth="yes"/>
      <point x="346.03249999999997" y="1043.735"/>
      <point x="398.575" y="1113.6025"/>
      <point x="398.575" y="1214.115" type="curve" smooth="yes"/>
      <point x="398.575" y="1229.085" type="line" smooth="yes"/>
      <point x="398.575" y="1340.2775"/>
      <point x="337.83500000000004" y="1403.1924999999999"/>
      <point x="217.91500000000002" y="1403.1924999999999" type="curve" smooth="yes"/>
      <point x="151.12" y="1403.1924999999999"/>
      <point x="89.9275" y="1378.0774999999999"/>
      <point x="53.44" y="1353.1075" type="curve"/>
      <point x="47.7175" y="1296.51" type="line"/>
      <point x="95.495" y="1325.9625"/>
      <point x="148.2" y="1349.1675"/>
      <point x="210.5975" y="1349.1675" type="curve" smooth="yes"/>
      <point x="295.285" y="1349.1675"/>
      <point x="336.78" y="1306.01"/>
      <point x="336.78" y="1223.4475" type="curve" smooth="yes"/>
      <point x="336.78" y="1209.9050000000002" type="line" smooth="yes"/>
      <point x="336.78" y="1122.8125"/>
      <point x="290.5025" y="1060.9625"/>
      <point x="192.98250000000002" y="945.9175" type="curve" smooth="yes"/>
      <point x="39.08500000000001" y="771.965" type="line"/>
    </contour>
  </outline>
</glyph>
<glyph name="threesuperior" format="2">
  <advance width="469.04"/>
  <unicode hex="00B3"/>
  <outline>
    <contour>
      <point x="211.2525" y="701.2049999999999" type="curve" smooth="yes"/>
      <point x="364.7875" y="701.2049999999999"/>
      <point x="413.28" y="784.91"/>
      <point x="413.28" y="877.1075" type="curve" smooth="yes"/>
      <point x="413.28" y="917.3074999999999" type="line" smooth="yes"/>
      <point x="413.28" y="1004.1324999999999"/>
      <point x="373.4125" y="1059.7475"/>
      <point x="278.8275" y="1067.0" type="curve"/>
      <point x="277.845" y="1062.115" type="line"/>
      <point x="280.4175" y="1066.7225" type="line"/>
      <point x="373.78000000000003" y="1074.6074999999998"/>
      <point x="408.04499999999996" y="1134.795"/>
      <point x="408.04499999999996" y="1209.855" type="curve" smooth="yes"/>
      <point x="408.04499999999996" y="1241.615" type="line" smooth="yes"/>
      <point x="408.04499999999996" y="1342.53"/>
      <point x="351.40749999999997" y="1402.6924999999999"/>
      <point x="218.70999999999998" y="1402.6924999999999" type="curve" smooth="yes"/>
      <point x="142.3125" y="1402.6924999999999"/>
      <point x="84.59" y="1380.7525"/>
      <point x="49.93999999999999" y="1358.12" type="curve"/>
      <point x="43.9525" y="1303.3775" type="line"/>
      <point x="85.08500000000001" y="1327.655"/>
      <point x="139.51250000000002" y="1350.36"/>
      <point x="209.4525" y="1350.36" type="curve" smooth="yes"/>
      <point x="307.15250000000003" y="1350.36"/>
      <point x="346.28000000000003" y="1306.3950000000002"/>
      <point x="346.28000000000003" y="1234.2124999999999" type="curve" smooth="yes"/>
      <point x="346.28000000000003" y="1204.4524999999999" type="line" smooth="yes"/>
      <point x="346.28000000000003" y="1123.1675"/>
      <point x="301.0625" y="1090.04"/>
      <point x="212.73000000000002" y="1088.7749999999999" type="curve" smooth="yes"/>
      <point x="115.32" y="1087.3775" type="line"/>
      <point x="115.32" y="1039.665" type="line"/>
      <point x="218.435" y="1038.135" type="line" smooth="yes"/>
      <point x="314.29749999999996" y="1036.7375"/>
      <point x="350.485" y="994.4775000000001"/>
      <point x="350.485" y="920.8249999999999" type="curve" smooth="yes"/>
      <point x="350.485" y="882.92" type="line" smooth="yes"/>
      <point x="350.485" y="810.605"/>
      <point x="315.195" y="754.465"/>
      <point x="206.89249999999998" y="754.465" type="curve" smooth="yes"/>
      <point x="140.08499999999998" y="754.465"/>
      <point x="79.41000000000001" y="776.7725"/>
      <point x="39.085" y="800.2125" type="curve"/>
      <point x="45.0725" y="742.4825000000001" type="line"/>
      <point x="76.795" y="724.115"/>
      <point x="133.475" y="701.2049999999999"/>
    </contour>
  </outline>
</glyph>
<glyph name="micro" format="2">
  <advance width="855.5125"/>
  <unicode hex="00B5"/>
  <outline>
    <contour>
      <point x="727.4625" y="982.4875000000001" type="line"/>
      <point x="651.2425000000001" y="982.4875000000001" type="line"/>
      <point x="651.2425000000001" y="209.54250000000002" type="line"/>
      <point x="655.67" y="206.76" type="line"/>
      <point x="650.7425000000001" y="0.0" type="line"/>
      <point x="727.4625" y="0.0" type="line"/>
    </contour>
    <contour>
      <point x="204.77" y="303.57500000000005" type="curve" smooth="yes"/>
      <point x="204.77" y="982.4875000000001" type="line"/>
      <point x="128.05" y="982.4875000000001" type="line"/>
      <point x="128.05" y="-347.0" type="line"/>
      <point x="202.68" y="-347.0" type="line"/>
      <point x="202.68" y="-131.85500000000002" type="line"/>
      <point x="194.56000000000003" y="151.8475" type="line"/>
      <point x="194.945" y="151.84750000000003" type="line"/>
      <point x="218.005" y="58.07499999999999"/>
      <point x="283.27750000000003" y="-16.1325"/>
      <point x="416.30500000000006" y="-16.1325" type="curve" smooth="yes"/>
      <point x="555.38" y="-16.1325"/>
      <point x="638.1775" y="78.31"/>
      <point x="658.7675" y="216.64249999999998" type="curve"/>
      <point x="678.4525" y="216.64249999999998" type="line"/>
      <point x="655.61" y="282.91999999999996" type="line"/>
      <point x="632.0675" y="142.115"/>
      <point x="550.2524999999999" y="49.197500000000005"/>
      <point x="422.95500000000004" y="49.197500000000005" type="curve" smooth="yes"/>
      <point x="275.555" y="49.197500000000005"/>
      <point x="204.77" y="148.055"/>
    </contour>
  </outline>
</glyph>
<glyph name="paragraph" format="2">
  <advance width="571.27"/>
  <unicode hex="00B6"/>
  <outline>
    <contour>
      <point x="308.565" y="670.935" type="curve"/>
      <point x="373.8225" y="670.935" type="line"/>
      <point x="373.69" y="1278.0" type="line"/>
      <point x="307.4625" y="1278.0" type="line" smooth="yes"/>
      <point x="159.1575" y="1278.0"/>
      <point x="89.345" y="1184.5725"/>
      <point x="89.345" y="1036.2125" type="curve" smooth="yes"/>
      <point x="89.345" y="914.4575" type="line" smooth="yes"/>
      <point x="89.345" y="764.1999999999999"/>
      <point x="159.1575" y="670.935"/>
    </contour>
    <contour>
      <point x="427.015" y="0.0" type="line"/>
      <point x="427.015" y="1278.0" type="line"/>
      <point x="349.59" y="1278.0" type="line"/>
      <point x="349.4575" y="0.0" type="line"/>
    </contour>
  </outline>
</glyph>
<glyph name="onesuperior" format="2">
  <advance width="343.4675"/>
  <unicode hex="00B9"/>
  <outline>
    <contour>
      <point x="199.255" y="712.6324999999999" type="line"/>
      <point x="258.46000000000004" y="712.6324999999999" type="line"/>
      <point x="258.46000000000004" y="1393.265" type="line"/>
      <point x="191.85" y="1393.265" type="line"/>
      <point x="28.44" y="1273.7875" type="line"/>
      <point x="27.0125" y="1210.51" type="line"/>
      <point x="193.46" y="1331.645" type="line"/>
      <point x="199.1225" y="1331.645" type="line"/>
    </contour>
  </outline>
</glyph>
<glyph name="ordmasculine" format="2">
  <advance width="569.0825"/>
  <unicode hex="00BA"/>
  <outline>
    <contour>
      <point x="284.475" y="630.6025000000001" type="curve" smooth="yes"/>
      <point x="420.0275" y="630.6025000000001"/>
      <point x="491.50250000000005" y="713.0174999999999"/>
      <point x="491.50250000000005" y="867.5525" type="curve" smooth="yes"/>
      <point x="491.50250000000005" y="1056.785" type="line" smooth="yes"/>
      <point x="491.50250000000005" y="1211.1875"/>
      <point x="420.29249999999996" y="1292.735"/>
      <point x="284.475" y="1292.735" type="curve" smooth="yes"/>
      <point x="149.4225" y="1292.735"/>
      <point x="77.58" y="1211.1875"/>
      <point x="77.58" y="1056.785" type="curve" smooth="yes"/>
      <point x="77.58" y="867.5525" type="line" smooth="yes"/>
      <point x="77.58" y="712.5174999999999"/>
      <point x="149.05499999999998" y="630.6025000000001"/>
    </contour>
    <contour>
      <point x="284.6075" y="683.67" type="curve" smooth="yes"/>
      <point x="188.515" y="683.67"/>
      <point x="140.08" y="746.9725000000001"/>
      <point x="140.08" y="863.27" type="curve" smooth="yes"/>
      <point x="140.08" y="1060.9650000000001" type="line" smooth="yes"/>
      <point x="140.08" y="1177.365"/>
      <point x="188.515" y="1239.6675"/>
      <point x="284.6075" y="1239.6675" type="curve" smooth="yes"/>
      <point x="380.5675" y="1239.6675"/>
      <point x="428.63499999999993" y="1178.1000000000001"/>
      <point x="428.63499999999993" y="1060.9650000000001" type="curve" smooth="yes"/>
      <point x="428.63499999999993" y="863.27" type="line" smooth="yes"/>
      <point x="428.63499999999993" y="745.9725000000001"/>
      <point x="380.0675" y="683.67"/>
    </contour>
  </outline>
</glyph>
<glyph name="guillemetright" format="2">
  <advance width="815.2975"/>
  <unicode hex="00BB"/>
  <outline>
    <contour>
      <point x="310.715" y="490.325" type="line"/>
      <point x="70.93" y="102.82000000000001" type="line"/>
      <point x="147.3375" y="102.82000000000001" type="line"/>
      <point x="378.8875" y="472.5" type="line"/>
      <point x="378.8875" y="508.28249999999997" type="line"/>
      <point x="147.3375" y="877.1675" type="line"/>
      <point x="70.93" y="877.1675" type="line"/>
    </contour>
    <contour>
      <point x="660.0625" y="490.325" type="line"/>
      <point x="420.2775" y="102.82000000000001" type="line"/>
      <point x="496.685" y="102.82000000000001" type="line"/>
      <point x="728.235" y="472.5" type="line"/>
      <point x="728.235" y="508.28249999999997" type="line"/>
      <point x="496.685" y="877.1675" type="line"/>
      <point x="420.2775" y="877.1675" type="line"/>
    </contour>
  </outline>
</glyph>
<glyph name="questiondown" format="2">
  <advance width="668.635"/>
  <unicode hex="00BF"/>
  <outline>
    <contour>
      <point x="450.29" y="612.6925" type="line"/>
      <point x="378.7925" y="583.4699999999999" type="line" smooth="yes"/>
      <point x="184.17499999999998" y="507.1625"/>
      <point x="94.755" y="405.04249999999996"/>
      <point x="94.755" y="189.5625" type="curve" smooth="yes"/>
      <point x="94.755" y="-3.9175000000000004" type="line" smooth="yes"/>
      <point x="94.755" y="-204.6275"/>
      <point x="173.54250000000002" y="-312.47"/>
      <point x="363.51" y="-312.47" type="curve" smooth="yes"/>
      <point x="468.8525000000001" y="-312.47"/>
      <point x="558.075" y="-273.56"/>
      <point x="607.5925000000001" y="-237.9875" type="curve"/>
      <point x="617.3025" y="-164.89249999999998" type="line"/>
      <point x="554.1825" y="-207.67"/>
      <point x="471.94750000000005" y="-243.315"/>
      <point x="375.935" y="-243.315" type="curve" smooth="yes"/>
      <point x="227.69250000000002" y="-243.315"/>
      <point x="171.60750000000002" y="-159.8075"/>
      <point x="171.60750000000002" y="3.147500000000001" type="curve" smooth="yes"/>
      <point x="171.60750000000002" y="191.0925" type="line" smooth="yes"/>
      <point x="171.60750000000002" y="368.3125"/>
      <point x="239.9525" y="451.615"/>
      <point x="400.285" y="516.7850000000001" type="curve" smooth="yes"/>
      <point x="450.29" y="536.5500000000001" type="line"/>
    </contour>
    <contour>
      <point x="416.245" y="995.3725000000001" type="curve" smooth="yes"/>
      <point x="378.32" y="995.3725000000001"/>
      <point x="360.5925" y="970.115"/>
      <point x="360.5925" y="920.4125" type="curve" smooth="yes"/>
      <point x="360.5925" y="907.28" type="line" smooth="yes"/>
      <point x="360.5925" y="858.5775"/>
      <point x="378.32" y="833.32"/>
      <point x="416.245" y="833.32" type="curve" smooth="yes"/>
      <point x="453.965" y="833.32"/>
      <point x="470.795" y="858.5775"/>
      <point x="470.795" y="907.28" type="curve" smooth="yes"/>
      <point x="470.795" y="920.4125" type="line" smooth="yes"/>
      <point x="470.795" y="970.115"/>
      <point x="453.965" y="995.3725000000001"/>
    </contour>
  </outline>
</glyph>
<glyph name="AE" format="2">
  <advance width="1312.7575"/>
  <unicode hex="00C6"/>
  <anchor x="655.4599999999999" y="0.0" name="bottom"/>
  <anchor x="655.4599999999999" y="1278.0" name="top"/>
  <outline>
    <contour>
      <point x="58.58" y="0.0" type="line"/>
      <point x="140.36" y="0.0" type="line"/>
      <point x="605.805" y="1219.265" type="line"/>
      <point x="672.925" y="1219.265" type="line"/>
      <point x="672.925" y="1278.0" type="line"/>
      <point x="549.9499999999999" y="1278.0" type="line"/>
    </contour>
    <contour>
      <point x="274.68" y="424.96999999999997" type="line"/>
      <point x="686.8875" y="424.96999999999997" type="line"/>
      <point x="686.8875" y="491.96250000000003" type="line"/>
      <point x="274.68" y="491.96250000000003" type="line"/>
    </contour>
    <contour>
      <point x="689.235" y="0.0" type="line"/>
      <point x="1225.7324999999998" y="0.0" type="line"/>
      <point x="1225.7324999999998" y="68.92" type="line"/>
      <point x="689.235" y="68.92" type="line"/>
    </contour>
    <contour>
      <point x="660.9925000000001" y="0.0" type="line"/>
      <point x="738.9475" y="0.0" type="line"/>
      <point x="738.9475" y="1278.0" type="line"/>
      <point x="660.9925000000001" y="1278.0" type="line"/>
    </contour>
    <contour>
      <point x="705.1675" y="621.3475000000001" type="line"/>
      <point x="1213.305" y="621.3475000000001" type="line"/>
      <point x="1213.305" y="689.5024999999999" type="line"/>
      <point x="705.1675" y="689.5024999999999" type="line"/>
    </contour>
    <contour>
      <point x="686.6324999999999" y="1209.2125" type="line"/>
      <point x="1222.9675" y="1209.2125" type="line"/>
      <point x="1222.9675" y="1278.0" type="line"/>
      <point x="686.6324999999999" y="1278.0" type="line"/>
    </contour>
  </outline>
</glyph>
<glyph name="Eth" format="2">
  <advance width="925.1149999999999"/>
  <unicode hex="00D0"/>
  <anchor x="454.395" y="0.0" name="bottom"/>
  <anchor x="467.32249999999993" y="639.0" name="center"/>
  <anchor x="454.395" y="1278.0" name="top"/>
  <outline>
    <contour>
      <point x="15.4825" y="630.9375" type="line"/>
      <point x="492.365" y="630.9375" type="line"/>
      <point x="492.365" y="693.8225" type="line"/>
      <point x="15.4825" y="693.8225" type="line"/>
    </contour>
    <component base="D"/>
  </outline>
</glyph>
<glyph name="multiply" format="2">
  <advance width="786.83"/>
  <unicode hex="00D7"/>
  <outline>
    <contour>
      <point x="686.96" y="348.7025" type="line"/>
      <point x="155.4075" y="951.9499999999999" type="line"/>
      <point x="107.4425" y="912.105" type="line"/>
      <point x="638.26" y="308.22499999999997" type="line"/>
    </contour>
    <contour>
      <point x="99.86999999999999" y="348.7025" type="line"/>
      <point x="148.57000000000002" y="308.22499999999997" type="line"/>
      <point x="679.3875" y="912.105" type="line"/>
      <point x="631.4224999999999" y="951.9499999999999" type="line"/>
    </contour>
  </outline>
</glyph>
<glyph name="Oslash" format="2">
  <advance width="925.795"/>
  <unicode hex="00D8"/>
  <anchor x="463.01500000000004" y="0.0" name="bottom"/>
  <anchor x="463.01500000000004" y="639.1324999999999" name="center"/>
  <anchor x="838.5125" y="10.1325" name="ogonek"/>
  <anchor x="463.01500000000004" y="1278.0" name="top"/>
  <anchor x="13.3675" y="1278.1325000000002" name="topleft"/>
  <anchor x="912.1624999999999" y="1278.1325000000002" name="topright"/>
  <outline>
    <contour>
      <point x="462.9125" y="-18.09" type="curve" smooth="yes"/>
      <point x="695.325" y="-18.09"/>
      <point x="819.0525000000001" y="125.8125"/>
      <point x="819.0525000000001" y="391.515" type="curve" smooth="yes"/>
      <point x="819.0525000000001" y="885.485" type="line" smooth="yes"/>
      <point x="819.0525000000001" y="1148.8325"/>
      <point x="692.3075" y="1296.09"/>
      <point x="462.3825" y="1296.09" type="curve" smooth="yes"/>
      <point x="229.47" y="1296.09"/>
      <point x="106.74249999999999" y="1151.1875"/>
      <point x="106.74249999999999" y="885.75" type="curve" smooth="yes"/>
      <point x="106.74249999999999" y="391.78" type="line" smooth="yes"/>
      <point x="106.74249999999999" y="128.3"/>
      <point x="232.48749999999998" y="-18.09"/>
    </contour>
    <contour>
      <point x="143.43" y="-74.6025" type="line"/>
      <point x="214.0675" y="-74.6025" type="line"/>
      <point x="273.265" y="64.4075" type="line"/>
      <point x="280.325" y="83.0875" type="line"/>
      <point x="693.7125" y="1153.06" type="line"/>
      <point x="708.1325" y="1183.455" type="line"/>
      <point x="782.365" y="1351.8675" type="line"/>
      <point x="711.3599999999999" y="1351.8675" type="line"/>
      <point x="656.3725000000001" y="1222.03" type="line"/>
      <point x="647.5175" y="1197.08" type="line"/>
      <point x="233.9375" y="128.0" type="line"/>
      <point x="218.9575" y="98.5925" type="line"/>
    </contour>
    <contour>
      <point x="462.64750000000004" y="50.504999999999995" type="curve" smooth="yes"/>
      <point x="277.2475" y="50.504999999999995"/>
      <point x="185.4925" y="171.6875"/>
      <point x="185.4925" y="380.5475" type="curve" smooth="yes"/>
      <point x="185.4925" y="889.635" type="line" smooth="yes"/>
      <point x="185.4925" y="1107.445"/>
      <point x="277.94" y="1227.495"/>
      <point x="462.64750000000004" y="1227.495" type="curve" smooth="yes"/>
      <point x="648.4150000000001" y="1227.495"/>
      <point x="740.3025" y="1107.0774999999999"/>
      <point x="740.3025" y="897.585" type="curve" smooth="yes"/>
      <point x="740.3025" y="388.4975" type="line" smooth="yes"/>
      <point x="740.3025" y="171.1875"/>
      <point x="647.59" y="50.504999999999995"/>
    </contour>
  </outline>
</glyph>
<glyph name="Thorn" format="2">
  <advance width="861.8375"/>
  <unicode hex="00DE"/>
  <anchor x="430.1175" y="0.0" name="bottom"/>
  <anchor x="430.1175" y="1278.0" name="top"/>
  <outline>
    <contour>
      <point x="186.785" y="231.6525" type="line"/>
      <point x="466.955" y="231.6525" type="line" smooth="yes"/>
      <point x="680.735" y="231.6525"/>
      <point x="776.8299999999999" y="356.97749999999996"/>
      <point x="776.8299999999999" y="557.975" type="curve" smooth="yes"/>
      <point x="776.8299999999999" y="726.9525" type="line" smooth="yes"/>
      <point x="776.8299999999999" y="925.42"/>
      <point x="681.235" y="1049.9375"/>
      <point x="468.79249999999996" y="1049.9375" type="curve" smooth="yes"/>
      <point x="188.88750000000002" y="1049.9375" type="line"/>
      <point x="188.88750000000002" y="982.445" type="line"/>
      <point x="465.865" y="982.445" type="line" smooth="yes"/>
      <point x="629.145" y="982.445"/>
      <point x="698.2125" y="884.8525"/>
      <point x="698.2125" y="724.29" type="curve" smooth="yes"/>
      <point x="698.2125" y="560.505" type="line" smooth="yes"/>
      <point x="698.2125" y="398.7375"/>
      <point x="628.7774999999999" y="299.64500000000004"/>
      <point x="463.63" y="299.64500000000004" type="curve" smooth="yes"/>
      <point x="186.785" y="299.64500000000004" type="line"/>
    </contour>
    <contour>
      <point x="144.255" y="0.0" type="line"/>
      <point x="222.34250000000003" y="0.0" type="line"/>
      <point x="222.34250000000003" y="255.09" type="line"/>
      <point x="222.21000000000004" y="276.89500000000004" type="line"/>
      <point x="222.21000000000004" y="1004.4124999999999" type="line"/>
      <point x="222.34250000000003" y="1034.74" type="line"/>
      <point x="222.34250000000003" y="1278.0" type="line"/>
      <point x="144.255" y="1278.0" type="line"/>
    </contour>
  </outline>
</glyph>
<glyph name="germandbls" format="2">
  <advance width="909.3425"/>
  <unicode hex="00DF"/>
  <anchor x="433.37" y="0.0" name="bottom"/>
  <anchor x="433.37" y="982.4875000000001" name="top"/>
  <outline>
    <contour>
      <point x="128.05" y="1041.2375" type="curve" smooth="yes"/>
      <point x="128.05" y="0.0" type="line"/>
      <point x="203.20999999999998" y="0.0" type="line"/>
      <point x="203.20999999999998" y="1038.0149999999999" type="line" smooth="yes"/>
      <point x="203.20999999999998" y="1196.71"/>
      <point x="258.8675" y="1286.1875"/>
      <point x="427.0575" y="1286.1875" type="curve" smooth="yes"/>
      <point x="581.115" y="1286.1875"/>
      <point x="636.435" y="1210.0649999999998"/>
      <point x="636.435" y="1119.8825000000002" type="curve" smooth="yes"/>
      <point x="636.435" y="957.4875"/>
      <point x="399.34749999999997" y="896.4225"/>
      <point x="399.34749999999997" y="701.9275" type="curve" smooth="yes"/>
      <point x="399.34749999999997" y="694.9275" type="line" smooth="yes"/>
      <point x="399.34749999999997" y="578.41"/>
      <point x="450.4075" y="529.5125"/>
      <point x="592.2874999999999" y="466.83250000000004" type="curve" smooth="yes"/>
      <point x="726.735" y="406.3325"/>
      <point x="753.3375000000001" y="348.7225"/>
      <point x="753.3375000000001" y="248.66" type="curve" smooth="yes"/>
      <point x="753.3375000000001" y="223.83999999999997" type="line" smooth="yes"/>
      <point x="753.3375000000001" y="113.3975"/>
      <point x="693.3725" y="51.595"/>
      <point x="576.865" y="51.595" type="curve" smooth="yes"/>
      <point x="501.515" y="51.595"/>
      <point x="445.76250000000005" y="72.7275"/>
      <point x="384.925" y="106.27" type="curve"/>
      <point x="392.6775" y="29.747500000000002" type="line"/>
      <point x="437.5025" y="6.5424999999999995"/>
      <point x="498.06249999999994" y="-16.3975"/>
      <point x="583.3875" y="-16.3975" type="curve" smooth="yes"/>
      <point x="739.2525" y="-16.3975"/>
      <point x="828.4975" y="68.8425"/>
      <point x="828.4975" y="222.88250000000002" type="curve" smooth="yes"/>
      <point x="828.4975" y="250.16000000000003" type="line" smooth="yes"/>
      <point x="828.4975" y="390.9125"/>
      <point x="778.2875" y="455.5875"/>
      <point x="635.365" y="519.6775" type="curve" smooth="yes"/>
      <point x="516.0799999999999" y="572.75"/>
      <point x="473.7725" y="608.6600000000001"/>
      <point x="473.7725" y="696.975" type="curve" smooth="yes"/>
      <point x="473.7725" y="704.71" type="line" smooth="yes"/>
      <point x="473.7725" y="869.045"/>
      <point x="712.39" y="932.0625"/>
      <point x="712.39" y="1122.0024999999998" type="curve"/>
      <point x="712.39" y="1254.765"/>
      <point x="622.6275" y="1350.295"/>
      <point x="427.85249999999996" y="1350.295" type="curve" smooth="yes"/>
      <point x="213.04250000000002" y="1350.295"/>
      <point x="128.05" y="1239.6750000000002"/>
    </contour>
  </outline>
</glyph>
<glyph name="ae" format="2">
  <advance width="1259.795"/>
  <unicode hex="00E6"/>
  <anchor x="629.6175" y="0.0" name="bottom"/>
  <anchor x="629.6175" y="982.4875000000001" name="top"/>
  <outline>
    <contour>
      <point x="903.875" y="-16.662499999999998" type="curve" smooth="yes"/>
      <point x="1007.9525" y="-16.662499999999998"/>
      <point x="1095.6325000000002" y="16.747500000000002"/>
      <point x="1157.18" y="63.3925" type="curve"/>
      <point x="1164.83" y="138.265" type="line"/>
      <point x="1093.24" y="84.8425"/>
      <point x="1011.1499999999999" y="51.065"/>
      <point x="913.9875" y="51.065" type="curve" smooth="yes"/>
      <point x="746.4275" y="51.065"/>
      <point x="655.2874999999999" y="147.86749999999998"/>
      <point x="655.2874999999999" y="321.4425" type="curve" smooth="yes"/>
      <point x="655.2874999999999" y="470.6325" type="line"/>
      <point x="655.2874999999999" y="484.6375" type="line"/>
      <point x="655.2874999999999" y="661.73" type="line" smooth="yes"/>
      <point x="655.2874999999999" y="840.4625"/>
      <point x="730.8375000000001" y="937.0125"/>
      <point x="880.5450000000001" y="937.0125" type="curve" smooth="yes"/>
      <point x="1028.885" y="937.0125"/>
      <point x="1104.0974999999999" y="841.0225"/>
      <point x="1104.0974999999999" y="665.1999999999999" type="curve" smooth="yes"/>
      <point x="1104.0974999999999" y="598.3625"/>
      <point x="1103.9650000000001" y="531.1825"/>
      <point x="1103.7" y="450.015" type="curve"/>
      <point x="1172.975" y="450.015" type="line"/>
      <point x="1177.535" y="497.4425"/>
      <point x="1178.33" y="535.9175"/>
      <point x="1178.33" y="578.7" type="curve" smooth="yes"/>
      <point x="1178.33" y="661.725" type="line" smooth="yes"/>
      <point x="1178.33" y="877.9525"/>
      <point x="1077.915" y="1001.415"/>
      <point x="886.6100000000001" y="1001.415" type="curve" smooth="yes"/>
      <point x="737.3875" y="1001.415"/>
      <point x="642.49" y="922.3"/>
      <point x="615.0749999999999" y="782.1474999999999" type="curve"/>
      <point x="619.2325" y="782.1474999999999" type="line"/>
      <point x="598.0225" y="920.7275"/>
      <point x="518.625" y="999.415"/>
      <point x="370.4925" y="999.415" type="curve" smooth="yes"/>
      <point x="253.35999999999999" y="999.415"/>
      <point x="162.445" y="954.005"/>
      <point x="105.79500000000002" y="911.035" type="curve"/>
      <point x="98.14500000000001" y="837.3974999999999" type="line"/>
      <point x="168.53" y="888.7475"/>
      <point x="260.5175" y="932.32"/>
      <point x="367.0475" y="932.32" type="curve" smooth="yes"/>
      <point x="511.58500000000004" y="932.32"/>
      <point x="579.5975000000001" y="847.6374999999999"/>
      <point x="579.5975000000001" y="681.9725" type="curve"/>
      <point x="579.4649999999999" y="506.865" type="line"/>
      <point x="579.3325" y="426.4875"/>
      <point x="579.9649999999999" y="350.10249999999996"/>
      <point x="582.8625" y="269.905" type="curve"/>
      <point x="588.4699999999999" y="252.44750000000002" type="line"/>
      <point x="610.83" y="81.6575"/>
      <point x="719.5275" y="-16.662499999999998"/>
    </contour>
    <contour>
      <point x="321.3075" y="-16.53" type="curve" smooth="yes"/>
      <point x="490.175" y="-16.53"/>
      <point x="574.3925" y="85.78500000000001"/>
      <point x="599.9699999999999" y="216.92499999999998" type="curve"/>
      <point x="615.24" y="216.92499999999998" type="line"/>
      <point x="585.6575" y="278.03499999999997" type="line"/>
      <point x="562.4224999999999" y="146.17000000000002"/>
      <point x="482.355" y="48.667500000000004"/>
      <point x="340.0875" y="48.667500000000004" type="curve" smooth="yes"/>
      <point x="211.94" y="48.667500000000004"/>
      <point x="150.9925" y="119.645"/>
      <point x="150.9925" y="249.96750000000003" type="curve" smooth="yes"/>
      <point x="150.9925" y="292.90250000000003" type="line" smooth="yes"/>
      <point x="150.9925" y="408.0375"/>
      <point x="205.9575" y="464.5025"/>
      <point x="350.4125" y="495.42499999999995" type="curve" smooth="yes"/>
      <point x="602.97" y="548.0825" type="line"/>
      <point x="597.6575" y="610.54" type="line"/>
      <point x="335.7875" y="554.6175000000001" type="line" smooth="yes"/>
      <point x="145.82500000000002" y="512.485"/>
      <point x="75.17" y="437.425"/>
      <point x="75.17" y="289.5175" type="curve" smooth="yes"/>
      <point x="75.17" y="241.3425" type="line" smooth="yes"/>
      <point x="75.17" y="73.98750000000001"/>
      <point x="157.5675" y="-16.53"/>
    </contour>
    <contour>
      <point x="618.725" y="450.015" type="line"/>
      <point x="1150.8925000000002" y="450.015" type="line"/>
      <point x="1150.8925000000002" y="512.165" type="line"/>
      <point x="618.725" y="512.165" type="line"/>
    </contour>
  </outline>
</glyph>
<glyph name="eth" format="2">
  <advance width="815.2175"/>
  <unicode hex="00F0"/>
  <outline>
    <contour>
      <point x="407.8225" y="-18.795" type="curve" smooth="yes"/>
      <point x="611.88" y="-18.795"/>
      <point x="718.6075" y="104.97500000000001"/>
      <point x="718.6075" y="333.3225" type="curve"/>
      <point x="718.6075" y="614.4300000000001" type="line"/>
      <point x="718.6075" y="913.5625"/>
      <point x="590.885" y="1046.91"/>
      <point x="299.0875" y="1330.175" type="curve"/>
      <point x="204.8325" y="1330.175" type="line"/>
      <point x="204.8325" y="1330.0425" type="line"/>
      <point x="496.785" y="1053.2849999999999"/>
      <point x="619.5675" y="926.7375000000001"/>
      <point x="642.845" y="712.91" type="curve"/>
      <point x="641.6099999999999" y="695.755"/>
      <point x="641.9475" y="681.8399999999999"/>
      <point x="642.1825" y="664.0225" type="curve"/>
      <point x="642.1825" y="550.87"/>
      <point x="642.1825" y="440.3675"/>
      <point x="642.1825" y="328.53999999999996" type="curve" smooth="yes"/>
      <point x="642.1825" y="144.79"/>
      <point x="562.235" y="45.6075"/>
      <point x="407.8225" y="45.6075" type="curve" smooth="yes"/>
      <point x="252.5425" y="45.6075"/>
      <point x="172.9625" y="144.79"/>
      <point x="172.9625" y="328.53999999999996" type="curve" smooth="yes"/>
      <point x="172.9625" y="571.5025" type="line" smooth="yes"/>
      <point x="172.9625" y="758.06"/>
      <point x="249.8075" y="859.4475"/>
      <point x="400.515" y="859.4475" type="curve" smooth="yes"/>
      <point x="539.625" y="859.4475"/>
      <point x="635.1700000000001" y="763.91"/>
      <point x="642.1825" y="593.6724999999999" type="curve"/>
      <point x="664.2125" y="673.0575" type="line"/>
      <point x="642.6" y="679.2875" type="line"/>
      <point x="630.9275" y="824.28"/>
      <point x="534.985" y="923.1875"/>
      <point x="384.77750000000003" y="923.1875" type="curve" smooth="yes"/>
      <point x="196.6275" y="923.1875"/>
      <point x="96.61" y="796.9175"/>
      <point x="96.61" y="568.955" type="curve" smooth="yes"/>
      <point x="96.61" y="332.955" type="line" smooth="yes"/>
      <point x="96.61" y="105.3425"/>
      <point x="202.8675" y="-18.795"/>
    </contour>
    <contour>
      <point x="178.85" y="1022.7500000000001" type="line"/>
      <point x="686.3125" y="1201.3775" type="line"/>
      <point x="686.3125" y="1260.4025000000001" type="line"/>
      <point x="178.85" y="1081.2749999999999" type="line"/>
    </contour>
  </outline>
</glyph>
